<svg version="1.1" xmlns="http://www.w3.org/2000/svg" viewBox="0 0 906.296875 596.7131515927609" width="1812.59375" height="1193.4263031855219">
  <!-- svg-source:excalidraw -->
  
  <defs>
    <style>
      @font-face {
        font-family: "Virgil";
        src: url("https://excalidraw.com/FG_Virgil.woff2");
      }
      @font-face {
        font-family: "Cascadia";
        src: url("https://excalidraw.com/Cascadia.woff2");
      }
    </style>
  </defs>
  <rect x="0" y="0" width="906.296875" height="596.7131515927609" fill="#ffffff"></rect><g transform="translate(10 203.67578125) rotate(0 70.296875 31.724609375)"><path d="M0 0 C0 0, 0 0, 0 0 M0 0 C0 0, 0 0, 0 0 M-0.30455917414742206 5.8042430170375034 C1.5300891806833126 5.488709378767413, 1.9359962550690286 2.823684512047039, 4.531812671157068 0.06880386209462219 M-0.4993461247207472 6.443351892058842 C0.4704035806340131 5.509543372800703, 1.6724336524032184 3.9676104805615644, 5.041656059729403 0.31901363728914794 M-0.3881232059467925 11.48490433585602 C3.041774210038417 6.217132050197039, 8.774605415429077 1.3828058648686123, 12.162716492962968 0.5864427129819751 M-0.659292027251829 11.494731120436965 C2.1249766698029733 8.916991809935464, 4.49189702124702 6.897822523567952, 9.94683572421683 -0.5941454318270325 M-1.7769035334279994 19.249854777847105 C1.7460873859316495 12.610900655173646, 8.739458735147636 8.873192209621816, 16.18727418920346 -1.0496476230281422 M0.1908951848232885 18.86178348576712 C3.2559614219578927 14.58956286664068, 8.117983799854105 10.490336606776916, 15.39002407575347 0.8901260324683955 M0.9610338827780698 24.026912767156123 C4.116365833613006 16.250609413344417, 10.422353993708882 10.2212186084826, 20.51361341802206 -1.5694768620491502 M-0.5405602648668673 24.57581179840034 C9.045285706476339 13.764338328024161, 17.594932205370867 3.8718549913923077, 21.803344988541568 -0.9368363149300691 M-0.07908747060695731 31.509201805804125 C9.254755590908081 22.665657581270544, 17.97494841300683 9.918346756134248, 24.94769709990582 0.22328578811257493 M0.23203096171369708 29.507048356112293 C10.677588466321627 18.409984031443138, 19.968678706738405 7.758626257542115, 27.185525810022266 0.4529518190783204 M-0.8969092481863221 37.61431455966209 C9.936006883798543 28.290883021650405, 19.223094310603578 16.248442285131638, 29.905708234242 -0.861992211894762 M-0.03330067089763489 36.86394886188333 C6.592075966507426 29.796308840257023, 13.688439645179026 21.780666051277613, 31.75514822122345 -0.5443806302488561 M-1.6229324795632607 41.54695306960099 C9.832890990748071 33.022996616894375, 18.69681897887071 21.606958698829715, 35.61123432945584 -1.2724957055318633 M0.7962799893365258 43.352039331193794 C11.255066901477825 28.887489283591236, 22.091728499667102 16.57723906029943, 36.00011247471099 0.2644539057370743 M-0.4241946563125438 49.00055749216013 C11.174113332350915 33.4603885645596, 27.76015470237767 21.1978653423136, 41.40623963493459 0.1878615178494698 M-0.9710143050179667 49.46929483269237 C14.635629781112087 31.77824317177904, 28.490063234221214 17.24522689413815, 42.394859626512755 -0.1365250127063149 M1.1506434709530922 53.811839037987696 C13.762462786837897 35.63758393863346, 31.57300206254751 19.93801031342683, 48.56509290910351 1.3336133647885369 M0.20957000206677634 55.25442242663662 C15.296881667707908 37.30520855616682, 31.839129910987545 19.923915369034873, 47.62064930419463 0.09636080806965097 M0.9853256606588872 60.935956613623006 C10.804420066717519 46.92863014433441, 21.083920580298045 34.66910412193687, 51.605539651349844 1.4975647959335454 M-0.6603949618433802 60.35578780667524 C11.559240557896121 46.76992592938436, 23.921051075603017 34.84941696360184, 52.28278193878448 0.6600215533225544 M1.0190904701731185 65.83692101926871 C13.78773029249655 48.138884183112594, 29.391093172566787 36.1371652814934, 57.10272987009884 0.5059684678237879 M1.906821792260466 65.51556949762025 C14.722496902696765 51.57797744441986, 26.165796142259875 36.49992865571986, 59.13087653284819 1.173526041701063 M6.716758052873551 64.70806201035023 C24.025000714590714 45.0118426990615, 41.52209889286974 23.64092473596871, 63.00019031473775 -0.42165190889253523 M6.761446911896705 63.88397591700644 C26.447148912582186 41.498379319886524, 47.099013414822764 18.334891529229665, 64.77609289241363 0.17167508346275184 M11.2266988972329 64.20191451952076 C27.271483711859773 47.82190481447793, 42.92487944651538 32.364579855408934, 69.42385224369183 0.30267507232387203 M12.680421442178677 64.84288159709638 C24.914190163454148 49.96290304144249, 37.69803769265047 37.87595483108574, 67.91140939504668 -0.8260718777437077 M19.908455377638415 64.02823663242846 C38.801496694694706 41.3661513947636, 59.270708105120846 16.92493289858588, 73.99302365634831 1.5351918721212314 M18.301272376634255 63.69759516064762 C37.73385584522385 42.31507662266249, 57.80565977345614 19.646278672353503, 75.0288452217752 -0.32202340666071905 M23.866474377515342 65.70273413061264 C34.89738394978697 48.165242959776435, 47.21000456839127 36.137045670247865, 78.63441706113247 -1.6244113529611894 M22.062095280329313 64.51933386380884 C41.39438695926303 42.277343216211364, 62.28500571371757 18.914819751739635, 78.63973812516508 -0.7713294346396395 M29.26107952125093 63.446883849721516 C45.01970229811705 46.01036661655107, 62.17676567318338 22.65172999974544, 84.89312170743153 -0.9331733922751653 M28.918776521791724 64.13879695433762 C45.13893368328211 47.44872423099244, 61.062263148053546 29.124132814233874, 84.99196666124419 0.4115920985771311 M34.122498942270425 65.16311032129437 C55.42168735197179 41.603787168892694, 78.01615487136536 16.911211704089794, 88.74663135367075 -0.029685339281414258 M33.56527104108736 65.21509231338263 C53.693930649074446 41.34057805895139, 74.10504948305434 18.194808347975524, 90.2902279575784 0.9219818866382496 M37.005778485970595 64.08931871120218 C50.35896182267308 51.50388487094909, 62.8256868064422 39.954475331919866, 95.91581649923742 -1.5342672333317182 M38.494765552753606 64.98401939392421 C59.67288005786284 40.03034082876838, 79.3888565189207 16.64447116266156, 96.41325994519562 0.5583126148013093 M45.08510462274818 64.00052356031595 C60.84275227511341 43.60429545103146, 79.17747351209523 25.191742836823245, 100.67895215255672 -0.07379141788678822 M44.50025145882784 64.55344796144276 C64.61225697444308 41.94737663195984, 85.40906746206929 18.111927262023734, 101.13411912666166 -0.7087843982850259 M48.24812736102843 66.41047752517494 C61.53298615059335 50.20057459232892, 77.59810665632534 33.53222278529528, 105.18269006301594 -1.3818591822984203 M50.175097761875925 65.19869683458688 C64.11594619266302 46.82756353353626, 79.49621769204687 30.122607579497497, 105.83740280800444 0.2570541576368228 M53.75087345019859 64.22620431642737 C68.90187633630903 50.09092281030238, 81.15658186261973 34.5613210966562, 110.25608648904033 0.6763758799726745 M54.97421426792574 64.1108168236142 C75.93501130974182 39.75629815425371, 98.02758629960891 16.220717982277428, 111.73952686678983 -0.1731497737844805 M61.031774148683915 64.72317534061253 C76.68835947783863 44.58421566120203, 95.40346879904678 23.810208305274642, 118.06551540102663 1.7587408097974944 M59.43432935454316 64.46551737217337 C81.71015036612447 39.91047738219434, 103.8500813187553 15.04837026664866, 116.9498889550552 1.3545673229314374 M65.02263745587166 66.44513305837863 C81.62750697150418 44.46194396023117, 99.37825182221745 29.149880324206414, 122.2089913943716 -1.752327976953012 M64.89121220275607 64.41673991552197 C78.16188599402014 49.85809127587217, 91.45649051449782 34.29315850751093, 121.97144141233792 -0.5275107242350998 M70.96267588018705 66.17926762626496 C86.41498478588247 48.2392825452787, 103.8664777789902 28.151897136161274, 127.81049260250046 0.45184405126047267 M69.69995056513031 65.16558452230868 C91.81529924806857 41.595313826051054, 113.03586264146239 15.546214420554314, 126.20126417870387 -0.6134010341353999 M77.70947867101738 63.85604025491975 C86.47565294990932 52.09278991881589, 99.15927908523145 38.590154717136954, 132.1748738998005 0.2607024800861524 M76.95217299769381 63.95388325279109 C90.03522793908952 49.00743740435161, 103.88038364885261 33.11688994394392, 131.99172799768093 -0.3751387340118839 M80.55303958678786 65.52435985088223 C98.60564411852363 44.43409982241698, 118.19283614798779 25.029139276171783, 137.60189466969697 0.11964059106328762 M80.6963266280124 66.13312680061782 C94.36456999707332 48.59992411542302, 107.7421488938489 33.75093259249014, 137.87077218433498 1.1061496822840837 M86.52672912688574 64.2514063748007 C107.17095072011118 42.32506250089949, 128.13195469669674 17.164239928818795, 143.38507297859607 1.4392418802856781 M87.65489938711396 64.15803785104652 C102.6421563576378 45.69556627419933, 119.10024024212214 27.43732073461544, 141.94700879921285 0.6432388729556777 M93.2213222997363 67.09780748321437 C108.84827678422444 47.08501757447516, 126.14210883742992 28.82950910054428, 143.28177237295156 8.815747119960918 M91.44469777756439 65.6554977227258 C103.96237369668617 52.303385372067, 114.52390405353042 39.354451981075584, 141.78605944540894 7.257021709819867 M96.09597085472679 64.01746188677149 C108.28753962378987 51.473123412566764, 115.96098400466303 40.43499635762161, 143.4165873141222 11.647910655068877 M98.29406910539156 64.41811972591327 C106.417851900068 54.37764364858361, 117.8422891732982 43.427573926248186, 141.72019070342262 12.887115574965897 M103.29223105028242 66.83271599201133 C116.21710048706596 53.16320105994307, 128.7151288754137 38.22466941791342, 143.15901677250474 21.640434526480554 M103.26317924816132 64.4731758042576 C114.96479469303775 51.85206778980978, 125.90051386318414 37.751595605769865, 142.13223772529125 19.98904648387414 M106.94503588579047 66.13418725958212 C117.12247475421202 54.03418775273085, 129.24201596248105 43.03709309796862, 141.81020034349598 26.722630150066905 M107.96123488690156 65.07616989301636 C120.33336388327737 49.887261031302145, 134.65834297179396 33.418946106903135, 141.54859035055227 24.54666076452493 M113.99672286967618 66.25594084602314 C121.7522607071721 54.89951370535488, 128.98978127966748 46.86777901314797, 142.69724116052112 32.25004705736726 M112.76676127417815 64.77976456083822 C122.66411651015324 53.73272507348479, 131.11734039596195 44.59606155168139, 141.13976601927152 31.36750379806697 M117.50800625132682 66.1753129619826 C124.8604980265836 59.19572484030934, 129.53430678551587 53.82432690628739, 141.8281190979674 36.6590058340298 M118.544824466019 64.42735436798077 C125.42388266748442 55.044068254580125, 134.3589987089107 47.59480095409742, 142.78157297497685 36.83110295725781 M123.4720047891676 66.48808751399979 C128.76342509880067 59.91774592036948, 135.2465299631342 52.88193308738579, 140.70571853926012 44.441774761593805 M122.86730908998992 65.22199250809267 C128.71091275720454 59.72947921503173, 132.39428354296507 55.00224121402941, 142.27538803273418 43.95789424824612 M130.08282659719885 66.22683944811934 C131.13255860635735 62.463819292765415, 136.93173022516996 58.2781172419513, 142.92073389208946 49.82800947545471 M129.70750686200523 63.767901916642494 C132.85959623486642 60.67693178077422, 135.92731909481847 57.35700734485791, 141.4259831842601 51.116591843882595 M134.56271297708759 65.76163749719274 C136.7431687506752 62.28082227695439, 139.94797832300904 57.80645402835307, 142.3884945762211 57.10403349805479 M133.96993043106653 65.55535851536554 C136.7145144526994 61.701233999902854, 139.32152108169976 59.66687833924311, 142.33014491227058 55.70740494333063" stroke="#868e96" stroke-width="0.5" fill="none"></path><path d="M1.255457365885377 -1.8174913469702005 C40.09233609631484 -0.5251806041577947, 80.71702038399528 -0.22976681202446336, 140.79563906230032 1.3869262989610434 M0.46545374672859907 -0.0821916637942195 C44.9494435379951 -0.9801069963138433, 89.33919790903455 -1.681017951981339, 141.4137137858197 0.4719053031876683 M139.8041091207415 -0.754882687702775 C141.72100219645273 15.042828681445464, 139.21469000496637 31.6997987023271, 141.91328533925116 62.73957974277437 M141.02151260059327 0.5284932376816869 C140.96477837311662 23.01834518763608, 140.66209159242547 44.281097718950335, 141.56941539328545 63.79341803211719 M142.31285342015326 62.29041296802461 C85.84197855528618 61.64923579821159, 32.26059381798258 60.63538826832344, 0.30846800841391087 61.5084528978914 M141.04965836089104 62.601707321591675 C89.11225126490753 62.47852173939086, 38.01707115104071 62.00362205996848, 0.05557182710617781 63.956884992308915 M-1.207994794473052 64.33249474130571 C0.1356053594735931 48.05433568427361, 0.03895732203996882 30.53179758366241, 1.0012676361948252 0.1900667604058981 M-0.24677034933120012 63.59768618363887 C0.8279359131879391 47.95300699611289, 0.7133919089860501 33.84886755010302, -0.16373610217124224 0.2946120919659734" stroke="#000000" stroke-width="1" fill="none"></path></g><g transform="translate(269.921875 204.23828125) rotate(0 95.423828125 31.724609375)"><path d="M0 0 C0 0, 0 0, 0 0 M0 0 C0 0, 0 0, 0 0 M0.12093032303733142 7.007761622269742 C0.29872280472975454 4.647834489846765, 1.5424860961685682 3.5503126264645233, 4.275129774542994 0.1287014040944391 M-0.6545635219337294 6.74437102419614 C0.6583286775319911 5.110233614980024, 2.194005960808877 3.630188118189499, 5.351188189493961 0.14444950221453248 M-1.1280881202686919 11.038525103449404 C4.682491554436777 6.196489636152646, 9.991445738434226 3.165934093355982, 9.506209525418413 -1.2613876302644849 M-0.3793696134258402 11.62956891474086 C2.226238227060887 9.545077325171054, 4.631157234076545 5.7300994095659465, 10.135871449810399 -0.4506353047594665 M-2.0990478629758815 17.020923172031218 C6.967213909635438 11.0065184355351, 11.940164726734729 3.943984288365975, 14.433502586096008 -1.3587012228625843 M-0.6883878559386591 18.990122865792983 C5.433457863541315 13.308498327675952, 9.80569035406942 7.1810298138569415, 15.24762705946662 1.243752849933224 M-1.1843850591965701 22.50916470931387 C4.8699815124618775 16.678476694686125, 10.145350526869237 10.267090470015914, 23.2424143704566 0.3812981056212905 M0.7207521304673765 23.386446977681576 C7.217300848002869 15.976213778505208, 13.266215103083399 9.004439506487829, 21.434264355616534 -0.8280682392254946 M0.696054424210395 32.38360653421675 C10.331080525373006 18.463363508557002, 17.181430472498544 9.036816659922774, 27.932202932101102 1.3043116865691484 M0.7468843497847573 29.994943934258274 C7.609076561888017 22.31400778922587, 16.32123081358314 13.127187622446531, 26.141183679599674 1.013974190132016 M0.9000508076417724 38.67316943761085 C7.447263071678686 29.800322208487657, 10.767222000920649 21.172045393369945, 29.963973145416773 -0.35646489437080575 M-0.0025466709491333006 37.39028037600343 C10.722821241392262 25.109228262252678, 20.044541716089366 12.836413617967914, 31.392630774943925 0.3759700107633357 M0.842024936494326 43.50638358536713 C10.981090326880691 31.230346928928412, 19.437092830597607 17.940604732732908, 36.793734393828856 -0.8118883556592742 M0.16095828280309377 41.73794325589739 C14.351786298087024 24.943554185200615, 27.98398660788321 8.860340082625285, 36.888419956715154 -0.24508227118286285 M-1.912638805806715 48.3130172590249 C15.511356829796933 35.15381693067759, 26.04582127523718 17.925280528257368, 43.1833728017246 0.18295563835194173 M0.5075260261072927 48.08961858008884 C13.047008381827016 35.312535550712624, 25.118997611235745 19.98033590596515, 42.72115634344124 0.5322978420509941 M-0.9926792948740868 53.478609794232355 C20.112274112734738 33.89134198259664, 38.39536151252778 12.934646824543066, 48.01467900252926 0.3039291192021416 M-0.049925822508647855 55.13147434633534 C16.789777153023387 37.11903260124562, 31.683925352328213 18.140498525502892, 46.59651362518805 0.042999481613581025 M-0.4069308972825496 59.3196482225288 C10.612780018147431 45.871671330363036, 22.447090153409967 34.703587693128654, 51.60032037063009 1.557665172539533 M0.264588927021137 60.253087185785574 C15.972788622852105 45.2747635915491, 29.07212260963871 28.1525965166677, 52.55045629548347 -0.43110622973751944 M0.07876681933617391 63.47397146911689 C16.872001497518575 50.15381835963032, 29.91730288170519 31.82958152940936, 56.497868789452326 -0.7432554200965917 M2.1194653262055496 66.03159656075158 C21.094674798532093 41.90827778627718, 42.499091167867924 19.9254080732764, 58.16951741939337 -0.5922395358536399 M6.411655883359849 65.12123741442204 C28.234971031494563 39.01068973899446, 49.2373104554695 15.647843886158604, 64.82077288338323 0.9195191769419679 M6.95184408506298 64.54592182626814 C27.059448265650282 42.91435258759056, 46.60011060789638 21.98656954642555, 63.30802086544563 -1.1331386889772048 M12.41002865826119 64.71280911609745 C35.95559596866482 40.8361712042934, 56.944371222835606 15.318267669604182, 67.05238578584805 -0.754711504805492 M12.531830311206768 64.20039845209783 C33.25892977900066 42.84791000401631, 51.7690623695119 17.615700001864447, 69.30835907370611 -0.6681333079595433 M18.290849393427447 64.56977278479128 C37.30625770965029 41.263820143494655, 55.24227459559011 22.56831790833595, 75.35693737123403 -0.9858768796907498 M17.896365060664788 64.4165459984982 C30.685795493434192 50.43742352341819, 43.43716373680047 36.332311981107964, 73.7182152877027 0.2604289799569415 M22.203486847283866 63.63166232704285 C43.02422752217224 41.292201180317804, 65.55767918217154 12.894863432901886, 80.39356202296642 2.062041333825462 M22.289207961002912 65.4755426591179 C45.910719501931545 39.93882494076148, 66.55862936049928 14.093734943615594, 79.51084132250128 0.25110918092089207 M27.540686519217697 66.35628270350036 C45.247952799134794 42.458746220560585, 64.91059875977908 22.148125876440467, 84.62727086543248 -1.8191675286086308 M28.878159443249015 65.51179861921456 C45.106789354637236 46.8892662081296, 60.89557260265991 28.184589545692546, 85.8022797966297 -0.9630497073100912 M33.752598417654184 65.69488657070309 C48.64963801418497 49.61554460852813, 59.54436708646075 33.322032496341734, 91.14297953205744 -1.906766435453747 M32.975338509968964 64.58188269743681 C51.77261324571576 43.19606313757741, 70.75958157391287 23.29285534534136, 89.07164190015385 0.5544039464126485 M39.001690262990095 64.74670721952204 C55.672606084341815 49.32019555599597, 70.05783872507637 29.171199665672418, 96.9564803972286 0.35275269893833183 M39.098345938200154 64.41280528426502 C59.847152077795045 40.12198899135185, 82.92136900125314 16.362145715806847, 95.87832962660164 -1.0630962351532958 M42.257070400622176 63.96058731582819 C54.52431240652088 52.48033157231857, 68.59258819981198 36.789808427736745, 101.82847034437114 0.31884565610689464 M44.470837192479955 64.69739708267956 C56.588882730404805 50.87535852458403, 67.9840985624117 37.45558575756201, 100.08231354103887 -0.41620799585925994 M47.388810713975666 66.33660764116081 C69.22807405681493 43.08163226863847, 87.01012386311257 19.579054785303768, 105.57552299787235 1.0567392717001454 M49.52309533787423 64.38968784882906 C68.8048626110737 42.54426369016108, 87.29394878283706 20.9365471034192, 105.56135501199347 -0.8461070879476651 M55.82285982743782 65.08062003116812 C75.79429219302071 41.28633016202742, 94.41378390345238 19.513250879627392, 112.88411649115749 -1.687391922742627 M53.95319424291086 64.45318933047112 C71.9261576161046 46.033160676517774, 90.00751314594335 25.20315270015206, 111.4312839795313 0.6344393697301527 M59.355070874433885 64.57942401738941 C72.81057594974024 49.57331869726373, 86.97796074060058 37.23830102573868, 117.96554666962328 0.16810723864957566 M59.94727634765572 64.9298219087544 C78.20376834553817 45.308039818157155, 95.88093407805854 26.3645669266279, 116.10716215818974 0.08935583015456672 M65.46217372935112 63.3005901854729 C88.8737160772888 41.213659629784885, 108.9151167241498 13.277661134045225, 120.65025000366649 0.2420012967477021 M64.8967748956367 64.93348795643651 C79.34160737608516 48.76221014663345, 94.1575244409883 32.18558150548462, 121.80385595000615 -0.04536294119409945 M70.11580277561475 66.76763681695786 C86.03320213388392 48.00296440265135, 101.04116792202922 30.804369589890015, 128.48212650171234 0.8917929080910696 M70.61869170191963 65.71899847966608 C83.2396787616213 50.193201139514166, 94.82304037921861 36.113737435082754, 126.03660935754641 1.3337268743328465 M75.09346913761208 66.45985324749253 C97.48292519086256 41.48190595489771, 119.73232909761077 14.26418093848659, 131.37345291314813 -1.1317442166721179 M76.07281938503245 64.67564647620074 C92.78319002094442 45.379218162730005, 109.06184602586252 25.892844945551303, 132.6822071868384 -0.25419891300701636 M80.7925884487683 64.78747650861615 C99.91919914975466 46.033470290076316, 115.44361235171502 25.730944646422273, 136.4189104963991 0.29061132899740016 M80.58201913504098 64.39613357718909 C96.85003267333329 46.013851906424506, 114.51438695430517 27.76637190470013, 138.19925281544803 1.1946941404349474 M87.54145308347067 65.991514685977 C109.7888746076292 39.59631537917809, 131.1596166363056 15.748497990820823, 143.20655725085246 1.5463520057478917 M86.5494429454731 64.67014340538879 C101.36792010703059 47.999339091565616, 117.36328980663788 28.62486198545154, 143.34539042440312 -0.8375275300836194 M92.41325992514447 65.1189235611143 C106.00439363934032 50.02948399033062, 117.83849045894135 36.99149652233676, 146.63185568493347 0.2664179701185958 M92.67881138139472 65.55326821694844 C112.11047098270083 42.35389966688567, 131.37943861320247 19.181950832842936, 147.39758276626955 0.6783611440858976 M98.53708259817695 62.9224299696763 C113.50388932020293 44.19203196114175, 132.89049175516362 24.454581103572444, 152.20864504802944 0.22502043275774497 M96.69163581133371 65.36058225962566 C110.73706965276321 50.92370753410607, 122.56972047869164 34.445518149230054, 153.86933339707525 -0.6876827767988942 M103.91189923599333 66.83570844320228 C118.28333620639019 48.922476438806626, 131.93904629109957 33.727943782481375, 158.88316909856553 -1.685181699795379 M102.54749617535592 65.7355684145691 C119.28035617732351 44.680037345783106, 138.90401560462413 23.416480003373543, 158.73096444438602 -0.7560435990893382 M106.71756471298087 65.87320456734045 C131.35533886082112 40.484693521873936, 152.41378124042478 14.533768980039603, 166.34504833592905 1.446741533107442 M107.16126321698923 65.64369155453636 C128.95741216225593 40.43730842064503, 149.31319190101084 15.471038004913026, 164.12683883922978 0.25612636247215903 M114.12883841256482 63.6053116236301 C125.87309572026203 49.694783250385065, 138.68761227230735 36.16821133384947, 169.84130776854522 1.52516778800549 M113.6233762512995 64.44132518567609 C130.98823165263303 45.41545161990641, 148.46286058769095 23.30569647175402, 168.59563808417238 -0.19616657346574584 M119.62635645913245 65.05819394771945 C135.65761821848753 46.6344285087948, 150.80663832291737 26.343288587302077, 175.48734914580132 0.34774577554699704 M117.91706539681466 63.86932480574589 C138.78121788512996 42.93512603501041, 158.11518881077748 19.429650918125297, 174.78758448524172 0.00781590335455462 M123.81065948610897 65.68896357114777 C143.0513645340918 43.63872028481964, 157.78846796680713 24.451829261553584, 179.08097872612257 0.5805719022712026 M124.13862934360053 65.12195454589441 C143.16594613503088 43.2323839123559, 163.32744010711318 20.22913672920035, 179.68471892000366 -0.2765292634183254 M127.71316486788169 66.28550357956328 C145.71239656313622 47.41984957223058, 161.4821908433607 27.743717663886486, 185.41337950889627 -1.3419863711736184 M129.21465758518502 64.84046052887925 C147.9546891539741 43.705563900831024, 167.7582463033302 21.049484649282768, 186.31812306948612 -0.4655731385267359 M133.6101944878758 65.94164475450528 C152.51645374460716 42.35431114107982, 171.47308179355096 24.06117705257912, 191.08313900254763 -0.24211388824824098 M134.12230818663397 64.18199751084906 C146.24799818349413 51.72157895779929, 158.22318144547828 37.27008765785489, 189.98819718625492 -0.17852815332207683 M138.3339469704786 64.95698893162196 C154.35702964544612 47.21182143259021, 166.02397261017603 35.21693506872134, 193.18298534050183 1.7201138825866877 M140.60653001647532 64.81320223956143 C152.22481365083462 50.67806425413454, 162.94593516459602 38.87399950728057, 193.3576462103759 2.7749635733443796 M146.08652544911527 65.81208564245264 C163.29505917544364 41.01126732369575, 183.03218499976407 18.952016913816607, 194.0183463101747 7.2295212676476694 M144.40034051477485 65.97912009616505 C155.46792991879545 52.37349152137149, 165.64631161152286 42.45927419519663, 194.57628879840547 7.67137065489851 M149.0948507691826 64.82296505286827 C164.2329943898081 46.96734348630113, 180.71861320132 30.842013068951005, 193.13802643994399 16.489203647360114 M149.28598889607 65.25148803364023 C164.9840852303178 49.02598097693486, 179.3393016019007 31.046188273312808, 193.71798441036202 15.6403936963751 M155.7049844010774 65.34276670373984 C168.17355882133106 53.702951814185404, 175.8203813986061 41.9093576174555, 195.46035282520643 20.686284937595033 M155.59552906239816 65.82411331746735 C165.25745399604176 53.606091984892004, 172.5750712981161 44.661333458507094, 194.31302913578293 20.224472775754535 M160.47645135322483 64.96336825160665 C173.4842600454983 52.4817970414729, 182.57856941464595 38.98611976592889, 194.64779318635874 27.419998429223398 M159.71139251632513 64.80825226629509 C171.25183254478236 51.33182657527965, 183.7256849042791 39.18245659280668, 193.12902375170552 26.90061828351716 M166.83715337501218 65.16991840711688 C173.4751162336117 56.34088935275375, 183.15960504736665 47.28187450742994, 195.20127878182626 31.903315528784475 M167.12755156387885 64.98089319038098 C174.85036017619103 56.72519371874394, 182.76613788204452 46.82891450844146, 193.67144663569576 33.37578966331162 M169.89739672486468 66.31601357680987 C176.33864492993357 59.540042872684694, 183.31181348914475 53.0467349479079, 195.1151176109962 38.61747869692651 M170.66979708262517 64.85368303337376 C175.63441496744642 60.138740771629124, 180.0435879152176 54.12832439033065, 193.2448169687815 39.33517835039554 M175.7608644021696 64.52352122133378 C180.27558739082292 59.7848629955719, 187.61285764929224 52.96242637274827, 192.6910221822938 44.287178090188775 M176.21296075359197 65.66650073053096 C183.41271050513467 57.157321376989216, 187.65091261867823 50.4068374429394, 193.17297250352857 44.51113441341755 M180.48196517076045 66.51807630777486 C185.47845152055027 63.36176370083682, 189.07314687487644 57.86579213146879, 193.2318123436306 51.54919426536675 M180.98825919335408 65.43684092572086 C185.69086669841292 61.242628022020995, 189.88339583510617 56.357600944203185, 193.8323013894033 52.35592275944094 M188.03756521004365 64.04682900645436 C189.8112113916065 62.233661326293365, 190.708741815616 61.00332294305954, 194.45865562702585 56.7013673430492 M187.14005763610007 64.45872717565523 C188.89008410089733 62.82576917587392, 191.3783750151043 60.72322325405889, 194.1337465849245 57.016996068618894" stroke="#868e96" stroke-width="0.5" fill="none"></path><path d="M-0.12480959855020046 -0.6841316167265177 C55.379360382193056 1.3456019945264053, 110.39515183815604 3.1212461180806352, 191.16703339852396 0.6543363984674215 M0.5261969892308116 0.0548671605065465 C71.79616049395591 -0.48918293117680145, 143.42687515071958 0.6287661671718161, 190.18854642193767 0.10948960203677416 M191.90543814934793 0.19006342254579067 C189.14861547345149 15.779118025882418, 191.9166811048411 26.860060675483695, 191.86313846148553 61.79104936681688 M191.74473238270733 0.762001913972199 C191.7134576301973 14.062582273545196, 192.0947336714666 28.93254148596243, 191.69120332878086 64.31025857944041 M190.13375451602045 62.69861782155931 C147.58067964342956 60.5789934539764, 105.1370045663709 60.40267606019665, 1.2915528658777475 63.997607534751296 M190.62349555175754 62.98815388698131 C140.44930998794555 60.89579850999075, 90.23054110351588 62.33942929474073, -0.4428175063803792 64.20536826271564 M0.6153763178735971 64.27945882640779 C0.9019599102568827 43.35638647699052, 1.384499266011735 24.387970728525396, -1.287408446893096 -0.4931399766355753 M0.6714891819283366 62.903519612737 C0.7135190364837399 45.85661723108824, -0.007162243413949887 27.95727973743996, -0.7797087104991078 0.6808354975655675" stroke="#000000" stroke-width="1" fill="none"></path></g><g transform="translate(516.953125 202.0546875) rotate(0 70.296875 31.724609375)"><path d="M0 0 C0 0, 0 0, 0 0 M0 0 C0 0, 0 0, 0 0 M-0.8324765115650246 5.90644853194534 C0.43962505233203975 4.703110458789176, 1.3680858931439448 3.3996560872383146, 4.38937964770431 -0.11567122602488455 M-0.5600361223937819 6.476474217002385 C1.4868522071983068 4.431129955866207, 3.430716438169035 2.376481804656882, 5.365824002730197 0.22979022859011228 M0.49998437996018996 10.926183651804505 C4.545303150023599 9.524532895015051, 4.673140802767241 4.4736804657732705, 9.687710675549638 -1.619369645874226 M-0.42420077015649216 12.384802369445145 C1.9597510585314417 8.736902971026678, 4.581286587047518 6.082142174240858, 11.113215128284825 -0.69393166572901 M1.143407798320963 17.59814963201123 C5.982606330893808 11.006410590832207, 9.591103526516466 4.528772373911691, 16.107184977739532 0.964025801692622 M0.38182537252546744 19.25287405764746 C5.1359323568085316 12.715977507753127, 10.383413509103644 6.869258761311032, 15.167732904202719 0.6729841061797908 M-0.40088516267023344 22.832669932111262 C5.935537796877796 15.567265601924895, 14.90497782548754 10.339006535494473, 21.100878790298367 -1.6826917124748704 M0.8914912149495695 23.13279401761955 C8.035164432709536 14.9213484071684, 15.001547803272159 6.591630440953828, 21.778046691136325 -0.11095036341105668 M1.0866996301849738 29.21834413311278 C7.824799263633308 19.55106265981272, 20.033102563823455 10.021323356482863, 26.13334732935986 0.7455117641028703 M-0.04566296557435834 30.943484234389118 C6.039914824114979 24.647656340840875, 10.316335889416758 19.08784082922896, 25.25205681254378 -0.029025464876299978 M0.8838642722833434 37.33292115088676 C8.373670715409869 23.373089743639568, 19.260663944215917 11.421590114180994, 32.273117344311274 0.343159942074049 M0.5459714204910675 36.90707228593652 C9.115492834125217 25.226563731530938, 18.354171760692438 15.102001393695279, 31.638423074452973 -0.9839403879583593 M0.5124514840216392 42.666259276304174 C7.956828806059427 30.18798000356424, 18.373006962883665 20.026455793432184, 38.77112009357785 1.5732242279779634 M0.12930765018323598 41.9302560627421 C13.328421164338444 26.621533465994627, 28.294054728342743 9.917886106193421, 37.06762385442977 0.1062643109914383 M1.8327675238250904 50.82195491590433 C12.170123061192626 34.45402611848894, 26.916129957109334 19.530137623765537, 42.37166357654684 -1.833052917537188 M0.1551366010680013 49.899682508454546 C14.584949137388117 31.85234040688298, 30.05471811638275 15.10059119573171, 43.46917833350204 0.3017800672306663 M1.6984953910809608 55.17187553033541 C14.073195433430083 41.66269600865227, 25.923764344975606 26.367312910610327, 48.12646030164349 0.09901866206789478 M1.1232899541732522 55.43023055833142 C18.00416873005688 34.09754519261168, 34.42534663289781 13.97564626753465, 46.791924264235675 0.7099569494079994 M-1.2292774057855098 59.83133627613674 C14.473097103917183 44.79562012319738, 30.348880134646596 26.586717165708414, 52.705599518255056 -1.512599822558581 M0.8029179620648534 61.9339377810214 C11.722871435957062 47.514719800409736, 24.727253639577526 31.771685698247268, 52.721240202658535 -0.52112298221898 M2.141031440593956 67.04950420351096 C20.23903408096671 43.98080184553882, 38.66010445015985 20.84474749977028, 59.21157498480679 0.5685005351226771 M1.2618297387517075 65.10415457633653 C21.760622767806222 43.33236927762265, 40.111703727662714 19.35018277338161, 58.8993232763365 -0.13371903400160434 M6.801585833597123 63.4298653178835 C23.841254386116795 44.860007243908306, 42.61639043942557 26.69719564244727, 64.49025720068593 -1.4030003042401304 M7.742830056752204 64.22976123681158 C20.9527828480325 50.97480866606739, 31.817912391484107 35.482269447128175, 64.64241141629745 -0.7668585206822982 M13.803100011696706 65.66011080190754 C27.492953841473202 48.61235691469393, 39.63228926508624 30.86220228969345, 69.94492117431774 0.8210253158922924 M13.227938086179684 66.01880416970914 C27.081715995234724 46.488684341418036, 44.19035174020339 28.572395636345526, 69.16106112510725 1.1125898763876094 M18.782460099279955 63.110154991231255 C32.60821000005355 49.056950721042526, 49.106164988189704 29.12615901490441, 72.84721865508946 0.38197610616816746 M18.37225894556202 64.29026387278675 C30.144496827755706 51.52045902687227, 40.31011171511246 38.901001937383995, 75.27736970879378 0.20348946746571528 M21.496456729772117 66.58085991739395 C41.30623132201963 41.998055617323345, 61.90738284037844 24.00925923283267, 81.15120590142635 -1.7103015268732378 M23.443966324965086 64.81652947719309 C36.74561118528285 47.680612903832824, 51.697532850174554 32.50492280650334, 79.64525304492292 0.43936219620066197 M27.13275727756044 63.20385866604384 C42.41351900962254 47.84956164132001, 55.73899372081601 31.328535976338244, 84.80431591271565 0.322309877416302 M29.041524717916754 65.31697210568574 C42.563275910085586 48.529148788399326, 57.53376542411921 30.865087435838113, 84.46766781452254 -0.018038002149950216 M35.12393362607017 65.41673201872021 C49.69520393913992 44.640274214448894, 69.50856263397077 22.72721447192312, 90.5613861973826 0.0013754755760686521 M33.313967189482895 64.52687151441336 C52.479895397774925 45.11896378751421, 69.46229542047158 23.813546480447812, 89.7168892701585 -0.7097985589374645 M39.80237537069807 66.61754139129404 C52.232121038543795 48.73594800952823, 66.8001764953784 35.06148406039665, 97.29563100481451 -0.5082685217457197 M38.0220585792009 64.94569903135631 C54.04309524254536 49.452930487917314, 68.54650259693669 30.531893081838902, 94.85173346785874 0.11372508609571241 M42.494612731840895 66.36645757463633 C59.13493307112941 48.73663380155651, 74.51905372190544 32.754233917410254, 98.81266909343654 0.5766617919902259 M45.038868414108144 64.13249629699497 C59.22364763680096 47.47407616206993, 72.8343830142386 30.899328671007055, 101.03783503518903 -0.43816387340175567 M49.61563946792388 65.58738947528633 C68.9580565782721 40.691197400616765, 89.60097918494806 19.83473245276167, 107.161495962636 1.5577213774321095 M49.85034382177049 65.00125400497797 C65.02426803831062 47.50911965422483, 81.20876185930166 27.47027136669461, 106.86486940317732 -0.9029302521722897 M55.32382607833427 64.22251705389228 C68.49332848118215 48.31676753422971, 86.08993027351477 28.73362764283091, 111.44851162083812 0.22991289111921986 M54.61647273321581 65.5691948405629 C68.27124263493673 50.77704275877095, 80.32279172431718 37.366317692536384, 110.56683057438947 0.6041197684327742 M60.33494757149733 64.20746796699345 C77.16097767238371 49.19795386593671, 92.41568045135784 29.943791285994017, 116.49243378843966 -0.4637803760774446 M60.39156165100999 65.02570012239843 C72.79746194443271 52.274108103416694, 84.28402122572872 36.82567542273304, 117.08319432586285 0.13812157889380927 M67.23315569680031 66.37114092523807 C87.1247942529465 39.06756296217945, 106.8916538376584 16.529594608758885, 120.91862081083735 -1.2307657582869354 M64.8414578811809 64.72588316074216 C80.2203604557277 47.92274646560813, 94.33324152913842 31.977096705554118, 121.55949112213483 0.2200308821911392 M71.28500671266843 65.41088233516541 C91.0685847274423 42.426689704476686, 111.29991661960197 20.365779935435967, 125.25339457145645 -1.227212473969935 M70.4638273012944 64.25951589924273 C86.16649260119516 45.073739190151954, 102.47560162316165 28.06996962547064, 127.84787902827128 1.1320024344734563 M75.750433618489 66.79230965742371 C90.20815225769611 48.4699292548777, 103.52567386193924 30.835497058186093, 132.57895369468423 1.5964813125217603 M76.30537659237841 64.44460227315776 C87.46943147327815 50.98141654186698, 100.02351362299368 37.454842321232235, 132.5683069128001 -0.3343270165016605 M82.69677392268721 65.72448804855222 C99.09461451186638 44.656764801854735, 115.72111001804758 24.340272767471554, 137.34740131394594 -0.5291348672725888 M80.18213100699876 65.39630485113585 C103.92236414105668 41.01647792698665, 126.37820984692813 15.650400668089887, 138.32879221578716 0.1910879104144243 M88.30974187465033 64.0597537191992 C103.00254858776435 47.28430248489179, 116.48696935081188 31.674002121480754, 141.37959924564777 3.2166787327408173 M86.39665660118332 65.52051819343467 C99.8725775387716 49.27654611755868, 112.86171846349185 34.46213640063693, 141.1305251227793 2.1596937484248855 M93.70745623280362 65.26889057590388 C112.57788220783674 43.92749001163213, 130.03051608677168 19.155032228330327, 143.3352547862435 6.465319134769572 M91.95833800249801 65.58279549370282 C108.29949119668412 44.963887657575924, 125.57963271721822 24.962017359013494, 142.24420536187088 6.418555244346692 M96.25141249653434 63.340953579314515 C110.18728184482178 49.949264926736575, 118.84804771570634 38.677408715771904, 140.61630614709188 15.275696933793547 M98.30060064197069 65.70192193719791 C109.22449278800141 50.421753154238964, 121.3239253977841 36.90413971247847, 141.51967763856132 13.920961655269089 M104.36051067426772 65.75844538597038 C118.58340170640871 49.17765185113663, 132.3860981049315 28.06241781976793, 142.24459604858964 21.63767042068374 M101.50118852216721 65.4188413425686 C111.86533778073868 54.483338350903374, 120.58163901003078 42.80594152368248, 142.66985522988796 19.32361087167245 M108.822027515391 66.39713970651968 C120.5496793508426 51.281466804158015, 135.37803160977614 37.17162422384192, 143.5486078361336 25.390707261311107 M107.99938644911546 64.69022952007248 C119.12453439435905 50.42338225790922, 130.75184394940882 38.73046203450829, 141.36370610038824 25.999021096537106 M113.60564427832944 64.50125794750171 C123.96103199906361 53.80566163697941, 133.86772115357928 42.910116813477515, 142.25778839314899 31.42551323721498 M112.8162978003813 65.9574209133582 C119.78059709568501 55.894320510222386, 127.39499565527575 47.15565441191116, 141.726825815128 31.330909586011764 M119.17441896247031 65.58329256956469 C126.8890411633714 53.65072018943715, 136.55735907995444 44.93784750716064, 143.157461344023 37.33856518404353 M119.27206675699266 65.13998195768337 C125.77216077436175 56.82576279522872, 131.3855114941255 50.36375889721865, 142.4026007426351 37.46247558785397 M125.29881407623883 64.3991837292479 C129.1277753860941 57.68270428520002, 136.26194587365563 49.760264023110935, 142.90285482218096 42.407287633336054 M123.20615607151534 65.70463772169664 C129.5831799679252 58.427098397647335, 134.72508672600352 51.312100186605306, 141.77248582297543 44.3653269832124 M130.31315873931348 65.78967146387212 C135.32296345204023 58.597121872859994, 138.62910704068184 52.57822617127859, 142.62744333065186 51.19931832073631 M128.72371414872072 65.60983896090538 C131.51430477294448 62.508873018809545, 134.96394739947405 58.57717373942228, 142.00343877343533 50.57533692113498 M134.2271289326311 64.38422753835333 C137.38143319236963 62.862543500093636, 140.20469629792177 58.25280482589101, 141.01695243239936 55.39320907998685 M134.26786981505015 65.38736278830332 C137.5098759572966 61.33475781654887, 139.93806791080556 57.92564823599662, 141.8251588049212 56.323017080648285" stroke="#868e96" stroke-width="0.5" fill="none"></path><path d="M0.2827289942651987 -0.3887178245931864 C29.603617859145743 1.8678494464067628, 59.12283474221476 1.135259545913141, 142.06604042090476 0.9309074934571981 M0.49270481150597334 -0.6460437951609492 C41.842525362662855 0.39476550471299565, 81.38601332562394 0.03234980356210149, 139.7663299171254 -0.3948204396292567 M139.14521970786154 1.9942681845277548 C142.24886251485873 15.930290778642302, 141.94480938709307 31.621690188552748, 139.09945436753333 64.30474395118654 M141.18813935201615 -0.23158882837742567 C142.13860319108096 22.732213211673297, 142.00648487657634 45.637067688552634, 139.8473569182679 64.30877046007663 M140.33633323945105 61.68477029167116 C106.87013552889402 60.98080390147661, 73.82113790683798 63.469958538336506, -0.7249712701886892 64.36103547178209 M140.53174722474068 62.51325420755893 C110.38667781588447 63.308656611458574, 79.6256444711762 63.5571398818653, 0.09312829654663801 62.845221352763474 M0.5187282804399729 62.98204386793077 C0.8060419031631681 41.80236130595695, -1.4826341799247529 19.28223036446653, -0.35981217585504055 -0.49354069866240025 M0.5569451777264476 63.74989278335124 C-0.589790742095538 43.76705094954559, -1.2057633504234035 24.176494462724804, 0.6103029875084758 -0.06448997836560011" stroke="#000000" stroke-width="1" fill="none"></path></g><g transform="translate(730.75390625 202.9296875) rotate(0 82.771484375 31.724609375)"><path d="M0 0 C0 0, 0 0, 0 0 M0 0 C0 0, 0 0, 0 0 M-0.7166595607669899 6.1064805038767975 C1.0444759304310636 3.926953619109151, 3.1334487885390314 1.41092205409403, 5.078151157828516 -0.4261060204508489 M-0.2068161721946547 6.356690279071324 C2.1770888292327175 3.8373529989223023, 4.221029382750248 1.588245663454446, 4.848026878344363 0.044799000009637435 M1.6657720291148532 12.661795996546328 C1.4730728653828322 8.020959497246507, 4.146067510028043 4.7968420787512045, 9.537835177731646 -1.0595248182222483 M-0.5501087396312846 11.48120785173732 C2.332476789624896 8.577790802428844, 5.9192433758263 5.332696767331401, 10.954574767452609 -0.8227893975481628 M0.441857493431284 17.063382302318388 C2.1804083996655717 12.670548879181403, 7.461586744041819 10.843326530535228, 16.463387282102783 -0.7945402798312733 M-0.35539262001870675 19.003155957814926 C5.001762999883385 12.795771552086473, 10.513822714899876 5.7921957413252265, 15.589703182227392 -0.3997253648075292 M-0.4802755096741702 22.581229705079554 C6.97655666150207 19.31681680540953, 9.482488450190694 11.906527352601397, 22.24836947051611 0.8399330781936172 M0.8094560608453367 23.213870252198635 C5.1279098104278935 17.955768182214666, 10.31021685536743 13.10680009475441, 21.775030129866565 0.27662058399761946 M-1.2946640597144707 30.411668997023455 C11.89766259407936 19.727565102692783, 20.46992669346718 7.2381567273898675, 24.302289959650846 1.7752185402449907 M0.9431646504019753 30.6413350279892 C6.51518311135379 23.486881472689287, 12.227172637011124 14.85016606711496, 26.615709906120212 0.8694545630377473 M-2.241184186292859 36.11877721902107 C10.13687327176339 22.13617774350297, 24.976690480808035 8.42091222785411, 31.86359737389425 0.40466794197105216 M-0.39174419931140747 36.436388800666975 C10.242121433358943 24.35583632063423, 21.781102361910353 10.004598506274654, 31.40356637951622 0.24853832007043408 M-1.128071294012571 40.991240786943365 C12.808379726517684 26.662272522515913, 27.618849347052038 14.284610796465753, 38.54064484667157 0.30258081491109934 M-0.7391931487574226 42.5281903982123 C8.300028484715726 32.8631160192015, 16.626481562834936 23.842124538481094, 36.91849199012046 -0.6379577637556473 M-1.2375972494483776 49.24398423232965 C11.562612987709135 35.60056950041734, 22.253809813994614 20.35198123169353, 43.62266225237005 1.124027744713331 M-0.24897725787021585 48.91959770177387 C9.200645536168551 38.51743930792226, 19.208670881367336 27.634506222590648, 42.1456699814608 -0.7698813156829232 M1.328842821786985 55.67270314082812 C12.00457661781852 41.13846283381279, 23.730315740330788 27.573222213844158, 48.893783974414944 -0.4199729870829536 M0.3843992168781014 54.43545058410923 C15.76175765000577 34.571151312034075, 32.8217212440142 15.837659858535858, 47.49585216860312 0.013828670437280977 M-1.5352416968812435 62.62904079397808 C10.424639562308124 49.660128865707634, 23.11632648125984 33.26122641729525, 51.9440211371935 0.33736795517045337 M-0.8579994094466059 61.79149755136709 C11.115698183905279 46.158198931835024, 23.477430814099296 32.044099914341245, 53.5225811700753 -0.9912848076374523 M0.6816533769152144 65.41099236698219 C12.298908461742073 49.391265779318275, 27.372538241003692 36.48455612794487, 58.983289374130976 0.9937876030128443 M2.7098000396645645 66.07854994085946 C24.267392477504586 38.7406015650095, 47.221118647907616 13.633426253660033, 58.14246817594321 -0.28627011875845554 M6.579113821554124 64.48337199026585 C26.70088494497841 45.33746552813774, 44.490512800856294 22.17010538586885, 62.15238105961461 -1.0222059579075804 M8.355016399230003 65.07669898262114 C22.70609126518107 45.55201459558791, 40.10845346453296 27.434207811325464, 63.35241517973472 -0.1751936401681533 M13.0027757505082 65.20769897148227 C26.110661891859976 45.62975013314046, 44.955260317456876 28.85473760592908, 68.33699307706966 0.5238430539484753 M11.490332901863049 64.0789520214147 C24.401897689229656 49.79069721840605, 36.341326739985576 37.66723151599027, 68.44989274651572 0.3037868842821254 M17.57194716316469 66.44021577127963 C35.34028632569142 45.19022715956849, 49.492311516611665 27.390936345532907, 72.47869905088338 -0.42783852577076686 M18.607768728591576 64.58300049249767 C32.58138587567658 47.507809016933685, 49.67318313991747 29.582607897035402, 74.75016224481406 -0.6280042976500226 M22.213340567948844 63.280612546197204 C37.45222028462185 51.57367203529496, 51.209265687002286 32.84722834869746, 78.38897711448101 -1.2560761655260393 M22.21866163198146 64.13369446451875 C42.26225114887065 42.868598379655275, 61.872514297206585 20.65244721083299, 78.80655361469564 -0.42083430481595485 M28.47204521424791 63.97185050688323 C50.487622217429966 38.41115318693298, 72.4635635818175 15.475868957474638, 84.0601821422498 0.24107572033088331 M28.57089016806057 65.31661599773552 C51.01417997083409 38.35295961149701, 71.58636756330407 14.097081182740965, 85.12768759968833 -0.20298826445807094 M32.32555486048713 64.87533855987698 C53.14668881740401 41.115914505704424, 71.48227542143073 21.262330261536903, 90.479573517615 -1.1784895866607172 M33.869151464394776 65.82700578579664 C47.46888549723262 48.8922722745561, 62.742482129608646 30.8000789279792, 89.39775351485798 0.2881573295722859 M38.83868097706328 64.12546624604944 C54.88601373167451 47.930860951555076, 70.62864854710845 29.350158137034917, 94.9402873649639 0.6988922491473772 M39.336124423021474 66.21804609418247 C50.95452582042297 51.2779377717347, 61.70594081974578 38.90570715684838, 95.19373147873253 -1.3002920249672911 M44.25787565937309 64.83123248127161 C60.09470051426504 48.58016507117178, 71.20083942703732 32.59254739406122, 99.85536431772167 0.5178332592944557 M44.71304263347803 64.19623950087338 C58.61533768906853 47.151073553483634, 75.04557658432194 29.327491667038757, 101.20567018137777 -0.8678221969281381 M48.105554540841815 64.27787429708275 C68.40901053164212 43.586125833387825, 90.03425909918121 21.034558382092158, 106.06872175027561 0.253716529428722 M48.76026728583032 65.91678763701799 C59.91575820808244 51.36882540361583, 73.06222266439266 37.688246636173815, 105.95390911632163 0.13306293644732392 M53.8350099958567 65.58139977913108 C73.69366019027788 43.42228158086069, 89.63697983009229 25.34742068678578, 109.66918154605098 -1.8121271589105348 M55.318450373606204 64.73187412537392 C69.46420122488152 48.73280000577226, 82.8912423362324 32.26199662072937, 111.00935634862996 -0.2342318686922411 M61.644438907843 66.66376470895588 C76.33748411859631 48.17876025211285, 89.8135125276118 30.34985278205766, 114.64538330044451 0.5621136101476836 M60.528812461871574 66.25959122208982 C74.28602784270181 47.94123138605143, 90.2110022659935 30.79320624255589, 117.05465171784016 0.3578897156335401 M65.78791490118797 63.15269592220538 C76.12040002921455 50.40050486095144, 88.84344711338696 34.600271694689255, 120.98010723385295 -1.2196403725256744 M65.5503649191543 64.3775131749233 C83.00422658926294 45.16807271469124, 99.95587637154829 25.651714600441352, 122.38473975098958 -0.20340567009500887 M71.38941610931684 65.35686795041886 C93.02060373498273 41.339980484133136, 111.01139095339045 14.810710657028253, 126.74459710470154 0.6102697996087088 M69.78018768552025 64.29162286502299 C89.22477367832056 44.25238826888453, 110.63222831421515 21.507831743034544, 126.4074425756441 -0.1760023322291957 M75.7537974066169 65.16572637924455 C96.53902639577738 38.53366758984876, 119.2089663696037 16.56988039351552, 130.75347341237756 -0.1622259128009631 M75.57065150449732 64.52988516514651 C92.08123515522479 46.54810806291008, 107.9032036455408 28.135859991282118, 132.7046231228316 -0.2145525855114414 M81.18081817651336 65.02466449022168 C95.21488674907543 46.95477108797378, 111.87406967507398 28.0389336664201, 139.37876116530626 -0.7577498532154294 M81.44969569115136 66.01117358144248 C94.71008950452405 51.814673653532935, 107.1666912269002 36.63040437439655, 137.252462895118 0.6984498887068895 M88.27611454339346 64.83484661899854 C106.52215437884881 43.38083326253292, 126.24785710479037 20.25765999286238, 141.86086211287486 -0.5036533109864223 M86.83805036401024 64.03884361166854 C103.25770766978307 45.15010266730584, 118.45440381471926 28.11761373730438, 144.13868419853108 0.24624340068343997 M92.7652271406825 66.92838479711436 C106.33666186849211 45.86179972098074, 125.70762608536404 25.98465010806423, 149.1225825135086 2.1411601204252975 M91.26951421313987 65.36965938697331 C109.88783358914208 43.439384355873464, 129.6893515121199 20.472255266013107, 147.78282791063677 0.8467248940668242 M98.80457334276771 62.96816211021738 C107.8359603395207 52.10055435672205, 119.73248522752814 40.13038403343795, 153.0801053665948 -1.5139420983320377 M97.10817673206812 64.2073670301144 C117.0450091550785 40.4729513136425, 136.6940131899967 18.271348445933008, 154.65347571246298 0.6460233041146495 M103.79547503307433 66.92300933984687 C123.52097702242534 38.07902024985185, 145.64342690965515 16.81241615180067, 157.45701818055863 0.5838551892808539 M102.76869598586083 65.27162129724046 C123.15006909263639 40.67091331298164, 144.42003957996883 17.806073087308135, 159.4885278565755 -0.41257380052442727 M107.6951308359896 65.96752832165106 C129.76422019891902 42.76242854744707, 149.37519368743807 17.922244991551445, 165.0952852047874 -1.8693618060878094 M107.4335208430459 63.791558936109084 C129.69893436594862 39.90669552182761, 151.22336254494365 14.702579343137458, 165.01242539900227 0.4049531404071871 M113.83064388493878 65.45726858716922 C125.62223339007834 52.34125356322951, 137.98580763607924 36.287724550083766, 167.4571571397253 2.9503599825468 M112.27316874368918 64.57472532786893 C125.15347292724621 49.44722772226798, 138.6988648170399 34.48308021443822, 168.84430990932813 2.2017014810036954 M118.20999405430915 63.828550722049584 C134.52716632177854 47.08139676428196, 150.6102851568145 28.379422839206264, 167.28008433980705 6.649373416946759 M119.1634479313186 64.0006478452776 C128.62193287198352 52.49856996694753, 139.64892028959412 40.01346953354345, 168.5591866736284 8.198129307636549 M122.3360657275259 65.57364300783142 C136.77893368416946 48.90758099799061, 153.19207697483557 30.23496445266001, 167.887689045382 15.516254511869164 M123.90573522099997 65.08976249448374 C136.88074038965428 48.9354146836167, 150.42048920108786 34.38853645384595, 168.40514692639306 13.72562879717222 M130.51762002897635 64.14058478016295 C143.4715548442616 46.40101678404106, 159.41011875024927 31.486353480371825, 166.06743897684686 20.02523655818503 M128.94419823126123 65.49698727324494 C142.3949030515697 49.981509311743935, 154.28820759098335 36.39074449028899, 168.58729144465946 19.823710340091097 M134.6833225920857 66.90836307058346 C146.22211680123038 51.560889903393544, 155.50554664949144 37.67043019998508, 169.44526539262688 26.264290962433606 M134.58607315216818 64.58064881270987 C140.73578517272267 56.283028987147134, 148.08393209676842 48.91409682061446, 168.04859860599345 25.761833380041807 M139.69271579124123 66.08673596474117 C148.05363847985413 53.63246429713675, 155.8074836882078 44.61074543175049, 167.1404762921093 33.58966018526314 M139.7188869772488 65.39605573563611 C148.26306500826135 54.61303311855059, 158.52720478598596 44.77220175891392, 167.5310875914229 32.78768935228197 M144.15024650986814 63.69140924417536 C152.75014191851324 55.044414812083005, 158.732651710437 45.41785480743025, 168.57978418371937 37.601034383212905 M145.03073527156883 65.76442529817234 C154.49618609836145 53.97945498595101, 163.74345595145616 44.14849633842847, 167.7960961535137 38.196128325460236 M149.06017934336322 67.198569324757 C154.16872555199532 61.513841727325676, 160.4844620431085 52.44985755385629, 166.15221928785388 43.79608434715387 M149.07144537466573 65.02116632829889 C154.9291170438559 60.23607132608738, 160.03924720941285 53.49346445383988, 166.68544381930326 45.07744194005695 M154.0011066051241 66.65767824182295 C161.16514157635223 59.854742427042, 162.0744231630132 55.38633345154533, 169.23776897356208 50.76500347393126 M154.79172491650507 65.29418691250504 C160.9176581752511 58.63331426224391, 165.5212114541001 53.61758757801224, 168.5903937093105 50.61362278472193 M159.58088922701674 65.88397406056879 C162.87490793867445 63.277025555229386, 165.0292326037451 61.20786365882607, 168.22431167382578 56.147826189471786 M160.69822574472883 65.63502054141259 C161.88660937763558 63.347225929649085, 164.08258557686133 61.08833096054874, 167.38840125086548 57.21579947301038" stroke="#868e96" stroke-width="0.5" fill="none"></path><path d="M0.20188906230032444 1.3869262989610434 C44.31960883109166 0.9760839119134106, 89.47275378604022 1.2526550069031872, 165.37858542241145 1.0523939784616232 M0.8199637858197093 0.4719053031876683 C49.912068060651265 1.1789696799713778, 100.31493569455264 0.6746596383053469, 165.1655274061485 0.5288909496739507 M166.86250408925105 -0.7096390072256327 C166.09891038462592 17.979565025490956, 163.58913254067375 40.13099401853469, 166.59995522536326 65.2433710154146 M166.51863414328534 0.344199282117188 C166.76365122896814 24.73064806719449, 165.17371106845522 48.59876818558478, 164.9635658590122 63.09226788301021 M165.8514367584138 61.5084528978914 C123.38446629290657 62.53714735476071, 77.91788683386906 62.900575291791505, -1.6950228568166494 63.00089735351503 M165.59854057710606 63.956884992308915 C123.06986523966216 62.65594477271134, 81.57552503863184 61.29579786275917, 0.44163799565285444 63.7569069089368 M1.0012676361948252 63.6392855104059 C-1.451972967580332 41.2874089372137, -0.5243766965422765 19.618338379036146, 0.29693486727774143 1.3429783638566732 M-0.16373610217124224 63.74383084196597 C-1.133086074632338 48.557707015754204, 0.2569256233752457 32.24003430801167, -0.9957456858828664 0.35999674815684557" stroke="#000000" stroke-width="1" fill="none"></path></g><g transform="translate(52.03515625 223.646484375) rotate(0 28.5 12.5)"><text x="28.5" y="18" font-family="Virgil, Segoe UI Emoji" font-size="20px" fill="#000000" text-anchor="middle" style="white-space: pre;" direction="ltr">Client</text></g><g transform="translate(281.890625 223.958984375) rotate(0 81.5 12.5)"><text x="81.5" y="18" font-family="Virgil, Segoe UI Emoji" font-size="20px" fill="#000000" text-anchor="middle" style="white-space: pre;" direction="ltr">useLocalStorage</text></g><g transform="translate(566.234375 222.033203125) rotate(0 21 12.5)"><text x="21" y="18" font-family="Virgil, Segoe UI Emoji" font-size="20px" fill="#000000" text-anchor="middle" style="white-space: pre;" direction="ltr">SWR</text></g><g transform="translate(742.171875 222.650390625) rotate(0 70.5 12.5)"><text x="70.5" y="18" font-family="Virgil, Segoe UI Emoji" font-size="20px" fill="#000000" text-anchor="middle" style="white-space: pre;" direction="ltr">Local Storage</text></g><g><g transform="translate(78.66951186490309 268.4485267150883) rotate(0 -0.17120176253843056 143.66968925411803)"><path d="M-0.840286073461175 0.950947955623269 C-0.8676708375227994 48.73432485229952, -0.6280524769487709 238.04549978262102, -0.7383851627633249 285.8497457436283 M0.9194250086322429 0.4045916869863868 C0.8550176718148049 48.39135908778443, -0.734520310355994 239.3367133825488, -1.2618285337090764 286.93478682124965" stroke="#000000" stroke-width="1" fill="none"></path></g></g><g><g transform="translate(361.2636026404898 268.2614839921485) rotate(0 -0.6981114141011631 144.61301398378788)"><path d="M0.7682745125144719 0.5789935860782862 C0.4760250629012147 48.499111377028704, -0.9312046925105847 240.08478818400744, -1.5311335091892715 288.4141783596014 M-0.28752009775489573 -0.16263872656971223 C-0.7048006764899333 47.78984522691925, -2.161600421344558 241.23256163927712, -2.1644973407168027 289.38866669414546" stroke="#000000" stroke-width="1" fill="none"></path></g></g><g><g transform="translate(584.4519270692059 266.59765625) rotate(0 0.8756045586392247 146.78592558228397)"><path d="M0.9978233132511376 0.3291539456695318 C1.243213674936703 49.10936512380522, 1.7512820343872477 243.8453931778511, 1.6852416557163679 292.7523366100151 M0.06254182336851954 -0.5436441781930625 C0.1829169399740908 48.40567174354252, 1.1279667527241577 245.3934320188342, 1.047004684423723 294.11549534276094" stroke="#000000" stroke-width="1" fill="none"></path></g></g><g><g transform="translate(809.7386415367215 267.4709024415283) rotate(0 -0.04022648843005072 145.86210099476375)"><path d="M-0.9034907910972834 0.39602294303476815 C-0.8126611262017074 49.275898575611976, -0.07351726415434612 243.85374929670527, 0.02220627586330015 292.16587094673855 M0.8230378142371775 -0.44166895721107724 C0.8386434979907094 48.23141296775696, -0.3901740287882998 242.0450636511324, -0.7035104913360375 290.6518014675189" stroke="#000000" stroke-width="1" fill="none"></path></g></g><g><g transform="translate(82.14271619580688 314.78864404298366) rotate(0 138.85150255691258 -0.3017158968374076)"><path d="M-0.775252554193139 0.9839565429836512 C45.62681695837527 0.6208508579060417, 232.0084891045466 -1.1251688057556843, 278.47825766801833 -1.587388336658489 M1.0186011255159975 0.4549297827109693 C47.30643835425377 0.1752513086795786, 231.77283956989646 -0.2238559029996491, 277.8275125453994 -0.465202277116489" stroke="#000000" stroke-width="1" fill="none"></path></g><g transform="translate(82.14271619580688 314.78864404298366) rotate(0 138.85150255691258 -0.3017158968374076)"><path d="M251.3131220259609 10.838838675462682 C256.9046996210868 7.1309837522680315, 265.1688492877513 2.9574509229458235, 277.0726298576966 0.5925796222314124 M250.33296212394706 9.54020856547453 C258.9698218276293 5.578682927605966, 266.42878363576824 3.6290060740315324, 278.35600578308106 0.4318738555908088" stroke="#000000" stroke-width="1" fill="none"></path></g><g transform="translate(82.14271619580688 314.78864404298366) rotate(0 138.85150255691258 -0.3017158968374076)"><path d="M251.24055349352614 -9.682241612717558 C256.9554081612671 -7.12071028436317, 265.2417265505936 -5.025325686637374, 277.0726298576966 0.5925796222314124 M250.2603935915123 -10.98087172270571 C258.771086453983 -8.59178154200194, 266.2525084530345 -4.190118971426876, 278.35600578308106 0.4318738555908088" stroke="#000000" stroke-width="1" fill="none"></path></g></g><g><g transform="translate(362.5546875 331.96484375) rotate(0 112.52772982833909 0.9643409798759848)"><path d="M0.9149664077907802 -0.8565295312553645 C38.195726119851074 -0.6844165855397781, 185.76435871856907 1.2599644647290311, 222.79424677230418 1.6062583949416878 M-0.06381495745852583 1.3081885194964706 C37.68233793962126 1.5747355411636332, 188.09210630186521 2.6735577531841894, 225.11927461413666 2.7852114910073578" stroke="#000000" stroke-width="1" fill="none"></path></g><g transform="translate(362.5546875 331.96484375) rotate(0 112.52772982833909 0.9643409798759848)"><path d="M195.44497403398546 11.66236819046457 C202.06453854352964 9.6651791563453, 207.80115607905256 7.5330276192710315, 223.6251852137409 1.5957649877108633 M196.12607500691357 13.08743240310718 C205.90424984780384 9.396453521317145, 215.47389168931053 5.813273072048596, 226.06629610130562 2.4594186242483556" stroke="#000000" stroke-width="1" fill="none"></path></g><g transform="translate(362.5546875 331.96484375) rotate(0 112.52772982833909 0.9643409798759848)"><path d="M195.5577712380597 -8.85853040527418 C202.24995190541918 -6.221089147841788, 207.96109900038334 -3.719470440469566, 223.6251852137409 1.5957649877108633 M196.2388722109878 -7.43346619263157 C205.7802503413238 -4.733424709128569, 215.3147680393848 -1.926562144238373, 226.06629610130562 2.4594186242483556" stroke="#000000" stroke-width="1" fill="none"></path></g></g><g><g transform="translate(587.08203125 350.98828125) rotate(0 111.62949882505461 3.548235072214169)"><path d="M1.1017683651298282 -0.5392468180507421 C38.16185560487211 0.5539079898347457, 186.26311964057388 5.158196182424823, 223.03793962262571 6.115555015578866 M0.22105802748352277 1.7920446571335198 C37.100324076153335 3.125485206109782, 184.98091006729751 6.929884560170273, 222.308738242127 7.635716962479055" stroke="#000000" stroke-width="1" fill="none"></path></g><g transform="translate(587.08203125 350.98828125) rotate(0 111.62949882505461 3.548235072214169)"><path d="M192.9907617509465 17.940208478485303 C204.00028173333047 12.108453339370907, 212.61260717709058 9.466545460027438, 221.05969126638024 6.889150691069663 M193.80985599813118 16.438614330840366 C200.68199231282992 15.473983270290457, 205.88626234942316 13.4827630607118, 221.35981535188853 8.17888226158917" stroke="#000000" stroke-width="1" fill="none"></path></g><g transform="translate(587.08203125 350.98828125) rotate(0 111.62949882505461 3.548235072214169)"><path d="M193.46257175105546 -2.5755756330137434 C204.22811307414156 -1.090119978565415, 212.67226120704163 3.5808510578832404, 221.05969126638024 6.889150691069663 M194.28166599824016 -4.07716978065868 C201.25099205014274 -0.4251869321203592, 206.3491163300686 2.199144516037201, 221.35981535188853 8.17888226158917" stroke="#000000" stroke-width="1" fill="none"></path></g></g><g><g transform="translate(811.8125 400.3359375) rotate(0 -114.37966165241784 -1.8973776839952734)"><path d="M0.27338172532618055 -1.1907367799431086 C-37.880494996532796 -2.070331801349918, -189.87643047235906 -4.257102077578505, -227.84572963379324 -4.593277833238244 M-1.0422315982170405 0.798522465247661 C-39.488235200364144 -0.037710944196830076, -191.14177690180017 -3.2345976300848025, -229.03270503016188 -3.6626359444670378" stroke="#000000" stroke-width="1" fill="none"></path></g><g transform="translate(811.8125 400.3359375) rotate(0 -114.37966165241784 -1.8973776839952734)"><path d="M-202.65672099039375 -14.202731883913012 C-213.5974539854751 -9.819787513636141, -222.3430865715981 -5.307356081239632, -229.0593771904148 -3.1544835135899483 M-200.8072810034123 -13.885120302267106 C-211.0543386079284 -9.520054333913063, -220.77159293680356 -7.443697258472728, -229.51940818479284 -3.3106131354905663" stroke="#000000" stroke-width="1" fill="none"></path></g><g transform="translate(811.8125 400.3359375) rotate(0 -114.37966165241784 -1.8973776839952734)"><path d="M-203.00434446019193 6.315532182744411 C-213.92657991777915 2.6997837681266583, -222.53671088297682 -0.785685635171979, -229.0593771904148 -3.1544835135899483 M-201.15490447321048 6.633143764390317 C-211.44452053078092 3.7900493869815173, -221.03965489344105 -1.3416503355424743, -229.51940818479284 -3.3106131354905663" stroke="#000000" stroke-width="1" fill="none"></path></g></g><g><g transform="translate(586.53515625 420.8092031243132) rotate(0 33.66702543466323 30.667458781721564)"><path d="M-0.9413493410017643 -0.6221465315669775 C9.594619477555726 -0.18463797515354702, 53.39605371444243 -7.340731075805444, 63.18051452659242 2.7886139138357553 C72.9649753387424 12.917958903476954, 68.50556791435173 50.65605983726368, 57.765415531898164 60.15392340628022 C47.0252631494446 69.65178697529676, 8.739037912360434 59.773366977546615, -1.2603997681289911 59.77579532793499 M0.9072762886542526 1.665622594021261 C11.226568088807737 1.7567757706148215, 52.610054269235015 -8.349950683031995, 62.00397579644047 1.1075707489939246 C71.39789732364592 10.565092181019846, 67.78590748152874 48.417307038117805, 57.27080545188698 58.41075118617678 C46.755703422245226 68.40419533423575, 8.562670341714327 60.64436431930612, -1.0866363814100624 61.068235637347776" stroke="#000000" stroke-width="1" fill="none"></path></g><g transform="translate(586.53515625 420.8092031243132) rotate(0 33.66702543466323 30.667458781721564)"><path d="M26.762352827351226 52.24318268098585 C19.980235953767362 56.25626030054616, 11.249462697645203 57.752093021329294, -0.4879715556278825 59.21804096895047 M28.40126616728647 52.22901469510697 C16.79700456039886 56.336057770752184, 6.26447604917729 58.36251105562685, -0.6086251486092806 61.14845416388251" stroke="#000000" stroke-width="1" fill="none"></path></g><g transform="translate(586.53515625 420.8092031243132) rotate(0 33.66702543466323 30.667458781721564)"><path d="M25.21070832869052 72.70564591823116 C18.896596682261993 70.18772190838274, 10.661719429838456 65.1438776903191, -0.4879715556278825 59.21804096895047 M26.849621668625762 72.69147793235227 C15.872232693528701 69.38483498484321, 5.902420612051937 63.99041044197716, -0.6086251486092806 61.14845416388251" stroke="#000000" stroke-width="1" fill="none"></path></g></g><g transform="translate(666.484375 437.0703125) rotate(0 30 12.5)"><text x="0" y="18" font-family="Virgil, Segoe UI Emoji" font-size="20px" fill="#000000" text-anchor="start" style="white-space: pre;" direction="ltr">Cache</text></g><g transform="translate(663.875 372.3203125) rotate(0 24 12.5)"><text x="0" y="18" font-family="Virgil, Segoe UI Emoji" font-size="20px" fill="#000000" text-anchor="start" style="white-space: pre;" direction="ltr">Value</text></g><g transform="translate(673.1875 320.0859375) rotate(0 16 12.5)"><text x="0" y="18" font-family="Virgil, Segoe UI Emoji" font-size="20px" fill="#000000" text-anchor="start" style="white-space: pre;" direction="ltr">get</text></g><g transform="translate(452.203125 299.890625) rotate(0 16 12.5)"><text x="0" y="18" font-family="Virgil, Segoe UI Emoji" font-size="20px" fill="#000000" text-anchor="start" style="white-space: pre;" direction="ltr">use</text></g><g transform="translate(193.984375 281.87109375) rotate(0 16 12.5)"><text x="0" y="18" font-family="Virgil, Segoe UI Emoji" font-size="20px" fill="#000000" text-anchor="start" style="white-space: pre;" direction="ltr">get</text></g><g><g transform="translate(586.4140625 502.69921875) rotate(0 -113.00242615314204 0.334120986175094)"><path d="M-1.1525595758110285 -0.8032839741557836 C-38.714264175668355 -0.7294872290144363, -189.14686473347246 -0.7248671577622494, -226.44806022383273 -0.4158458795398474 M0.44320791754871625 1.3893879940733314 C-36.65277030792087 1.6810028098647793, -186.57437469687312 1.131689528884987, -224.21948183622212 0.751502472423017" stroke="#000000" stroke-width="1" fill="none"></path></g><g transform="translate(586.4140625 502.69921875) rotate(0 -113.00242615314204 0.334120986175094)"><path d="M-197.30439677640126 -10.868539583722223 C-203.15102184276986 -6.539582861841264, -206.64495953736275 -6.799034478741444, -222.82267994169146 1.775753361620009 M-196.1595382903822 -9.404560956956912 C-206.09192057563519 -6.592700142226742, -218.1794888286026 -2.6450186021238498, -224.02405258841813 0.31672321863472463" stroke="#000000" stroke-width="1" fill="none"></path></g><g transform="translate(586.4140625 502.69921875) rotate(0 -113.00242615314204 0.334120986175094)"><path d="M-197.43170791721369 9.652274100419655 C-203.10474372175466 9.669376370505752, -206.57192308252502 5.096847521190289, -222.82267994169146 1.775753361620009 M-196.2868494311946 11.116252727184966 C-206.36086201369352 6.11569114409665, -218.39995863497487 2.250408976164614, -224.02405258841813 0.31672321863472463" stroke="#000000" stroke-width="1" fill="none"></path></g></g><g><g transform="translate(360.984375 523.43359375) rotate(0 -140.87983842585237 -2.0490136941895116)"><path d="M1.1095313105732203 -0.21410732008516786 C-45.8546109220013 -1.0466023831938722, -235.74478265028444 -3.617244173275937, -282.8692081622779 -3.883920068293821 M0.23289651928469546 -1.3721176084689797 C-46.25215014522895 -1.5724468050835054, -233.49795476576313 -2.488430443896611, -280.5638387372531 -2.856404694374662" stroke="#000000" stroke-width="1" fill="none"></path></g><g transform="translate(360.984375 523.43359375) rotate(0 -140.87983842585237 -2.0490136941895116)"><path d="M-252.66756054732446 -14.234816809101405 C-259.75898032934117 -9.805192745494965, -262.23228770058233 -8.259779844624841, -281.1566752122529 -3.6658894090168292 M-252.5383802565882 -12.573002679190042 C-262.8126371991322 -9.459284790456847, -273.85975376207966 -4.581838057934671, -280.02421890122815 -2.867299934495252" stroke="#000000" stroke-width="1" fill="none"></path></g><g transform="translate(360.984375 523.43359375) rotate(0 -140.87983842585237 -2.0490136941895116)"><path d="M-252.79330930008283 6.286006508617094 C-260.0483647038614 6.41254194074262, -262.4953104708981 3.6560288949522546, -281.1566752122529 -3.6658894090168292 M-252.66412900934657 7.947820638528457 C-263.07281511129725 3.506462990648662, -274.07363513628167 0.8288202696175331, -280.02421890122815 -2.867299934495252" stroke="#000000" stroke-width="1" fill="none"></path></g></g><g transform="translate(443.828125 472.35546875) rotate(0 25 12.5)"><text x="0" y="18" font-family="Virgil, Segoe UI Emoji" font-size="20px" fill="#000000" text-anchor="start" style="white-space: pre;" direction="ltr">value</text></g><g transform="translate(115.57421875 495.2890625) rotate(0 111.5 10)"><text x="0" y="14" font-family="Virgil, Segoe UI Emoji" font-size="16px" fill="#000000" text-anchor="start" style="white-space: pre;" direction="ltr">value, setValue, removeValue</text></g><g transform="translate(220.52734375 10) rotate(0 183.685546875 59.970703125)"><path d="M-0.09082951988686143 2.3112632038117655 C103.93874543372513 1.0783634440167371, 208.98184899567102 2.0523039597094965, 365.6868028038906 -1.1064657093568049 M-0.021541299628532132 0.9756925623753766 C122.32647082597404 -1.0234654236318865, 243.6357335675642 -2.9556081588738974, 366.1874776796161 0.13987219355835137 M366.06143916770816 -2.3363418094813824 C364.70881864726215 41.65548450224924, 363.4543322056499 76.83534868629431, 369.0827698819339 120.25997083261609 M368.6997909191996 1.5410544332116842 C368.9471810578692 39.10601325034622, 370.0798936008799 80.54640503562041, 368.89986946620047 119.47400296293199 M365.42593240120186 120.23691216447078 C222.10597986793422 123.1391618045078, 76.77930735175639 121.98947818484967, -1.4096069630207364 118.51645747602349 M368.17449089634044 120.52574142509016 C283.78439629475105 122.15926001296178, 199.6679754771682 122.0765879214537, -0.6320398945903782 119.22482261534967 M-2.793049443513155 120.65171842649579 C-2.540563094309982 87.21223983105847, -4.429685461215195 58.3907307485606, -2.292814005166292 3.57515661790967 M1.4859162215143442 118.60333496890962 C3.5728471980804897 83.43020461949527, 1.5914201842064357 44.82965079290807, 0.8396698478609324 -0.2967739049345255" stroke="#000000" stroke-width="1" fill="none"></path></g><g transform="translate(259.615234375 54.017578125) rotate(0 145.5 17.5)"><text x="145.5" y="25" font-family="Virgil, Segoe UI Emoji" font-size="28px" fill="#000000" text-anchor="middle" style="white-space: pre;" direction="ltr">Getting Stored Value</text></g><g transform="translate(728.296875 576.7131515927609) rotate(0 84 10)"><text x="168" y="14" font-family="Virgil, Segoe UI Emoji" font-size="16px" fill="#adb5bd" text-anchor="end" style="white-space: pre;" direction="ltr">Made with Excalidraw</text></g></svg>