<svg version="1.1" xmlns="http://www.w3.org/2000/svg" viewBox="0 0 942.0117187499999 529.9797200028333" width="1884.0234374999998" height="1059.9594400056667">
  <!-- svg-source:excalidraw -->
  
  <defs>
    <style>
      @font-face {
        font-family: "Virgil";
        src: url("https://excalidraw.com/FG_Virgil.woff2");
      }
      @font-face {
        font-family: "Cascadia";
        src: url("https://excalidraw.com/Cascadia.woff2");
      }
    </style>
  </defs>
  <rect x="0" y="0" width="942.0117187499999" height="529.9797200028333" fill="#ffffff"></rect><g transform="translate(10 180.66342213114763) rotate(0 70.296875 31.724609375)"><path d="M0 0 C0 0, 0 0, 0 0 M0 0 C0 0, 0 0, 0 0 M-0.037171927061850796 5.654047084649198 C1.2273639431085548 4.176630452081191, 3.5153627518353106 2.132163661231579, 4.460541776152796 -0.24856888914133968 M-0.5046679373504469 6.354134443824284 C1.159462229335005 4.891039796216607, 2.2142660073511085 4.0230600052866325, 5.333141345488376 0.20524250863466798 M-0.8747323787678374 13.573523091196597 C1.8525372075733997 10.807299533282405, 4.616970135578477 8.061725204679375, 10.067248067212237 -0.9699367006227612 M0.5162200481723653 12.238123921721757 C4.251694488768792 7.536232612091122, 6.830941595212948 3.5886758802921714, 11.31220223079337 -0.18750647575708612 M-1.09292485663204 19.58456239560681 C2.4995527431194655 14.536457482876534, 8.526051915162132 10.7468341600505, 16.19965633889981 0.6491003694874218 M-0.001856520823226404 18.54420022284674 C3.3769893149020036 14.921875919518337, 8.317632348741917 9.884274770921628, 15.271687577016134 0.6689954825607112 M0.8538786789587949 23.538069206937312 C7.087685854355497 18.660586288108256, 11.417321344010565 12.27747340172973, 22.203245476165677 -1.3403982115746018 M0.62963167877861 24.911123509234844 C6.5498614106747 17.242334757008788, 11.653616609369159 10.830180012008379, 20.914346182064975 0.20177625344837935 M1.9119056715210334 30.739165466044298 C6.4523770376295975 22.538359331772035, 16.964179212823076 12.416339002711084, 26.9577675430592 0.33364724498360765 M0.14767387886991656 29.50630240398293 C10.09620213081391 20.240665173200284, 18.725585896435337 9.024051488045458, 26.625168895025165 -0.5356920059758483 M0.6791707164514342 36.57028758879875 C7.671558384628552 30.266839033887052, 12.422576207001299 20.546197996441226, 32.102061788967646 -0.679552050189745 M0.5552224189880768 37.46202073507135 C10.54406413282928 23.636409316149134, 20.723468650841518 12.880334643548995, 32.85515927192459 0.08904776454560803 M1.2478290341467613 44.07598136607163 C9.229803884040921 29.72782392040422, 18.93906269761041 19.900123332611276, 36.70737197231625 -1.6123371905553618 M0.7175343261704796 42.220132642980445 C10.062184195756641 31.628667473705157, 19.294439685761922 18.764404405252588, 36.51213944032912 0.3181112586614212 M-0.7015006169677562 47.16453070440225 C11.999711028086564 33.93767664413125, 25.46951384562637 18.64482058266572, 40.58831859249227 -1.6787782154650444 M-0.13725577201702066 49.827441321358904 C13.70003003335376 34.81582323246393, 26.237755505429174 19.63727397615702, 42.67797233126663 -0.0031538383708351603 M0.7551772624951454 56.26249056443881 C13.487805904277185 37.605567604853185, 31.462721052778143 19.228739670185604, 47.116926657920956 0.9005025316205071 M0.6430275554534646 54.68398195546429 C18.420111031890542 32.88360115701155, 37.36146308743892 11.050817157706113, 46.828839447303 0.6427587920975135 M0.599262680960706 61.2898636027206 C15.79041320019574 41.75341165540647, 32.84251354961753 20.971812584905756, 54.53359791798955 1.7981537613495 M-0.6451216888521998 61.61194836394529 C16.772064948451842 41.81138624707249, 31.84842487342138 22.858840670089002, 52.55246309446609 0.43908746032404977 M3.492650445797203 67.0505043694503 C21.465167680684942 42.031015221527895, 42.19846528549352 16.91561862729116, 58.761138631123316 1.5552718802612269 M0.9684493590748886 65.33984719661393 C22.122901397329667 42.12673680922438, 42.688840956857746 17.427112965310656, 57.76838415032179 0.30372910995744107 M7.247816960382401 63.4525863700533 C24.149612279714724 43.85594052252716, 43.053249172146224 26.269518898819996, 64.71573179670949 -1.518775650996112 M8.00388922175312 63.816714996005004 C30.738408722740193 39.28164129944258, 51.6111683841435 14.099683950012654, 64.44518429589797 -1.1171873237447372 M10.985788963189016 63.238488287182804 C33.1453423819257 40.792686094780464, 55.778890396398424 14.7463684644406, 69.12096492317333 -0.37117367588322026 M13.095560819295834 66.03575441938108 C26.237374891581076 50.24208952306019, 41.31543145337653 34.28337457303048, 68.82076378376051 0.6196257278661861 M19.663765078604296 64.58281195648699 C31.473000233596736 44.83914876350215, 49.42142695248657 27.534577945815712, 75.81880225990209 1.6941640162481235 M18.925913020230904 63.726102214499704 C30.641716066743204 50.87314529075833, 44.78882634951815 35.36971765531796, 75.11956366993728 0.7481878250478076 M21.60884844005349 63.84110690950516 C38.108791960076246 48.52512526215715, 51.71676724157177 33.72613988727964, 78.583612565321 1.991771331937187 M22.165463264624204 64.19530376250955 C44.65211614173161 41.198426423817935, 66.27650479642925 15.059133945678163, 79.77284358199415 -0.6378228385512301 M29.829018921923844 66.44969373188552 C48.556797769019234 43.094517974556844, 69.1708770410478 19.380430621987884, 84.43314133881734 -0.6455467681678044 M28.190019796003607 64.32288643616822 C45.4626048485508 47.461590811284616, 60.988252730160085 29.200594758075255, 85.135903950959 0.4085039223266733 M34.827160907640604 63.900840705167354 C49.64023716897249 47.90196501478121, 65.56945973578928 31.349924526313664, 88.44253858881632 1.108462372472431 M34.30095942943498 65.62928624162436 C53.44555972639127 43.598272196756, 70.30720757281674 21.684198489830926, 89.7083637793977 -0.2437630736698253 M37.25597649260054 65.39729674522165 C54.221116883750064 51.629689623534, 65.91883439282392 36.37081120303367, 97.05533106470526 -0.026677535493888627 M37.786390754455724 65.02413075685833 C50.83798211769063 52.14939798221931, 61.51479356300059 37.84317259843985, 95.85138287333817 0.1901769837168672 M44.01230839720039 63.05392014291941 C61.0481610516816 44.70241547811196, 77.38255654485747 27.743935898957034, 98.89745002490932 1.0370049144725257 M44.4217270481032 64.1016178723505 C61.838206271703555 44.3691871541168, 79.01503216604003 22.784136809166462, 100.0079396103462 -0.5202164618645853 M50.331462879865406 67.09930730479988 C66.3923686941039 47.67666692888109, 83.29873719818005 26.683459698482594, 108.0882034688158 -1.344247816980122 M49.97025918794328 65.43589453174951 C63.49071633773909 50.23646712190053, 77.64048648777245 34.29675651626056, 106.42005317144972 -0.6272519751566037 M54.44212293998283 63.530325691511294 C74.61621081278949 39.19880170719301, 100.13602650312973 15.619629775370491, 111.05430390484996 -0.5707455733125428 M55.24431885500383 64.32933967031296 C76.14940719235383 39.10039185998282, 98.05763265344353 14.431424838561519, 111.3490613092146 -0.3360794875105242 M60.38037608597792 65.08729045959294 C73.51156756432984 51.48948774209562, 87.66095606683118 34.548291916994074, 117.18478155340853 -0.14481756365373855 M60.325556301850746 64.88149085668951 C73.09480776315759 49.08008648022694, 88.26154411785338 33.926344516834995, 116.13678355067822 -0.05640735844597344 M65.30068656723793 64.15378781969302 C85.23411172273319 40.65960028170876, 107.16459427124684 15.229252723096785, 120.92530725988826 1.5308163778672395 M66.2821625845119 64.98261765113675 C82.01570441334367 48.61116640457896, 95.71905687867098 31.20434750831008, 122.70609411037793 -0.10712363498262789 M70.28992314218809 63.731851678350836 C90.17994174634131 43.31381232781733, 110.05609688356674 21.505675542102153, 125.87251540771439 0.3546745327897085 M71.38914733055313 64.38264824730334 C84.04752187534736 47.67335489594392, 100.0991206414776 31.33764847452389, 126.06149480337962 0.5790826890282048 M75.67833131021568 66.34178699621461 C90.17055225750214 48.84640271092785, 102.14116372243016 31.410293562424997, 133.4289171212742 -1.8189537632381274 M76.84556097100237 65.68474283044688 C92.1169499308308 45.58685354050716, 107.41483485637059 26.40848037111543, 132.35027824821117 -0.7959953886558964 M79.85356107974593 64.99734642982358 C103.27003707099641 38.91997156394757, 124.5155490496968 13.563711850540969, 135.61692803399293 -0.2048314786770078 M80.99477250842546 64.41422021921599 C98.86966319003298 45.00176483843155, 116.55905376408114 24.257698398501432, 138.08280563493847 0.17284376311370409 M86.57163920016608 64.10555368982602 C98.78265158914331 51.98818194807289, 110.87465304297348 38.36030501733584, 143.0777224622768 1.322468632566867 M87.04169174885025 64.01213122386832 C102.59494750907248 48.45363144740226, 115.701894416773 31.744489152298165, 141.53761089910833 0.5972029275401809 M91.7709969299014 66.44188018276118 C104.58874758625491 47.075373485612324, 119.93263654818935 31.359776413072765, 142.54132020257956 6.449031092701091 M91.27304706984268 65.90418528805249 C103.27291734824647 52.021011419003194, 115.13352099784304 37.83469828192656, 142.63773751881516 6.609303101440503 M98.88344226833915 66.05006836927728 C108.18739345796826 54.27012504242761, 118.79595097468508 44.04573530311482, 142.72997196625997 12.038453996705535 M96.77460765243059 64.4943238470261 C106.52920755048862 54.67879745178469, 116.42719314982892 42.12035746729159, 142.26037394955833 14.072589791903916 M101.64818772390456 63.21730840591361 C112.31616594485578 51.7577815435435, 125.73596111623601 37.096676116992356, 143.23583297371476 21.635283135451196 M101.65146124917985 65.2336469694378 C113.87575528387636 53.96240151816444, 122.79026276493687 41.003765701524536, 141.5207772183752 20.178917139410792 M107.42282254598487 65.37406150331839 C113.88479370074046 54.80120746665972, 120.69446679045926 48.38501838883995, 141.20769907034077 27.38367367480903 M108.74523641611833 65.6139867155452 C117.1478750482058 55.17653011739774, 125.85789140264208 44.450783675507566, 141.86525903980322 26.460959596941464 M111.99734049300534 66.06923656803089 C124.46967629380943 52.139400144736435, 136.1824453871318 37.88860962856255, 143.44532963956317 31.229018896318372 M113.85438028081191 65.23683377899694 C119.06296276225758 58.361103708647605, 125.24649898100235 51.25616752243653, 141.5717587289082 32.08759067064464 M118.90511206435325 65.87001356069933 C126.74759139188309 56.31268937273476, 136.17093894704004 44.51210405584476, 143.05436080576922 36.572483135627394 M119.4513807742885 64.80691084505062 C126.62571774618237 57.56605962266925, 133.52147646329988 49.87424745174151, 141.81100640421803 36.61216585827786 M122.23691226845379 63.33702013786301 C127.13747783692267 59.406122011247035, 132.3888175393229 54.70767623381057, 140.2603332023842 45.246178424275385 M122.90304439911391 64.2010992323549 C130.35352730368533 58.31648379299586, 134.67958131360035 52.09208636344036, 141.8668007557986 43.0414492909898 M129.9181715257019 63.96188321819418 C133.40925864278762 61.61567824919736, 135.0098008343222 57.24228913131549, 142.99755430734788 49.22627441404762 M130.1422058519926 65.42284759714157 C133.667117108586 60.15171135340307, 136.93176234717572 56.031472080111456, 141.2244430270612 50.57166369549373 M134.52075872198353 66.18778936887395 C136.52121424313196 61.78271229495012, 138.07388433579135 59.066513152709284, 142.85508142829474 55.71796994615202 M134.17513397616008 64.93568372546 C137.11110798392892 61.65971952208561, 139.98514496152197 58.692737120314334, 142.01584963229087 55.959945042951446" stroke="#868e96" stroke-width="0.5" fill="none"></path><path d="M-0.575849449262023 -0.8287653271108866 C48.55343229535793 -2.2771006153689815, 101.22796588629136 -2.364449732171197, 141.62342419661582 -0.5968551579862833 M-0.9561359258368611 0.3627239288762212 C49.69334129921335 -0.44006449892855026, 100.40794589700526 -0.36686084583139755, 141.32209351938218 -0.1299759028479457 M141.19106783904135 1.1294083651155233 C141.75072459148677 16.74363808218368, 138.2322168128422 37.46553953692273, 139.65037604607642 61.845088904723525 M140.79312780778855 0.16615976113826036 C141.77643408533976 16.962682566241348, 140.25404553768084 31.76043847223555, 139.76981592457741 63.32746402639896 M141.1237661484629 63.858721202239394 C86.57400015361782 62.771347809096625, 35.30398307539872 63.148419010897925, -1.4605409856885672 61.675298577174544 M140.83253264706582 63.72637526411563 C105.36909349535416 63.69651145783922, 69.77833786872796 64.77099494186899, -0.7296557696536183 64.23556180018932 M0.45521667040884495 65.21311605535448 C0.9282932470812011 45.38692765805426, -0.7159507681356263 31.806960803112446, 1.1584099177271128 1.6051386054605246 M-0.40216090995818377 62.73993415851146 C0.1472671756511772 39.90232875171678, 0.6373622247940147 15.025001855969457, -0.2923188777640462 -0.5245485482737422" stroke="#000000" stroke-width="1" fill="none"></path></g><g transform="translate(269.921875 180.97592213114763) rotate(0 95.423828125 31.724609375)"><path d="M0 0 C0 0, 0 0, 0 0 M0 0 C0 0, 0 0, 0 0 M-1.0051937564881395 6.272318848271959 C0.8592427637746591 5.212763513412791, 2.1633455265793815 2.402624892753295, 4.378339143427557 -0.2518531691434568 M-0.30510639731305333 6.589233588849298 C0.6624828964681642 5.255687640780078, 2.2281301759130314 4.28141719119272, 4.832150541203565 0.07812887652192652 M1.665810018135201 11.295563997745097 C4.343860351453744 8.650219533730278, 7.035568682320587 5.410549519458486, 9.694647973728312 0.4509507368400456 M0.3304108486603605 12.64225427773553 C2.321455208416633 8.576957173840082, 5.0808876377624355 6.419274910428054, 10.477078198593986 -0.4596647721633552 M1.0176084814080735 17.13932292992311 C4.816886574607554 14.32472363146802, 9.871240103253754 9.036685955164327, 15.940593076407392 -0.5936434020358154 M-0.022753691351995897 17.81688162861454 C4.59009305856015 14.57518310978627, 7.772289308282518 9.748295767378018, 15.960488189480682 -0.2366402412834594 M-0.2773569391854789 25.663545764698743 C5.972801862954732 18.78637921744463, 10.716510801155117 12.908416243069983, 19.988771137127543 -0.23121792132263153 M1.0956973631120537 24.36777196889287 C7.914530966999553 14.718549389492773, 15.98306926388544 6.561960378027962, 21.530945602150524 0.07238320300127299 M0.2644984787841693 28.74656486487781 C9.984146539850693 21.075668043884434, 17.7677375179146 11.562313942064147, 26.28972462625465 1.2340101724502386 M-0.9683645832772001 31.213696100514582 C5.95468467654999 24.11197027212696, 10.940955463112006 17.652529241292417, 25.420385375295194 -0.640972891448742 M-0.5636202395987233 37.8080480916438 C7.409501830166428 28.16405516245193, 11.940042290185328 21.744842130496256, 31.314201972863472 0.5392647852434997 M0.3281129066738764 36.65875181630378 C5.434118625769487 28.22608345636158, 13.631564611381787 22.233386590085765, 32.082801787598825 -0.3790781245321746 M1.6936013057501071 41.94930393118017 C12.913754445914204 25.30228851976195, 28.63341227500956 9.86033311133344, 35.008324865066754 -0.31525123109105024 M-0.16224741734107795 42.27559159658455 C9.98479544038056 30.621461579939947, 17.894441550206576 20.537924925452266, 36.93877331428354 0.3618409122433981 M-1.87709019705661 48.27991023533873 C17.159387623881166 29.110086713460582, 34.068900448339555 8.067286511339766, 40.979560481939245 -0.041532720592712735 M0.7858204199000411 49.63830134984933 C12.627877172972834 35.511830575203064, 24.286990291159203 21.739075703136173, 42.655184859033454 0.02277399397929969 M1.9723974310558887 52.69724716008018 C13.346025033615389 40.83028268394652, 25.00757613496293 24.46176138125306, 48.1857492615937 2.036404418590312 M0.3938888220813723 54.508183351199435 C16.138945845303148 35.977931787961424, 31.91462244852086 16.02685946687815, 47.928005522070706 0.48835390416795477 M0.3405296282003434 59.986673807256324 C21.964151838798166 35.14663443801577, 42.34138256691696 13.428487468490644, 55.12107713310486 0.007346592418731035 M0.6626143894250305 61.3401828841273 C15.993399406200801 41.6169441777481, 32.20952874396215 23.253908442180055, 53.76201083207941 0.5179297929106959 M3.6742353814325313 64.33693242238232 C22.362499005045997 41.10445280709507, 40.88296174369027 19.92918245356205, 59.50510328458549 1.4730591527443373 M1.963578208596168 65.20454243828871 C21.54129137450165 43.58888401999718, 39.65335910941076 21.04354292231622, 58.2535605142817 0.2519938186999404 M6.1139940238177175 64.68561545619608 C27.491850346674177 41.991157030826706, 50.953228332603196 16.98446585339599, 62.46873239511032 1.573109755527831 M6.478122649769425 65.5385187710622 C18.955016614181705 50.53277225539006, 30.8148891066859 37.865321979719795, 62.8703207223617 0.6432545066370139 M10.526803973516117 63.57405178666329 C25.166192343796844 50.99257031187344, 36.17155783992481 38.04440681517863, 68.24324240279212 -0.9149549973789917 M13.32407010571439 64.40751912955409 C25.057671168702747 51.96191477426653, 36.56825193372398 38.313038352736996, 69.23404180654153 -0.03693660978566271 M17.90880428460248 62.87032469474464 C38.29872270831366 39.24887969823085, 61.175962592858255 15.112093001245597, 76.34625673670563 -1.5507862000154091 M17.05209454261519 64.63436922636568 C41.21608783768727 40.03601867982564, 62.65378363420089 14.875185929992895, 75.40028054550531 -0.7675116304667426 M21.79400727018955 65.64299640729192 C34.630238541690034 51.75290792129903, 47.99378531197458 36.74427617910213, 81.2707720849636 1.8689439994703463 M22.148204123193945 65.07928778248939 C43.423038031045124 43.38492175518618, 61.483553344009714 22.031752787939382, 78.64117791447518 0.7287403530861667 M30.44027073435208 64.18593145526584 C47.402220257463426 44.73612345134233, 63.943790130719364 24.97199432930205, 84.67113062664077 -0.6646342429610002 M28.31346343863478 65.07095988552656 C41.67533491775584 51.24984824672484, 53.58528089384468 37.44803007976188, 85.72518131713525 -0.5837533840255844 M32.51832574020281 66.1184733155182 C53.387765584795645 44.18783599489957, 73.71704417800221 18.407991521321506, 91.0520477998499 0.7275881745423334 M34.246771276659814 65.91296363146961 C49.17052808800236 45.9059798432847, 64.23323118536103 28.807271968893993, 89.69982235370765 -0.5469225583095891 M38.641689812826016 67.16497734923247 C55.07197616913332 48.93116781478078, 69.96458771687196 33.531321870939756, 95.95458453366578 -2.162477342058935 M38.26852382446269 66.06955306314264 C58.87924106592578 42.53455048577148, 78.04080513776891 20.320912152038815, 96.17143905287654 -0.3779805196645043 M42.335989852305936 65.48143954259216 C62.12964639163813 43.255552840921354, 83.39673646926698 19.101080040861156, 101.64517501620108 0.4700595590869838 M43.38368758173703 64.89853691086977 C65.40036443540964 39.84007562863468, 85.53020217517087 16.16320632978252, 100.08795363986397 -0.16299760959791598 M51.00828504675531 65.982125247449 C61.78882129077071 52.88385530328155, 71.07528490723078 39.22770841935992, 105.3015989265306 -1.5321084660592064 M49.344872273704944 65.38415733314338 C63.058157946880456 50.29903019996512, 76.02227173687322 34.86053514859689, 106.01859476835412 0.5741721969915048 M53.476980075248896 63.11910211976375 C76.3445035533826 41.55867110253189, 100.0110245155397 14.630464816572754, 110.70200920276709 1.8116901843542834 M54.275994054050564 64.32287285506483 C72.30679024776397 43.40663872588544, 90.86165027265685 23.534258161767944, 110.9366752885691 -0.6216820664038281 M59.660852875899444 64.98241676138818 C72.9476842131128 52.40248374448281, 82.86053070957979 39.5464279674383, 115.75484524499478 -0.6003610034890485 M59.45505327299602 64.82978501012653 C81.14764778024463 41.25919820569037, 103.42045365715506 16.281689287426737, 115.84325545020255 1.0486545805402088 M64.76502687778171 63.324918078283005 C76.99638881702862 50.83663615144895, 87.35954158443117 36.45140471000683, 123.46815582829794 -0.6259379184057536 M65.59385670922543 65.76971169842982 C80.0827050716505 48.54033389943895, 93.45684711478958 34.68148744909632, 121.83021581544807 0.37170180564768884 M68.96999876900841 65.66243392230001 C86.29104516992483 48.45683486759155, 102.14298785304292 28.260247374122024, 126.91892201578929 -0.5519470835440146 M69.62079533796091 64.2636138284671 C85.19811138010714 47.30351909971482, 101.16486567439784 27.705441319094795, 127.14333017202779 -0.1458372950889455 M77.61761072865436 65.29859444939993 C98.41553419948991 37.89656272423916, 119.30154243661065 15.221799932805382, 130.78297036154362 -0.31499271794312733 M76.96056656288663 65.11966867533974 C96.44999020484627 39.669935938401814, 116.89115444744134 15.942693913796205, 131.80592873612585 0.9087067409316347 M80.90007819483225 65.4250087614345 C101.00202335976391 41.04988133546459, 121.89644678412064 16.410379467895837, 137.02400067867367 0.5987999052486686 M80.31695198422466 65.3396965225401 C99.3948515972466 44.630206442399704, 117.0785494969378 24.397041094409957, 137.40167592046438 -0.639603615298185 M86.04596209661683 65.1460882643645 C100.56884015695091 50.349574345618755, 113.5421308594768 34.83908165823537, 143.07955827125417 -0.821392183007859 M85.95253963065913 65.55023402016957 C98.72199200337934 50.56864040089609, 110.36953858857986 37.49724926923207, 142.35429256622749 -0.12223952617701173 M93.0091966221209 63.579223310041655 C113.07463089233578 38.41320495483509, 136.778795397777 14.41250771557273, 147.55006170239787 -1.0109130058609708 M92.4715017274122 64.50896082672053 C106.51606450300444 48.393245350168115, 120.22935409171247 33.16564716300554, 147.71033371113728 -0.5207791457124813 M98.65506145041918 65.87960655442672 C116.76161705681739 44.91245434548952, 136.38669237206727 22.479303290328595, 152.38477502617957 -1.8048042823499344 M97.099316928168 64.53577296729432 C118.16211506765326 42.59872897059008, 136.28520895144177 20.291217168234127, 154.41891082137795 -0.0358342613032363 M100.44920951962442 63.340409599371455 C125.08917502896963 39.49956249891522, 146.411850593856 16.217230460056186, 160.57083555571194 -0.33762878562296805 M102.4655480831486 66.01920947538336 C121.28228196294853 44.43449951177188, 138.19194935020982 24.874167995216027, 159.11446955967153 -0.5806236519568699 M108.64363925881136 63.41760635083659 C127.10047525900546 39.400828341966815, 149.71952367066228 16.89087313514237, 166.31922609506978 -1.0186469847193536 M108.88356447103817 64.847525751089 C121.86439654711639 49.30049212996718, 134.33171641487954 33.907830844431494, 165.3965120172022 0.650100269927961 M113.96572235609275 65.83014966067391 C133.7097031622068 42.52391274278925, 153.23669560735206 18.341590345649088, 168.75380270736582 -1.431640402787309 M113.1333195670588 64.91512020290362 C131.43785016410015 43.87717887287515, 149.35033577183 23.447251175903226, 169.6123744816921 0.6864781003436633 M119.80417599054338 64.58479468484413 C136.60935854146905 46.255741067918905, 151.1830501968139 26.525604938224625, 174.09726694667484 -0.31008825886610225 M118.74107327489467 65.55360760592859 C132.78111844888866 50.16957585647975, 146.01482626767387 34.04428962017345, 174.1369496693253 -0.7853831981084056 M121.89809060027595 64.07627552519902 C137.39284492749118 48.27497267798853, 152.5804144707819 29.671132922544523, 181.36019362610955 0.5630091738960061 M122.76216969476785 66.0382457436563 C144.08713531108705 41.770219791029795, 164.7288037052669 19.082146830020832, 179.15546449282397 0.08301634556411841 M128.52290211436525 65.11212858769932 C144.23648668987295 47.24047717513295, 157.5426610777008 34.72604107869574, 184.52700304974476 0.3799539264597911 M130.0607593553625 65.01900876618811 C148.83205652368162 41.82719427720487, 168.41436765331503 20.058502630091034, 185.94320229337225 -0.2663569310373646 M136.179419720924 65.01286922419679 C153.94930021076917 39.970073268116735, 174.4281182683765 18.862250452871898, 190.24498878069318 1.4085269756769776 M134.09257698190072 65.02701383201641 C151.9406337066104 44.94921398141366, 170.02750518238346 24.562148517931824, 190.64828060869223 0.7083563180794954 M141.77979809902698 63.63681509065216 C156.42744758161302 42.98737597748028, 175.75687405228194 24.75302926928307, 193.3860537570675 4.0356499233994185 M139.18466372806668 63.90559446624255 C154.75007036717872 47.32322580870907, 170.9412999280916 30.622177842428307, 192.94713728900598 3.098820126407176 M146.33656518678688 63.48026278891723 C159.10293531284097 49.83283202821522, 173.85691238741106 34.68737690057619, 192.64026932097102 10.075175416256116 M145.31814494408243 65.31672720235895 C161.31063900288768 46.01042466944097, 177.42650382872486 27.54146133555338, 193.7318395260262 9.260543634715305 M150.492535384288 64.45702080517545 C159.10804953478913 52.56266325579904, 171.8545320755217 38.53204438696993, 193.421552305469 14.566258404984978 M149.75189337964164 64.92681452068969 C158.40792473703584 54.53985279254625, 168.13747877171897 43.56566465675064, 193.10951093992747 14.017502350382415 M157.49013246661463 64.22503825061031 C163.70984430780996 53.66450555825442, 171.70835316631445 45.20566467724227, 194.86881086064568 22.36411362576952 M155.08560209693798 65.1395635890589 C169.5897260035137 48.348532831991186, 182.31664019772302 33.751089780295615, 193.49722740540346 20.659145628732645 M162.14071249687942 64.51303360207362 C171.30236647537305 52.52066999982601, 185.69437724388692 37.37212416215078, 192.09556251158529 28.69309643979321 M160.32285738369347 64.82886500345899 C168.4660435799679 57.32855171156805, 175.88602488477804 48.57804538023116, 194.96538510964774 25.89972751259009 M164.35447702915718 63.90002764052605 C174.243636502009 57.70435075273744, 183.60459665991135 47.23034332290469, 193.15925707140065 33.473331573907814 M165.49480195609232 64.52457572649126 C176.8930103740099 53.08736301925722, 187.16890808245557 39.56313810902819, 194.30077346538252 33.61118547294714 M170.82950087656064 63.915520092819435 C179.80553178424387 57.2393179839886, 187.56091564263443 46.31416632191937, 192.59118984416648 38.10024605907408 M171.4429127268566 65.91894572914819 C177.6916528216919 58.73118137137918, 182.0028081176594 52.16750938728599, 193.6302383137919 38.00892334740517 M177.23770434316458 65.06431298991446 C181.52931918593083 57.16289449024007, 189.26228783172152 52.19476811060298, 193.0855293929955 43.54474587214378 M177.0987230371705 64.29769134903107 C179.94832888833335 60.551054503143554, 184.53841035185448 55.98515012200633, 194.20345969259796 45.158237981956574 M181.89967853981702 64.96011403806634 C185.44005706594393 61.289950538970366, 189.22002755925126 56.42139576033267, 194.88439956780115 51.18709220273907 M181.31712602922394 65.96787519918881 C184.76334552386876 61.62529637176283, 188.45276858934727 57.69316411956223, 193.07304543422129 52.111710168351635 M187.72830039183722 65.52478936389686 C188.3886414325102 63.48261406891363, 189.66443670909607 61.93379224397697, 193.72343974518645 57.09553507363394 M187.65919988104255 64.97403279441075 C189.70185914952773 62.25544699712742, 192.09990273123046 58.898368755573834, 193.9254866494337 57.101649992838205" stroke="#868e96" stroke-width="0.5" fill="none"></path><path d="M-0.8287653271108866 -1.3311049696058035 C73.51677375256733 2.0083889450864447, 148.7141862300727 1.579171785338367, 190.25080109201375 1.2046688441187143 M0.3627239288762212 -0.953229215927422 C44.27905517864675 0.9395678717476041, 87.95879604298027 2.5531065244060667, 190.71768034715208 -0.06680637318640947 M191.97706461511555 1.671192491427064 C188.50253690738674 12.045271338379463, 190.61355395574566 26.841799297270338, 189.24352640472355 62.49745740927756 M191.0138160111383 0.6978299049660563 C192.3123115601504 23.05874878604409, 191.09472751640916 46.942680782051326, 190.72590152639899 64.22695580404252 M191.25715870223942 62.542090797796845 C130.84628106476558 64.89045731230075, 71.1953578798064 62.49443946285541, -1.7739201728254557 62.548556292429566 M191.12481276411566 64.07131162565202 C131.46951676170175 64.78301646478049, 74.12066015900709 63.17527406580321, 0.7863430501893163 63.0145944384858 M1.763897305354476 64.53604551590979 C-2.3808888933409253 42.27170068740706, 0.3162525751840075 23.36742704115531, 1.6051386054605246 1.6456241849809885 M-0.7092845914885402 63.57270300667733 C0.30297648297655533 45.26586162055864, -0.3189063431133037 25.563027001712904, -0.5245485482737422 -0.48297372180968523" stroke="#000000" stroke-width="1" fill="none"></path></g><g transform="translate(516.953125 178.79232838114763) rotate(0 70.296875 31.724609375)"><path d="M0 0 C0 0, 0 0, 0 0 M0 0 C0 0, 0 0, 0 0 M-0.38692199286537865 6.068620682557218 C2.299500327700062 3.595141322484527, 3.2375519453373807 1.1876412260714715, 4.37505486342544 -0.38733315134074153 M-0.07000725228803845 6.260063091342442 C1.6187173996977746 4.710798982314009, 3.6619189680870967 2.175722161032112, 4.705036909090823 0.17599316237841187 M-0.6121490753162994 13.532164000391543 C2.5033873111739036 10.369642846293695, 5.014655377750855 4.829357804701951, 11.115535411191118 -0.6915554960176586 M0.7345412046741353 11.61866941866237 C3.8720893579405047 6.9364606126669806, 8.924810457108844 2.466473408135178, 10.204919902187717 -0.2127905991778014 M-1.4276309842756252 18.985074912105375 C5.296517666548103 14.403179332035922, 9.535808782127823 8.325261731795345, 14.697849304884155 -1.0782386002200672 M-0.7500722855841975 19.421019446012252 C3.8689700613685503 14.710408080547882, 6.90581754821281 10.24985857580994, 15.054852465636511 -0.1786659232410619 M1.8481196185759519 24.54246546672201 C7.232663205942996 16.921263575359635, 13.625684905698549 8.502400422861026, 21.097951427379513 1.010572831535292 M0.5523458227700804 24.245568121499478 C5.277819248850252 17.993507940057466, 11.507396253026211 10.748165423439852, 21.401552551703418 0.14044507073010237 M-1.7281021223823174 31.92294595739638 C7.137745708182982 23.329166783390413, 14.198762993478073 14.64599026367743, 27.19008755372128 -1.3471180858078657 M0.7390291132544533 30.814821379956058 C9.032318632357025 20.19062505325295, 17.973529444587474 9.622665843882295, 25.3151044898223 -0.6545955535012542 M0.6741402632463256 37.74528092499946 C6.560046358782232 26.569394967734382, 15.693349907470463 18.046806396829883, 32.53301880829672 -1.9532720166013355 M-0.47515601209369507 36.06477398686235 C9.827559336707116 24.63350080165846, 22.609489782750725 11.341996627123045, 31.614675898521043 0.7161302018224482 M-0.4330761291413552 41.10284428540223 C8.660773553170994 31.42753038175681, 18.99033967861729 18.213216491864284, 36.305410824531066 -0.6789019293058196 M-0.10678846373697581 43.33474102019869 C12.285332815528655 26.663996315085825, 26.28006457269554 11.917295065070473, 36.982502967865514 1.2359489678498825 M-0.7617106661201305 48.76524807014398 C8.346937710198972 39.026326939690506, 15.564077159240384 27.64531918683909, 42.61680597681158 -0.5642497382731193 M0.5966804483904653 49.66273661111377 C11.870639925113602 35.557999741785, 23.497431802585886 21.681549931050306, 42.68111269138359 -0.41483063266137776 M-1.5928459733027367 54.83287536487292 C16.011835520751173 36.3288532472756, 29.132150927027862 21.036521061099457, 49.321651148563504 1.156390338036065 M0.21809021781651694 54.533756882365154 C18.863597921961915 32.75083733860656, 36.11470053192467 12.67750017116397, 47.77360063414115 1.210008656437342 M-0.9626601672639339 61.712056951128346 C14.411727185679968 42.56522215162496, 32.93156329863316 26.35322816261668, 53.33026996417409 -0.045504864730059325 M0.390848909607044 60.94870659010152 C17.872122419285756 39.34311589484585, 36.661276665101575 18.83329777359811, 53.84085316466606 0.31616608290362436 M0.9606634343645553 65.50547550411292 C12.441032776456595 49.81891564869166, 26.053959960284764 37.96513730363075, 59.4228905570686 0.9824891849678004 M1.8282734502709488 65.90855332163491 C20.641200344281103 43.64451873003635, 38.46098982624708 22.933324430576285, 58.2018252230242 0.9377495278861367 M7.347023109960496 64.23263265425206 C30.798286307686208 41.80779870858818, 51.93258077573325 13.5795907357709, 65.56061780163427 -2.0264319272221556 M8.199926424826621 64.7285445570001 C25.61865741152603 43.53609499471321, 45.43035745599855 20.77297106378189, 64.63076255274345 -1.0691511358575454 M10.862367472996603 65.55973520919895 C26.91208469788686 48.108565462276275, 42.53739983047347 31.231036702654528, 67.69946108129635 -1.7831249197606311 M11.695834815887402 65.86184389095968 C25.445633581908805 50.32024637665113, 38.05571207554901 34.899900890331125, 68.57747946888968 1.042462597821249 M16.196317022860125 63.39771312960177 C37.8812381838833 41.19255379836687, 59.12183730515245 20.29958164310711, 73.1013065204421 1.4573245430005954 M17.960361554481164 65.59129900877117 C30.150661782364768 52.16871693553407, 41.85792014782425 38.841124801257834, 73.88458108999076 -1.0959287733198835 M23.59589676797631 64.65094407199982 C41.30201271946662 45.9817955537112, 57.831567117998745 26.70847721144972, 81.14794475249676 0.8707784926007918 M23.03218814317378 65.87191622908327 C35.463513363985115 51.38101390940125, 48.167221960314976 36.79326618414599, 80.00774110611258 0.10056388186769993 M28.176508457732407 66.11707674704131 C40.86805248725792 50.55172589192316, 53.29657683844286 34.207875591842466, 84.65204315184758 -2.036129985311817 M29.061536887993125 65.32443386215355 C42.48936469548557 49.97022941566511, 55.90003703054172 34.534047254715375, 84.732924010783 0.16381168614159947 M34.73595835055366 65.46220756126553 C52.87048722898365 46.22463418746754, 67.20758238073702 25.387866946762983, 90.6711736019198 -0.4508201091979487 M34.530448666505066 65.30424885163069 C50.58975136369533 43.433610422418006, 69.616234170585 21.99003082844331, 89.39666286906788 -0.35840560434952806 M40.409370416836836 66.87541355554346 C53.06223814256559 51.00925761326586, 68.49166489890166 33.323558727667056, 93.81878472710073 0.6450599565906145 M39.313946130747 65.64969971299503 C54.63174178154568 46.79998221700106, 71.20161587957884 29.341839674888206, 95.60328154949516 0.09117375815191053 M44.76350925197868 64.2703811457461 C66.89916574352219 41.25831654543358, 87.09671548823005 15.232199460878164, 101.07822966081554 1.4508097435931617 M44.18060662025629 64.97744527422695 C57.775674644251296 47.85592723285369, 72.76802821774962 31.158908226899236, 100.44517249213064 -0.8517798452054208 M49.89110298940444 66.4870348634127 C72.73468994102716 37.73622319367961, 95.06793466974557 12.706242152488457, 105.11373827745152 -1.7535001625421032 M49.29313507509881 65.97784341647508 C65.74961554079033 46.75159024293165, 81.91679686130735 26.927544061910538, 107.22001894050223 0.5203859583360568 M53.065756503501355 64.9460702941915 C76.63970251194675 44.156007441425785, 94.82785697757706 18.646288405706436, 113.08444496043391 0.3681485197241088 M54.26952723880243 64.16323401249703 C68.47603996191653 48.40558877820669, 83.75843158144014 31.454824058526228, 110.6510727096758 -0.9437678250749926 M59.55597917769469 66.62413071962177 C75.09317177192098 47.9443317226339, 90.37657658662476 30.552377295085748, 115.29930180515947 1.8622547062627959 M59.40334742643304 64.93686556844145 C72.53050297666839 52.002203920453226, 84.29075549265616 36.45106820895447, 116.94831738918873 -0.5064886174581957 M63.93615713637169 64.95363047535174 C86.64995421105506 38.901916886573446, 107.45847729481608 17.30236636876011, 121.31140153202495 -1.3125733120550933 M66.3809507565185 65.58646858206593 C76.00961755104841 52.226057129405426, 89.07543465070579 37.9395422999995, 122.30904125607839 -0.2454535283332291 M70.90058101295759 64.79793159292069 C83.37924336844122 51.99916052124024, 92.85868703017327 38.832263425002964, 126.01230039945557 -0.08398912869024144 M69.50176091912468 64.35318218451914 C88.53840960574833 44.39469733989473, 105.01387233253783 24.602731325908444, 126.41841018791064 1.2416093859485997 M76.57441818183968 65.35116715797685 C93.35207568337462 42.132184523934065, 114.83796898749208 19.314486037178867, 132.28693140683862 1.3886247170055555 M76.39549240777949 64.42512749855868 C94.10679395235192 41.46363990687446, 113.60154709749578 19.765156412312294, 133.51063086571338 0.5852040606448696 M81.32774052644316 65.11341795205945 C102.29745229040978 40.60535125939311, 122.94932074833036 14.898504904837651, 137.82763206259935 0.6893333815715579 M81.24242828754876 65.00633428033316 C94.0215141115082 50.44969375044298, 107.26680671612408 36.16136181198516, 136.5892285420525 -0.28700693559578383 M87.0864966711553 64.79053581081678 C102.25132076036863 47.8913622648807, 116.69569833252874 31.935097175510748, 141.13299855814395 -0.4451077638984344 M87.49064242696038 65.31031427760024 C104.05372214375234 44.861191729921345, 122.54685279909947 22.67941681713087, 141.8321512149748 2.352790117929814 M90.14653974940137 64.26932026578807 C105.22633585068364 48.52900838621064, 121.47168036828145 30.358360219098188, 140.9779725649262 6.095213927803172 M91.07627726608024 65.62898787150853 C105.46274663526012 48.48446988777657, 120.72936476802415 31.759474245607997, 141.4681064250747 7.346777155538632 M98.48459963556861 65.51734190262155 C111.4308431532483 51.879271349245926, 122.8729273914521 34.156890043791535, 140.31722666930486 14.410224676656249 M97.14076604843622 65.32625743481563 C106.77873616257 53.55701545233357, 116.07748556864674 44.68264179753988, 142.08619669035156 14.362110621819916 M100.57231071308226 65.55811900285651 C112.03078062538758 53.72123382466621, 124.08819972065828 44.23008913685835, 141.16283796667665 20.093298398531793 M103.25111058909417 65.9069339736702 C110.23887135429203 55.50530647057242, 119.33151418761405 46.045284072412436, 140.91984310034275 20.48810559475404 M106.68718410632957 63.37094090214117 C116.46527935148389 53.567321070573044, 127.80125050041869 42.83337687584023, 141.2710241774384 24.14991838430076 M108.11710350658197 65.01031048582985 C115.51520742660419 55.16957446570903, 122.94264972119916 47.6047593434285, 142.9397714320857 26.24864746482133 M113.72663544873578 64.8660446320148 C124.1086234163212 52.19971036567961, 133.73140319575626 42.457180673207475, 140.2364665600153 32.199306040502485 M112.81160599096549 65.47908860244321 C119.76754923623238 57.12362230812208, 127.13417017381241 48.334158953598994, 142.35458506314626 31.8975706756705 M118.51895711468818 65.78443827812563 C126.83224820358575 55.08394204861359, 133.70676096946306 47.14878186902007, 142.14722311379458 36.12895382778514 M119.48777003577264 65.3529519462679 C124.27183326401796 59.81694666762043, 128.0794584205676 52.13508395711929, 141.67192817455228 37.1669416625591 M122.63734598761197 64.67307762201294 C130.94398012614138 56.78925358918993, 136.69465709418895 49.67735550822057, 142.39875634720156 45.06980190268801 M124.59931620606925 64.93749277345255 C127.3613690237421 60.85028350392292, 131.9614615537473 54.774249171451835, 141.91876351886967 43.335985494135784 M129.68920522104204 65.72939098289126 C130.68926524688004 62.03818059826384, 136.64628806229217 56.5239734689464, 142.31853354788456 51.01519436059894 M129.6007413906064 64.79183202369958 C131.39304987707237 62.1175316477861, 134.17995513367978 58.42762922603515, 141.70453823326227 50.94736222765783 M134.24890728966005 64.44729968333853 C135.65283020693434 61.80458602866566, 139.3647813502011 59.63547232405355, 142.9020246279293 56.113159505611705 M134.25739405435183 64.9119181197719 C136.2233018126032 63.01866666691577, 138.04057482696328 60.562023374332114, 142.48192223337082 56.15047177277361" stroke="#868e96" stroke-width="0.5" fill="none"></path><path d="M-1.3311049696058035 -1.7679878417402506 C48.7281440926512 -1.2727408324999852, 95.56817966919043 -0.01425903194380218, 141.79841884411871 -1.430225545540452 M-0.953229215927422 0.6725179674103856 C52.41875453011308 0.23575444675312607, 107.3362428461609 -0.6399430766023579, 140.5269436268136 -0.8104400811716914 M142.26494249142706 -1.8672463241964579 C138.93593146394556 14.499806164994153, 139.83987279723948 26.907941036386912, 139.64198865927756 64.97754073701799 M141.29157990496606 0.9473426165059209 C139.89569501870986 23.93765113420923, 139.89631958598014 48.294030399288026, 141.37148705404252 63.59455443639308 M139.68662204779685 63.475837951526046 C106.39600328805099 64.14077658030001, 68.86676186289988 61.963166004147205, -0.9006624575704336 63.57172936759889 M141.21584287565202 62.49441934842616 C87.27279053519305 63.95856756902038, 31.466002042085165 64.62522653675376, -0.4346243115141988 63.69907764811069 M1.086826765909791 61.66403598152101 C-0.7018329598041236 39.369350576426584, 1.0139942072300254 15.070703608221805, 1.6456241849809885 -0.0749667827039957 M0.12348425667732954 64.15777282137424 C0.8687472613065257 40.44534848630755, -0.037150922277687626 16.74358718377261, -0.48297372180968523 0.37547452468425035" stroke="#000000" stroke-width="1" fill="none"></path></g><g transform="translate(730.75390625 179.66732838114763) rotate(0 82.77148437499994 31.724609375)"><path d="M0 0 C0 0, 0 0, 0 0 M0 0 C0 0, 0 0, 0 0 M-0.5906201585801194 6.954463466306321 C0.9900533182730615 3.898968688048312, 2.6293690529503095 1.8329088223214303, 4.2395748812281555 0.6584462035295778 M-0.3991777497948954 6.470977937852137 C1.3443014923548884 5.274594032567046, 2.1011068113587434 3.202294118066547, 4.802901194947308 0.1829357407835537 M1.6244509273301468 11.650891746997415 C4.022419452362236 8.66496140797015, 4.057743911032494 6.851297767770063, 9.973029178333414 1.390078229744709 M-0.28904365439902674 11.75393709805566 C3.374322918568987 8.443234380185153, 7.253803162427953 3.1351258237990973, 10.451794075173272 -0.14958641351314772 M0.41812099790663915 19.279006832186752 C4.9601997581926485 14.56317979889871, 8.019821974175132 8.501067368478935, 14.213254106699903 -0.9730501522379944 M0.8540655318135162 18.75760305104839 C5.321461682486591 12.528166474013613, 10.04141889318354 6.648374205719401, 15.112826783678909 0.2996403013286164 M0.7270393205992196 24.875401831879376 C7.211860029246489 16.90399385927509, 12.890438493498007 7.843954671787474, 22.339742180237437 -0.5079959636390683 M0.43014197537668686 23.34365059500104 C7.927955852120882 15.55312336143258, 14.458670247584354 7.917623773797779, 21.469614419432247 -0.4451377909467098 M1.4482789701362506 31.014662921194187 C11.14537276227744 19.482369462385222, 20.758192418734808 7.779603894960879, 24.608959295463176 1.010727537238294 M0.3401543926959292 30.733185299437693 C8.144622589448204 21.1770789221626, 15.966925275312835 10.379288866049723, 25.301481827769788 -0.23411549031615841 M0.6113730966019908 35.911379836314666 C9.74299563581749 24.114922280278137, 21.52049562415389 11.721330097256494, 30.04048200645188 0.8027661313547974 M-1.0691338415351233 36.160969019682454 C12.495148750751508 23.815929054169178, 24.227465762778884 8.478948446323656, 32.709884224875665 -0.4827483341783996 M-1.279535774919296 41.64928293842428 C13.138937998701046 27.430906568198893, 24.061381416707487 12.004504676341423, 35.9417601263163 1.5382445455622396 M0.9523609598771685 41.536568298559416 C12.836665567431318 27.116602900505633, 26.628427811608884 12.458429467766397, 37.856611023472 -0.6940988515410105 M-0.27637283131488033 48.507871954374835 C11.654588858643379 33.82312798354746, 21.887240597136604 22.552557187871887, 42.09408895913117 -0.6374101891786808 M0.6211157096549087 49.177233107061014 C12.684297019186271 34.1194073840297, 25.034072169336806 19.473301763009353, 42.24350806474291 -0.027763204802667474 M0.5427822314900013 55.741948915127026 C14.19308846168973 36.994128911340624, 31.115503960709052 21.58197768507827, 48.44163706800926 1.996707903983836 M0.24366374898223597 54.99367978278856 C15.502808738705351 35.585120792658444, 32.48025584357317 18.20726877842811, 48.495255386410534 0.206555452029054 M0.7627229766080887 59.68179479753266 C17.35572510606594 42.45891906902558, 36.89678712221065 21.11400828040113, 53.2774185070253 0.7618071060104974 M-0.0006273844187347777 59.996517671734495 C11.999380859306 45.82183559414981, 25.147336639205193 32.773608117701094, 53.639089454658986 -1.0198796684445135 M2.1292065160951594 64.2485737221069 C22.268269434932915 40.693600586739095, 46.32316522933117 16.11942796683531, 58.93232058929206 0.6795746437530958 M2.5322843336171488 65.2179033260546 C14.02163074709977 50.04344101172899, 27.084788928281213 35.859873348480136, 58.8875809322104 1.0515876547690475 M6.8940403080164785 66.29980001458765 C26.21240891749831 46.52756778469674, 39.67457105140192 28.263264684482927, 61.96107611888428 0.4970000481723318 M7.389952210764527 64.4632575656274 C28.590586017148897 41.23434153749879, 48.14577303915503 17.76575993443889, 62.91835691024889 -0.6019199907289376 M12.84805089553226 64.4842244279406 C25.469893902602546 50.77451880436877, 38.588187804012485 34.29728546016548, 66.83129115891471 -1.2134482038799987 M13.150159577292989 65.57240170005923 C33.71494297885462 41.14504037409924, 54.4839168099431 16.56832495008485, 69.65687867649659 0.7216129910539522 M16.723705457717255 64.96485211812644 C39.33253129137242 41.672866994855625, 63.25011898634085 14.050623454135675, 76.1094172634581 -2.028999331443174 M18.91729133688666 65.54882550445139 C41.45411832539321 39.84000676460808, 64.00640181960485 13.056066300165988, 73.55616394713762 -0.11983143728093637 M22.60384443268421 65.29266718699697 C37.31373511967601 49.002005491225034, 51.36929207482391 36.53342348574478, 80.1497792456272 -1.5764036076654264 M23.82481658976766 64.83966176229629 C35.724829197302995 51.16045408267745, 47.45771845824555 37.188320542092555, 79.37956463489411 -0.6058783047412106 M30.10765374950787 64.43145604051288 C49.57210813035846 40.75026006295126, 68.33529364716493 17.57292366371196, 83.28054740949676 -1.5071090015860307 M29.315010864620117 64.76675962369528 C43.96524417875482 47.791887240856, 58.50752372787002 30.705865789743676, 85.48048908095018 -0.12268627372552032 M34.07969259630099 66.85798403052598 C55.724036055019965 39.653048508522495, 75.72301889246717 18.44933676927944, 89.49276531817952 0.602915463646795 M33.921733886666146 64.03311124714077 C53.9954722635329 40.17071504468544, 74.55057637716114 15.881139751280891, 89.58517982302794 -0.45652099824145864 M40.119806623147824 65.34152839321975 C53.70503328910919 50.90934848750349, 65.4727775533032 32.366522177208836, 96.62632202575028 -0.7219969310062311 M38.894092780599394 64.90863473795686 C50.934514257940705 50.721417250134394, 64.33860443577656 36.075990118018055, 96.07243582731158 0.6373182343123176 M43.552450855132626 65.27050698977767 C62.53720566580047 44.302555654027195, 78.42727835192646 27.74018944230201, 102.05897984532172 -0.7570339586933201 M44.25951498361348 63.96305288896768 C62.033969877714355 43.66435144846369, 80.16055065097466 23.42946707257206, 99.75639025652313 0.9409251449282223 M50.396012605368135 66.97910704705151 C67.40296266232829 43.57715667375554, 88.20732252741496 17.268207247942293, 104.89234658096862 -0.5520810884537681 M49.886821158430514 65.79877192116561 C71.05200699743418 40.794949660437986, 91.62979415744957 16.99552081874448, 107.16623270184678 0.2048598212075845 M54.8927246779291 66.526818096002 C72.92983798033964 47.1014654476095, 86.18833771919047 31.038404318481618, 111.64090329580374 -0.8315448434357862 M54.10988839623463 64.236664422152 C74.1822244193417 43.39678753041112, 93.01131412157437 20.77724722757162, 110.32898695100464 -0.34542464085718194 M61.19769313592828 65.79860861348092 C78.06889238143606 45.09396679644192, 96.2197491916418 22.02827945711754, 117.76191751491132 -1.214819862455876 M59.510427984747956 65.82249598791927 C80.50860298165853 42.86322453300696, 98.856469975503 21.14165829900645, 115.39317419119033 1.1762008015580463 M65.56486953344043 64.52974938044899 C80.58689397122535 45.498636345691246, 100.03003446049672 27.050073617313657, 120.6247661383756 -1.8896601593305888 M66.19770764015462 64.25799858106875 C87.5876128675887 40.606923688718496, 108.05963816630506 15.641791567376181, 121.69188592209747 -0.9505801212226572 M70.03607868357827 66.40599012375799 C87.1077756427128 45.25389064344287, 103.74712547749036 26.551810389524697, 126.48025835430934 0.7144496177918924 M69.59132927517672 65.90729717259285 C92.42384491628961 39.609688161932176, 115.34965042707017 14.61986300325539, 127.80585686894818 0.6803497492931498 M76.6269908904166 63.08838287436865 C90.68087378629137 47.590393396157324, 105.19927142126687 28.432998449283907, 133.9905488417873 0.7058271248722718 M75.70095123099843 64.22798310009293 C95.58595807632246 40.36668313828016, 116.80468692093706 17.391817557737568, 133.18712818542662 0.7873239382067965 M81.01614971706812 64.31345860913271 C94.81864683290091 47.85187066014526, 107.41328840321663 34.68161376916163, 137.91816553892224 -1.16923103623769 M80.90906604534183 65.27754070956135 C97.35660848892459 46.98910489350386, 114.0048356356654 26.798077625941588, 136.9418252217549 -0.09268102098933184 M86.73094421760759 65.91805060901095 C102.75917559289383 47.065815083507985, 119.69548331970145 26.251473271104977, 141.31198187478887 0.49837404042277456 M87.25072268439105 64.14442071359952 C106.29078714039653 42.75576957666421, 123.51938329527772 21.731704055117156, 144.10987975661712 -0.17297222819384217 M90.83663670514778 63.9394711008551 C108.94933638126746 46.34942308642554, 124.72271224405475 25.227353366704463, 147.19624453749995 -0.11927979329459504 M92.19630431086824 64.45446683319979 C105.51310304946436 49.51668896918163, 119.35408296281102 31.93306563782265, 148.4478077652354 0.08928622508562967 M98.12233498376345 66.6403346156259 C119.9624352996853 40.87618189411559, 137.84686881923568 14.136236840888856, 154.75654570613028 -2.0623123814290665 M97.93125051595753 64.80198915596353 C110.10977159540838 49.68690951814234, 125.1247415236105 34.01723603063162, 154.70843165129395 -0.5758533860495589 M102.79002011656732 64.60873463017514 C117.61046271719033 50.03334067613535, 134.5308087066736 30.844970131037208, 159.02885081879253 -1.482864622128858 M103.13883508738101 64.25619077788313 C115.2524910136611 49.650088095338425, 128.3310805963169 34.26866324731073, 159.42365801501478 0.25530422189299884 M106.64051865763415 62.783066925463515 C123.83395719353351 46.65595884049492, 140.19349821750302 29.17696191216482, 163.0854708045615 -1.6202751094332513 M108.27988824132282 64.79224116155996 C128.10870347254487 40.228026709692045, 150.48016616749558 17.10627181630752, 165.18419988508208 0.13117069901464617 M112.76253042007667 66.55220622834283 C124.60841679706223 50.65637659535681, 139.54409220232512 31.620678757112813, 168.41197179356894 0.8085156689550814 M113.37557439050508 64.7977027779864 C134.65464517221 40.5070642921212, 155.54426738139261 16.882086493396024, 168.11023642873695 1.740719864253336 M119.71860070796969 65.78032956977378 C132.45105312045422 47.82326845035456, 148.1396272910063 29.205731882195266, 166.437088319937 6.388498270110716 M119.28711437611194 65.50360446476381 C138.24983725352692 42.313319157962795, 155.09760869091494 20.64235201520961, 167.47507615471096 9.09927064382427 M123.23414808442588 64.90709292660817 C134.17532560331358 51.912293462778436, 145.6089202639058 42.41426962976303, 168.71869555370256 13.031417654103251 M123.49856323586549 64.49086806788459 C134.44389888821985 53.040371153291495, 143.1195898040153 41.62076930846199, 166.98487914515033 13.979560429437669 M130.38343660352007 62.97245457980671 C143.26490984772482 51.05595721940643, 154.1089473569559 35.48130016243553, 168.69648289494984 18.604207307116198 M129.3965324359499 64.12138179995009 C144.8320633632481 46.590067818141726, 159.4445458931633 29.68391295441731, 168.62508064974867 19.946429201417672 M133.27860357836494 63.716851756221175 C143.6031431183204 53.87058553176169, 154.95991630054255 41.57975498930136, 167.94157203179157 25.48207008100131 M134.05296763908723 65.0444268819527 C144.20392305944665 53.86665673443265, 153.37228156293995 43.66955617136941, 168.00375914372808 27.316150368256658 M139.2556318130353 63.60602398681229 C150.76690019441182 54.15806122048025, 159.55029182779595 42.75186335436865, 167.6864301433025 31.328011131719336 M139.50487093646169 64.62775090149378 C149.8059148292033 55.180830581692405, 157.09121593271277 44.824583407637164, 167.97529953077267 31.342213705055997 M144.56337737064385 65.93118974843185 C151.6098752770496 59.60806620466533, 156.32876262438597 51.80267658810385, 168.51389766759536 37.19301456112204 M144.5370786157953 64.46399445456575 C149.24278756342179 58.9204711335334, 154.57565391829465 54.10413967422623, 167.4231709111046 38.72175199530808 M147.89348277627485 65.5885794022633 C154.80419419346222 58.28000851556328, 160.41918710869945 52.5398979407489, 165.88710150475447 46.2955763553929 M149.30592436428176 65.55647408399268 C155.6099746657095 58.63079803760742, 161.1416683411805 50.90021933885062, 166.8835897844175 45.781323969337016 M155.358448002119 63.484252582099366 C157.38071342213908 61.74748484263499, 162.28570644376023 59.59827143694317, 169.06232817951886 52.26243421255172 M156.35842964114102 64.09794981342748 C159.69578843295366 60.35106401101314, 163.65086729105852 55.07613712687394, 168.57765246090776 51.180821135840645 M159.90972171198473 65.9568559512159 C163.30687056819136 62.774735235833816, 163.83006205874074 61.297208986395326, 166.96507427282464 57.49924246270061 M160.73338866216028 65.68420787464251 C162.25328748307172 63.87182108749212, 164.40861175912437 61.013559470011955, 167.67375751086342 57.44782583328747" stroke="#868e96" stroke-width="0.5" fill="none"></path><path d="M-1.7679878417402506 1.4588913563638926 C43.041162297263114 2.1314495385479306, 89.19614335362488 2.30644418605083, 164.11274320445943 1.58269121684134 M0.6725179674103856 -0.8851951332762837 C34.580454276351134 2.30634746242078, 67.53948940883924 1.5111975698521918, 164.7325286688282 -0.7531582387164235 M163.67572242580343 -1.8473152872174978 C166.14503986624382 19.98635918270702, 164.2971392968049 40.90770493253876, 167.07129073701788 65.07985409535468 M166.4903113665058 -0.8245586426928639 C165.37815439308366 19.475868163604538, 165.52664109671792 41.377341532096764, 165.68830443639297 62.94813663046807 M165.56958795152593 64.38469561375678 C111.89674619322787 61.23783449309234, 55.66922265697572 61.79771302121048, 0.12251061759889126 65.15924086607993 M164.58816934842605 64.32730537932366 C112.04688337932996 63.74939399508297, 59.09777289393746 64.04442545322239, 0.24985889811068773 64.38808945100754 M-1.7851827684789896 62.891801500692964 C0.3523691701460847 44.12870593775624, 1.045549075560666 24.136997475039237, -0.0749667827039957 1.2784320954233408 M0.7085540713742375 64.06279805582017 C0.5367067772979863 46.67381380209954, -0.07451301626013446 30.000072887917483, 0.37547452468425035 0.530781033448875" stroke="#000000" stroke-width="1" fill="none"></path></g><g transform="translate(52.03515625 200.38412525614763) rotate(0 28.5 12.5)"><text x="28.5" y="18" font-family="Virgil, Segoe UI Emoji" font-size="20px" fill="#000000" text-anchor="middle" style="white-space: pre;" direction="ltr">Client</text></g><g transform="translate(281.890625 200.69662525614763) rotate(0 81.5 12.5)"><text x="81.5" y="18" font-family="Virgil, Segoe UI Emoji" font-size="20px" fill="#000000" text-anchor="middle" style="white-space: pre;" direction="ltr">useLocalStorage</text></g><g transform="translate(566.234375 198.77084400614763) rotate(0 21 12.5)"><text x="21" y="18" font-family="Virgil, Segoe UI Emoji" font-size="20px" fill="#000000" text-anchor="middle" style="white-space: pre;" direction="ltr">SWR</text></g><g transform="translate(742.171875 199.38803150614763) rotate(0 70.49999999999994 12.5)"><text x="70.5" y="18" font-family="Virgil, Segoe UI Emoji" font-size="20px" fill="#000000" text-anchor="middle" style="white-space: pre;" direction="ltr">Local Storage</text></g><g><g transform="translate(78.16560561490309 245.18616759623592) rotate(0 0.022739577376199804 124.4251102268135)"><path d="M-0.35811309479177 0.7228013064712286 C-0.4521878119558077 42.085425954575896, -1.4095229502767228 207.534151559152, -1.677650478109706 248.7935524065975 M1.6547388011030852 0.056668047029525104 C2.034961144309493 41.04269383689693, 0.8053965103440083 206.15143518246367, 0.5837830114178475 247.1695253911238" stroke="#000000" stroke-width="1" fill="none"></path></g></g><g><g transform="translate(361.2636026404898 244.99912487329607) rotate(0 -0.3625420207643515 123.68784402447744)"><path d="M0.7228013064712286 -0.8581353273242711 C0.45343595053002067 40.41801081486352, -0.625798461077371 205.93869923540987, -0.9983876176777586 247.29876375833496 M-0.3568667369708418 1.305739680491388 C-0.7552199881623702 42.71719419446148, -1.1657104949407366 207.11491261688656, -1.4478853479999407 248.23382337627902" stroke="#000000" stroke-width="1" fill="none"></path></g></g><g><g transform="translate(584.4519270692059 243.33529713114763) rotate(0 -0.17033181628528382 125.37205751298904)"><path d="M-0.8581353273242711 0.9496147301048039 C-1.0166206017152641 42.55274059701082, -1.2344578474840393 208.71427407056672, -1.3090247411377276 250.3415565079073 M0.892204896491021 0.4025585180707276 C1.116638956869277 41.5748930313934, 0.7845598768176265 207.04884383628723, 0.8005641619578454 248.44749783432061" stroke="#000000" stroke-width="1" fill="none"></path></g></g><g><g transform="translate(809.9925477867214 244.20854332267595) rotate(0 0.38017620782210315 123.72133704763831)"><path d="M0.9496147301048039 -1.1473631110042333 C0.9283034075842729 40.271183837065436, 0.5920881234340033 206.17278796588053, 0.5949333713480427 247.65314636109375 M-0.010976265929639295 0.8646673103794456 C-0.21546797904656 42.4625797801185, -0.23053776802051434 207.3183815648498, -0.12459601708714207 248.59003720628075" stroke="#000000" stroke-width="1" fill="none"></path></g></g><g><g transform="translate(80.48754058480267 291.7154598887827) rotate(0 139.57061756270934 -0.844161705700742)"><path d="M-1.1473631110042333 0.4352687146514653 C45.35852246123054 0.2062156435102148, 231.60948108670607 -0.2960156921297692, 278.1771781060844 -0.42470369674269937 M0.45113252637907886 -0.38181915549561385 C47.383994583270194 -1.0289813807420507, 233.59787902850036 -1.8189673420600971, 280.28859823642296 -2.123592126052872" stroke="#000000" stroke-width="1" fill="none"></path></g><g transform="translate(80.48754058480267 291.7154598887827) rotate(0 139.57061756270934 -0.844161705700742)"><path d="M252.87887671315713 6.382069490449908 C259.8446378509428 4.4080961073116125, 266.4196140726006 5.256121401940999, 280.02864643072706 -2.257204872425691 M252.71813303796245 9.124124168018284 C257.458589351888 5.00104601302609, 264.6744617946798 3.173220606881795, 279.4865333137847 -2.599472796414093" stroke="#000000" stroke-width="1" fill="none"></path></g><g transform="translate(80.48754058480267 291.7154598887827) rotate(0 139.57061756270934 -0.844161705700742)"><path d="M252.76847417598202 -14.138842128326306 C259.9218523813753 -11.422963028258351, 266.5220543377376 -5.886140848743681, 280.02864643072706 -2.257204872425691 M252.60773050078734 -11.39678745075793 C257.21780517522996 -11.02701877494572, 264.45785091505525 -8.36166762326096, 279.4865333137847 -2.599472796414093" stroke="#000000" stroke-width="1" fill="none"></path></g></g><g><g transform="translate(362.5546875 308.7024846311476) rotate(0 111.77145881069822 0.5313527991064007)"><path d="M0.4352687146514653 -1.1438750591129063 C37.66671151978274 -0.7481764839341243, 187.00646368923285 0.5090033763398728, 224.33827156089245 1.2268283400684596 M-0.7953539394959808 0.8699865895137191 C36.26559067451706 1.4775016961122551, 186.32631638212752 2.1383420933907233, 223.8139124167338 2.206580657325685" stroke="#000000" stroke-width="1" fill="none"></path></g><g transform="translate(362.5546875 308.7024846311476) rotate(0 111.77145881069822 0.5313527991064007)"><path d="M193.68079147798792 13.713089109556062 C204.61572042621057 9.904546136117915, 218.54450102511487 4.300585669010123, 223.680299670361 0.5857004949823024 M196.4228461555563 11.434430012637062 C200.97532853242015 10.047419312218517, 207.7693836092811 6.840346946673924, 223.3380317463726 2.97074165083468" stroke="#000000" stroke-width="1" fill="none"></path></g><g transform="translate(362.5546875 308.7024846311476) rotate(0 111.77145881069822 0.5313527991064007)"><path d="M193.7529073933191 -6.807992774218857 C204.46428526939178 -2.836022797966466, 218.36572423240727 -0.6597318970651571, 223.680299670361 0.5857004949823024 M196.49496207088748 -9.086651871137857 C201.09252918415743 -5.862492953647703, 207.8703809559965 -4.4588029428737626, 223.3380317463726 2.97074165083468" stroke="#000000" stroke-width="1" fill="none"></path></g></g><g><g transform="translate(366.17643744088707 361.7157135661695) rotate(0 222.3077424712386 -1.8804932786896416)"><path d="M-1.1438750591129063 0.8070215608924627 C72.98153185925136 0.24860377671508338, 369.1575450922673 -2.1197218938575015, 443.60507839918137 -2.9152379904128107 M0.45645180551335196 0.18510393502190725 C75.04128621828433 -0.7387313433332904, 371.62968815214316 -4.082078628338211, 445.75936000159015 -4.568008118271778" stroke="#000000" stroke-width="1" fill="none"></path></g><g transform="translate(366.17643744088707 361.7157135661695) rotate(0 222.3077424712386 -1.8804932786896416)"><path d="M419.0101556938974 4.183657744846095 C424.86047781695777 5.527972305171353, 428.851163602505 1.7871072690580307, 444.13847983924677 -6.074324595704625 M416.7314965969784 5.030390367789914 C426.9949182464149 1.7767391873252278, 435.3382995780078 -1.6983219364576616, 446.52352099509915 -3.75269044559444" stroke="#000000" stroke-width="1" fill="none"></path></g><g transform="translate(366.17643744088707 361.7157135661695) rotate(0 222.3077424712386 -1.8804932786896416)"><path d="M418.81951200640543 -16.336665287948968 C424.78323122977156 -10.796458352600993, 428.8128819937018 -10.343248285019094, 444.13847983924677 -6.074324595704625 M416.54085290948643 -15.48993266500515 C426.9830405313831 -11.976222196607708, 435.38930871299556 -8.682328660033097, 446.52352099509915 -3.75269044559444" stroke="#000000" stroke-width="1" fill="none"></path></g></g><g><g transform="translate(812.86328125 355.79382959502993) rotate(0 29.047872571107746 26.518887952070145)"><path d="M-1.442067670702673 0.8948659446090461 C8.172483343455069 1.0147850111473047, 47.64632150376721 -6.658892269416861, 56.16359751506242 1.5265359601220139 C64.68087352635763 9.71196418966089, 59.35966858898894 41.647257682385565, 49.661588397068584 50.007435321842294 C39.96350820514823 58.367612961299024, 6.325955884873504 51.300186585787145, -2.024883636459708 51.6876017968624 M0.20112066599380274 0.3190666201896968 C9.834215528546892 0.559091578551724, 47.56562823221593 -5.433803321312331, 55.674408468645986 2.9820763925490925 C63.78318870507604 11.397956106410517, 58.50828254278422 42.48142133454111, 48.853802084574156 50.81434490335823 C39.19932162636409 59.147268472175355, 6.149609085347141 53.183826648689276, -2.252474280614406 52.979617805451824" stroke="#000000" stroke-width="1" fill="none"></path></g><g transform="translate(812.86328125 355.79382959502993) rotate(0 29.047872571107746 26.518887952070145)"><path d="M28.256280912486716 46.82082015344801 C20.616922735041577 46.532375692265, 13.316815744809109 46.7183871183666, -1.6551564415730535 54.10902617056735 M26.88672303355287 44.89244613772186 C14.761803541442381 47.54122427342712, 5.198160179177648 51.75341506538561, -2.053096472825855 53.145777566590084" stroke="#000000" stroke-width="1" fill="none"></path></g><g transform="translate(812.86328125 355.79382959502993) rotate(0 29.047872571107746 26.518887952070145)"><path d="M26.362658736529397 67.25447370440561 C18.97346162213782 62.80049098457072, 12.06093568648749 58.80420190067623, -1.6551564415730535 54.10902617056735 M24.99310085759555 65.32609968867946 C13.785271698789886 60.15484392572763, 4.947945347415331 56.529510233059725, -2.053096472825855 53.145777566590084" stroke="#000000" stroke-width="1" fill="none"></path></g></g><g transform="translate(887.0117187499999 373.6985783811476) rotate(0 22.5 12.5)"><text x="0" y="18" font-family="Virgil, Segoe UI Emoji" font-size="20px" fill="#000000" text-anchor="start" style="white-space: pre;" direction="ltr">Save</text></g><g transform="translate(623.81640625 328.6868596311476) rotate(0 16 12.5)"><text x="0" y="18" font-family="Virgil, Segoe UI Emoji" font-size="20px" fill="#000000" text-anchor="start" style="white-space: pre;" direction="ltr">set</text></g><g transform="translate(452.203125 276.6282658811476) rotate(0 34 12.5)"><text x="0" y="18" font-family="Virgil, Segoe UI Emoji" font-size="20px" fill="#000000" text-anchor="start" style="white-space: pre;" direction="ltr">mutate</text></g><g transform="translate(193.984375 258.6087346311476) rotate(0 16 12.5)"><text x="0" y="18" font-family="Virgil, Segoe UI Emoji" font-size="20px" fill="#000000" text-anchor="start" style="white-space: pre;" direction="ltr">set</text></g><g><g transform="translate(587 422.6673283811476) rotate(0 -112.87674430869527 0.8409603926271529)"><path d="M-0.9037898864597083 0.3583907034248113 C-38.365378400310874 0.7357750521351893, -187.22571512125432 1.4880642241487898, -224.8496987309307 1.2917779948562382" stroke="#000000" stroke-width="1.5" fill="none" stroke-dasharray="12 8"></path></g><g transform="translate(587 422.6673283811476) rotate(0 -112.87674430869527 0.8409603926271529)"><path d="M-196.0693608183555 -7.860709357005144 C-203.34544025636936 -8.053747685060188, -215.1305735214188 -2.926851537841409, -225.79307268485428 -0.3123518504202367" stroke="#000000" stroke-width="1.5" fill="none"></path></g><g transform="translate(587 422.6673283811476) rotate(0 -112.87674430869527 0.8409603926271529)"><path d="M-196.0538598032863 12.66049338806736 C-203.1681739369766 6.448072202200615, -214.95785394988707 5.55570223877977, -225.79307268485428 -0.3123518504202367" stroke="#000000" stroke-width="1.5" fill="none"></path></g></g><g><g transform="translate(361.8203125 443.4056096311476) rotate(0 -140.36682706642895 -1.6776829672977556)"><path d="M0.3583907034248113 0.677645019069314 C-46.3281954197213 0.15610817453513348, -233.83178813513365 -3.4590033297116647, -281.0920448362827 -4.033010953664791" stroke="#000000" stroke-width="1.5" fill="none" stroke-dasharray="12 8"></path></g><g transform="translate(361.8203125 443.4056096311476) rotate(0 -140.36682706642895 -1.6776829672977556)"><path d="M-251.61036251607692 -12.16735575376388 C-260.88876868332096 -13.454205793744432, -264.9856519009326 -10.403283316840321, -282.69617468155917 -4.984772294387232" stroke="#000000" stroke-width="1.5" fill="none"></path></g><g transform="translate(361.8203125 443.4056096311476) rotate(0 -140.36682706642895 -1.6776829672977556)"><path d="M-251.94065668077104 8.351194588563141 C-260.99220580920297 2.5706985533970625, -265.01676914037085 1.1289614880991614, -282.69617468155917 -4.984772294387232" stroke="#000000" stroke-width="1.5" fill="none"></path></g></g><g transform="translate(449.8828125 395.3313908811476) rotate(0 20 12.5)"><text x="0" y="18" font-family="Virgil, Segoe UI Emoji" font-size="20px" fill="#000000" text-anchor="start" style="white-space: pre;" direction="ltr">sync</text></g><g transform="translate(170.8984375 412.1907658811476) rotate(0 44 12.5)"><text x="0" y="18" font-family="Virgil, Segoe UI Emoji" font-size="20px" fill="#000000" text-anchor="start" style="white-space: pre;" direction="ltr">re-render</text></g><g transform="translate(257.58747438524574 10) rotate(0 183.685546875 59.970703125)"><path d="M-1.1064657093568049 0.7497831501674751 C146.240242054464 4.18792911530092, 290.6163089162798 5.045184160077916, 369.4235435936187 1.972586794583569 M0.13987219355835137 0.2601671426796631 C140.25970047940004 4.792452911218368, 281.2588399220182 3.622829334174821, 366.88811561791636 0.9813652274796724 M367.6896583326161 1.4309674613177776 C369.5088087757675 23.587751902332457, 369.9358778437225 58.19535345150143, 367.84818487241864 117.60697652027011 M366.903690462932 1.9759299401193857 C367.4851718491027 45.833896086538516, 365.80487954077216 88.64983380583362, 368.37044293247163 119.52579333819449 M365.9461449760235 118.18373506736553 C220.29633059048157 118.61212862073852, 76.94967417078398 118.52083234136761, 1.259105992086616 119.74836058805617 M366.6545101153497 119.42503226258074 C236.63102837008108 118.35090113050317, 102.93237869894908 117.84002625772003, -0.1617482231913239 119.40317628785361 M3.57515661790967 120.32650936767459 C-2.951755730514196 87.37534691202927, 2.7074834424212897 59.75366367391325, 3.9223809726536274 1.2519309632480145 M-0.2967739049345255 118.36824115552008 C2.7521391627527922 84.4829188169806, 1.6811646339632718 47.61037762162958, -0.4356618467718363 -1.8330055233091116" stroke="#000000" stroke-width="1" fill="none"></path></g><g transform="translate(362.17536501024574 54.017578125) rotate(0 80 17.5)"><text x="80" y="25" font-family="Virgil, Segoe UI Emoji" font-size="28px" fill="#000000" text-anchor="middle" style="white-space: pre;" direction="ltr">Store Value</text></g><g transform="translate(764.0117187499999 509.97972000283335) rotate(0 84 10)"><text x="168" y="14" font-family="Virgil, Segoe UI Emoji" font-size="16px" fill="#adb5bd" text-anchor="end" style="white-space: pre;" direction="ltr">Made with Excalidraw</text></g></svg>