<svg version="1.1" xmlns="http://www.w3.org/2000/svg" viewBox="0 0 958.03515625 530.955346843805" width="1916.0703125" height="1061.91069368761">
  <!-- svg-source:excalidraw -->
  
  <defs>
    <style>
      @font-face {
        font-family: "Virgil";
        src: url("https://excalidraw.com/FG_Virgil.woff2");
      }
      @font-face {
        font-family: "Cascadia";
        src: url("https://excalidraw.com/Cascadia.woff2");
      }
    </style>
  </defs>
  <rect x="0" y="0" width="958.03515625" height="530.955346843805" fill="#ffffff"></rect><g transform="translate(10 180.92123463114763) rotate(0 70.296875 31.724609375)"><path d="M0 0 C0 0, 0 0, 0 0 M0 0 C0 0, 0 0, 0 0 M-0.4699335559876511 7.017457207341783 C1.7273323618417975 5.098185218611814, 3.960576975766077 1.8940464278778708, 5.5170966583811705 0.7121511567232423 M-0.09907469336407876 6.345614909802668 C1.3749964395784708 5.061178470423436, 2.359605059755652 2.5578919310133164, 4.963337884800977 0.6223916672018581 M0.17916489179242712 12.648670305728494 C1.997013180990335 9.008665772053494, 5.781834928760478 4.599796235395901, 12.215388101291788 -0.902351646582806 M-0.5024781360198154 11.458074780970394 C2.1288675205148913 9.790527642544891, 4.488019423016601 5.827757463106358, 9.853680180710686 0.29461398302463304 M0.5688021955499192 16.811098270957046 C5.495466596373487 13.58159851459908, 11.37452037588876 5.644869160430222, 16.32963163918205 -1.3131797065096924 M0.3074348214501281 18.346583099943274 C6.149654448104233 11.01647843397145, 12.747073335907249 4.000513579602012, 14.7124525201539 -0.1664343143883178 M0.4924189282766793 23.514444030537366 C8.363665208251664 14.199719723011105, 12.521844593538065 8.875537324202483, 22.253130134472514 -1.358057082241821 M0.9981133539415215 23.890065298131763 C6.627027847696203 17.232286406508482, 10.596882008864636 11.598522098087145, 21.475987020226086 -0.8333248715684292 M1.76506353081664 30.522191524271122 C10.496165343124348 17.90632936165957, 21.42887079419824 7.049753171090238, 27.269736089419933 -0.6326513761642634 M-0.2693558800453886 31.06280980328863 C9.6980108866714 20.47918264915831, 17.304830229245155 9.768529374396554, 26.9938066151481 -0.02430395185828793 M1.3830660282540599 38.300883613341796 C8.74456863115008 25.238572385417438, 19.65356913153021 11.400571102623445, 32.55332293309907 -1.8528636823163147 M-0.17848294331696835 36.77047690823798 C8.99302527881478 26.650503260013984, 17.386874481396433 15.722501676272483, 32.243343083604074 -0.8901786551565642 M0.5048658206732028 44.498703783932854 C9.966179522281543 32.94178544967875, 18.102256561882673 22.646139517211992, 35.25313735362266 1.0283838511538228 M0.6467924138204211 43.43728159330391 C15.202260421302018 26.735052063046208, 29.33397897889971 10.274317507877505, 36.91861240081613 1.1743869270291647 M-0.5796654038132019 48.272104887896106 C8.925004219167375 38.81508434725016, 18.85465389942083 23.621912569570362, 40.679771530065466 0.8459713802068478 M-0.2948263334111161 49.738872266978845 C12.282111204355571 34.26033418219893, 25.456901490782883 18.36045482390307, 41.70993697046839 -0.03805493019977746 M1.0806895338696094 53.06534208119224 C12.332214388506511 39.136638432088496, 22.1094785369715 27.469113664129903, 45.99419090054023 1.32275800669456 M0.24167071867255885 54.78811370436411 C15.913423866433474 37.614742217533504, 31.32579751779676 18.970359344235867, 47.086723392782986 0.9586910566490339 M-1.2124789281656234 62.71064946567307 C20.673308673259584 40.80150342611287, 36.77613483044899 14.787920699753002, 52.39370639412171 -0.9055948634223334 M0.030377670293560755 60.64151368895213 C15.712496637203355 45.00729350541617, 28.94720007898275 27.957107363614043, 53.577184696444036 0.7755365376769312 M1.690883197136877 65.94364428685375 C14.001353862382686 50.9190447648056, 30.445593778686913 32.143065530925654, 56.801002198922646 -0.19044687829203966 M0.966313108117042 64.2208772103987 C24.21240102033962 39.45083903471911, 46.00181420186732 14.364892183330547, 58.55111810667367 -0.345463828623668 M7.134380242842376 63.7487939954722 C27.827264534919394 39.75334716039697, 51.83532099343423 13.539668299791586, 64.0501079940178 0.1546446180461416 M6.504256902317643 65.06502352608234 C22.21091918195946 45.83542448224709, 37.14181239168289 28.627957149993286, 64.49962727715601 -1.1000390171514383 M13.688135627111087 64.2143024694941 C31.270430146490604 40.16267950293225, 53.512090453166465 17.94058077975857, 70.5754267175199 -0.04589877255599362 M12.785468945664952 65.59092238310939 C31.00371433597467 44.4575756346721, 47.670583057382125 23.45888967376829, 67.81790005811318 -0.6152749944139586 M18.55141340401776 66.25512798988014 C33.52804918006588 44.43919122379357, 49.46172155691407 26.810741426448523, 72.59770679850372 0.19514685586227642 M17.134060704343096 65.22296199408113 C34.63897291872282 46.85304918124807, 48.90651948953478 28.284548750107255, 75.08493072822931 -1.0185413603098823 M23.961350886675145 65.4867077834821 C38.065019915990696 47.9495232787163, 54.79422938437641 31.12720556009053, 77.813069925082 -0.8720156448472807 M22.559477841074195 65.67292357999 C39.54857112143638 45.07634896365545, 55.14488732241189 27.025259317989693, 79.84629776272652 1.0689352936531833 M27.378930879157988 66.24978138126072 C44.38082834011438 48.71388940847048, 56.04492081877245 31.245900816433412, 85.5789832763295 -1.7093811187239396 M29.036222447042373 65.37105472843733 C44.3543551719481 48.10265682649301, 59.256196880398846 29.397334454636905, 84.89388606528894 -0.03685525742341156 M35.17800944457903 63.71056726006776 C49.45106573098308 45.8416267407448, 66.07644329671172 28.153344769113055, 90.60328729035894 -1.3909654639159186 M33.28663080996975 64.97249603541553 C45.605496235405255 49.91374764865934, 60.99461898728285 35.485060241872816, 89.04866473613868 -0.57628023004726 M40.17522910802255 64.64029578108672 C58.463291768167366 43.093550635937376, 75.57409911997613 19.057561547489485, 95.13016789624513 -1.5779822744624994 M39.40453661704997 64.54306404374871 C52.046356651745256 48.6050329248054, 67.79422398900864 31.593231653143867, 95.44040930395991 0.08500952588298105 M42.59934176957278 65.74183793050109 C59.162341219335005 47.92313785574615, 73.15703776434 32.50300367630759, 100.62918428210074 1.5813338014881069 M43.91834386797665 65.292129983761 C59.051254654046886 46.887335656667304, 76.36712616683445 28.162454234451175, 100.29047949397469 -0.03749383114027438 M49.06053161734247 65.97633406016263 C64.00670510719179 51.0345030417162, 75.60846939441211 33.52812105050562, 107.98124112700057 -0.5234495801033958 M49.85409978797191 66.30549851394477 C65.98185940222267 46.46696677876848, 81.56665104116912 27.96592246034568, 107.19154145986718 -0.11608177601569736 M56.08032833040637 65.34272682603206 C69.95565199300185 46.90362370520153, 85.69814567275118 33.36359299064614, 113.16761636905737 -0.8647858173852185 M54.359158030719875 64.73119065940138 C71.31936346341163 44.62763959875825, 90.21518684622723 25.139205001594917, 111.89034555185951 -0.004402775250873958 M61.78063484687723 64.97793782996118 C76.32988664341973 49.20600343244151, 91.77520269552053 28.16071005967588, 114.79987440835538 2.002383575826137 M59.48495644644267 64.28587045362323 C73.00988202117955 49.65555037417972, 85.19047248443678 35.459661626176825, 115.9113895196453 -0.05167934852168088 M66.0696995958298 65.18169097791069 C88.42026628494588 39.53905300961547, 111.10883490772105 14.518418554609198, 121.08918901997885 0.2672577107141194 M66.46673931382443 64.68591829671168 C78.67736456839822 51.185587735699755, 89.50060453786142 38.490610001856574, 122.61999142541816 -0.36982932800404456 M70.33114426537682 65.51668912173238 C83.66125298002768 50.554685512544964, 95.4949750546894 34.98191216197604, 126.81566626704051 -0.810194935869454 M70.50633510808726 66.15385759715912 C91.73489294406326 39.363074924805744, 114.38430805104665 15.6127530756698, 126.28536255690022 0.8994128822944774 M77.60993603459308 66.83343741738699 C95.01773793832417 43.539092533331385, 111.65860839654412 22.725484918748926, 130.85825770361515 1.8802964170361207 M77.05187873291531 64.84942813006691 C89.50409740171719 50.99679204326871, 101.39780393829557 37.77827534204423, 132.70427063027563 0.7702792449752138 M80.30141534159128 63.370419966726246 C100.19265970399294 41.24573707502735, 120.72187672110152 18.521236535898787, 137.88378814281552 -0.6005185037173959 M80.58058928853069 65.37601267892742 C98.63697553296416 46.62209517990095, 115.03930355553223 25.70249595579923, 136.9838175582665 0.9193947310305504 M88.33726811544618 64.77892317571093 C102.2410083930456 48.386869906223104, 117.04599667682282 28.5477727734758, 143.2208098307353 0.2928314932762959 M86.8784923036175 64.21171039384205 C108.52283336717285 39.730800852466785, 128.8143725384288 15.929428102035232, 141.50904362407593 1.6262698385074117 M92.87455354427055 64.22321239619278 C108.11587209984347 47.58728321548379, 122.63931906750274 27.600484665747217, 143.2046892435158 7.93600612553729 M91.82319750339792 64.21576343330317 C108.21513824079125 46.991701660946454, 124.82311192022418 27.420937867883836, 142.38176427845454 6.525017654066517 M98.48167630713915 64.40535528413253 C115.23345443807732 45.28816411834503, 131.04268408693966 28.58905310402274, 141.95599252220322 15.276709933357957 M97.66362104155606 64.05963032241212 C112.27567734222238 50.04067652453001, 125.80611904854409 33.76139174132538, 141.29270557455797 13.75246014964086 M102.8274143421647 65.66539844138195 C112.75873534596514 54.48199595898815, 120.13059001774855 44.32601047885271, 141.13315906688183 19.463126402921795 M101.80276326831401 64.73341259466132 C112.41010320302391 53.13537536332897, 122.17611847750956 42.16848619220609, 141.36792776207983 19.982812305554567 M108.86689107842196 64.00619077390178 C113.06861778572394 56.42186008439731, 121.31611587745464 50.72130621610372, 143.49423765263595 24.88757964541226 M107.07743096235592 64.9769281501521 C115.60207354800303 56.46326109721567, 122.64851705610945 47.67396634134239, 141.8243114032138 25.877593789631717 M112.53060320402366 63.193560133543784 C119.87811097025929 58.018452313886385, 126.86840254656798 52.026575323751906, 141.86620934257826 33.51316313768118 M112.5410150989039 65.78613789737689 C121.54854888454226 55.278641713855734, 130.58522065717884 43.365894720162565, 141.032630285682 31.818507697864767 M118.9103928980446 64.78113667626869 C123.33473139181788 55.74633628046964, 129.68813752696877 52.048315940150545, 140.67490069078352 37.65327266068924 M117.74321308164211 63.84421911143701 C125.06612536821989 57.40449976767974, 130.02349307832424 51.18171463041132, 143.14121462566848 37.09322349285502 M121.94847559859748 64.21052950392827 C130.21186500483785 55.53713280263636, 138.53075743403812 49.758593392851814, 141.6340115103645 42.07178294128822 M123.51280651079263 66.02799207582488 C131.04130629085498 57.73376511603829, 135.93140659284728 49.645191867867695, 141.85872883589545 43.40180364559488 M128.65611493676155 64.82827847989165 C133.10589655471892 60.93544282092635, 137.72867018619291 53.556844703953345, 141.29840606386844 48.841413418449484 M130.18938755802998 64.8309797271423 C134.38812846152848 59.65004949180554, 138.55881701899773 54.70668126592057, 141.11107238341194 50.057324102534004 M134.48927486986526 65.63076376864922 C135.24141090688133 62.241101486164894, 137.77105202106534 61.488148425987866, 143.20480363563237 55.55864034030442 M134.4934622848467 64.96147233700616 C136.6520033064697 63.357403580760845, 137.7551010807766 60.83718872020165, 142.01783466924516 55.77966386318062" stroke="#868e96" stroke-width="0.5" fill="none"></path><path d="M0.47165018878877163 -0.9737369772046804 C35.93046118484053 -0.09475278577505375, 69.17913385996944 2.3962113288909315, 140.7254872377962 -0.9117943402379751 M0.500796657986939 -0.044522312469780445 C34.43304113808845 0.4146978265067446, 66.35891984212795 1.002105802895676, 140.58392537850887 -0.24430399853736162 M139.3442068155855 -0.6990548726171255 C140.90558113760756 12.60476530003034, 142.4511532396774 28.885233803366283, 141.3987087663263 63.613828087225556 M140.55590332765132 -0.8967209430411458 C140.520044761805 24.0232956768803, 139.8836451052708 49.30250705235594, 140.3943545045331 64.42925706785172 M139.03526586852968 61.86170854605734 C107.72946126165624 64.11537047934456, 71.27784938854747 64.75379171681328, 0.23412168584764004 64.73711630143225 M141.13512365240604 64.09679404180497 C96.80055035382684 64.5264347078072, 54.17451606434187 64.45262022631039, 0.2821504594758153 63.13404810708016 M1.0003327187150717 62.50988384522498 C0.8449702087908735 42.710813878456605, 0.8780339185267438 21.169764312689217, -1.6662842575460672 -1.2073960062116385 M-0.6431036470457911 64.19307220261544 C0.9241424258522238 38.33467702892631, -0.3094271067806039 13.994595263135125, 0.5893847765401006 0.19254836719483137" stroke="#000000" stroke-width="1" fill="none"></path></g><g transform="translate(269.921875 181.23373463114763) rotate(0 95.423828125 31.724609375)"><path d="M0 0 C0 0, 0 0, 0 0 M0 0 C0 0, 0 0, 0 0 M0.35821636620444564 6.642351342042081 C2.1823781294197744 5.155000114184928, 2.7192297858799606 2.9939396912271743, 5.339059189292139 0.26548076009724675 M-0.3136259313346693 6.542806831424229 C1.9002368240643435 3.9720392321419826, 2.8941953331224615 2.3095825562830754, 5.249299699770755 0.28516207335863647 M0.7409572326670992 10.926756667017518 C3.4199187099310184 8.38914826645327, 5.334297442152206 6.889133907590937, 9.762233027768266 -1.1509057004854322 M-0.44963829209100137 11.690181068747817 C4.434326599610816 7.390952563952563, 7.01137440826548 2.6975904804116597, 10.959198657375705 -0.02299891979547719 M-1.7558556432416896 19.25256196120816 C4.629513402972204 15.532649587332388, 6.323414221300604 9.500620264602897, 13.978313000410278 2.1848081412655285 M-0.22037081425546212 18.640741955396408 C5.282407086630903 12.433835619029928, 11.076571480141107 4.368580309987143, 15.125058392531653 0.7316312321391871 M-0.3009821155854251 25.252655762895106 C6.849629899536877 12.750106756177612, 17.997654591134392 6.07806271487749, 19.971112266460324 -0.6425638986587998 M0.07463915200897198 24.866863812035977 C7.2966063449768415 14.536790967768797, 15.56108963991569 7.243486219204559, 20.495844477133716 0.7059775166376951 M0.04752453701099313 31.197421531889788 C7.868101280251048 21.606299906212033, 17.436351699065504 10.498161066271962, 25.32342600510678 1.033268743568355 M0.5881428160285012 31.3823679860199 C8.524424917334473 20.596245885613108, 16.351648721895877 12.061271900353034, 25.931773429412754 0.5717874173086823 M1.1669757849443236 35.408748809063184 C10.577070164525715 23.647570919309437, 19.181230908114177 13.556203267312245, 30.140890340736902 -0.38652959640480233 M-0.36343092015949097 37.146686742828535 C11.554697190448167 23.143365550278, 22.657314953468408 10.839370654867476, 31.103575367896653 -0.6175835680902715 M2.1163237236113304 43.18313651028626 C11.807865591359407 29.763626501194977, 22.758745930636692 16.118488205648077, 37.64904590677594 1.930153112961026 M1.0549015329823845 43.27257266044222 C9.763466034292307 32.602819371233174, 18.66195207285522 21.337694762682656, 37.79504898265128 -0.35537130841049347 M-0.7695160135627575 47.99332166709833 C16.059421059271884 31.019334040319002, 27.20013766814924 13.539758928655864, 43.50431007761114 0.1461999573140389 M0.6972513655199819 48.321477370009646 C16.938676391805032 29.48521411932075, 32.69533446497738 10.81069579782256, 42.62028376720451 -0.68782968089441 M-1.2247510521906761 55.14281236514758 C13.110097931958661 35.912627974542374, 29.745275810276045 18.371517110426716, 48.60800473666775 0.7304417181935356 M0.4980205709811898 55.05183449428837 C17.115418870416804 36.60763675692675, 32.23482227705265 17.15634388125178, 48.243937786622226 0.8546960706066535 M1.7613154911528142 62.74106438597332 C21.68699017239416 37.303706729627464, 37.491951439049394 15.404662724397852, 52.41732850833303 -0.6425197687522761 M-0.3078202855681269 61.487986289427084 C12.77723641792444 46.484331709430165, 24.3947322499815 34.30663628029929, 54.09845990943229 -0.7486573061497204 M2.567375298835991 63.093885404778206 C14.953290450277617 52.481396694307115, 23.54753542179567 36.98641344893103, 57.75938452603222 1.882865028015896 M0.8446082223809341 65.40433784273782 C13.867687249919019 51.19347177801242, 26.546095471494247 36.499877909619386, 57.60436757570059 1.0596555699851358 M6.410201649236619 62.92390205198765 C21.08174516725616 49.63346090055112, 33.48696593783889 33.999865447792104, 64.14215266415258 -0.7570833058537474 M7.726431179846763 64.63957413425535 C27.109457352335607 40.56222135328231, 48.5522537692986 17.666976539660993, 62.887469028954996 0.4091620717687974 M11.502618155827413 63.100446135254856 C23.606944035489164 49.88018646481309, 37.617203766959 37.125884738161275, 68.56851730611935 0.42990351117808956 M12.8792380694427 65.92029625874227 C28.231814032116056 46.04098375724689, 43.7640698524132 26.678013320610397, 67.99914108426138 0.07029820534993547 M19.581120317995623 63.23757261522799 C29.313464513889887 48.13784985287861, 43.15045153576324 33.86021103916309, 74.84723957631978 -0.6081351852403714 M18.548954322196618 65.55278940145611 C36.604694961037644 43.62226252158712, 54.389213300614216 24.242883880861008, 73.63355136014762 -0.5520180315138532 M23.439608144166495 64.44278414844635 C36.010086143113796 51.20045948114392, 49.26530008009271 34.12212257098238, 78.40698510817913 0.007787636430137468 M23.62582394067439 65.26549738104555 C41.49986955238659 42.17785048461006, 61.950578624629514 21.09625285093791, 80.34793604667959 -0.34946000767392604 M30.24035838372728 66.21685444555816 C47.08833034728208 43.355866013037826, 63.952113856682274 24.337620966097255, 83.60729627608464 -1.0125699381621587 M29.36163173090389 65.20259600776818 C43.32842611087837 48.678382122844326, 55.9106265266919 31.56176604582921, 85.27982213738517 -0.5167191003726828 M32.32805229510322 65.42900491310269 C50.656759160559986 44.93815488474564, 69.2236370330834 22.911410359393464, 88.55261996346155 -1.153502127477978 M33.58998107045099 63.99291972527266 C54.81105137260518 42.25873702241063, 76.58640990180132 16.452616177008373, 89.36730519733021 0.5174219465385335 M37.884688848691084 65.97143759195093 C59.05270912475834 39.85004233140563, 77.71366060612783 17.9878675596917, 94.40327979469717 -1.1935320958691022 M37.78745711135308 64.49824454903934 C58.43087270948362 42.48999651657257, 77.9422651085215 19.27538910853619, 96.06627159504265 -0.9163376191826842 M45.02390763988762 65.96096389797388 C56.104648142571975 51.5526976635675, 69.57318625161226 34.67391021951191, 102.18950390321666 -0.23023531179624257 M44.57419969314753 64.1086668070486 C65.84269969606422 41.233714976860256, 86.74707446760193 16.29952062370058, 100.57067627058828 -0.6588899163876718 M49.88531180211806 66.9406333627108 C66.35016559952042 46.5932713984472, 80.3334903479927 29.208242411703665, 106.12239716340733 -0.780416189611195 M50.2144762559002 66.03798188044908 C64.42302969826568 47.22991880251898, 79.97017048393793 29.54025230492057, 106.52976496749503 -0.7291450723188504 M55.289381209769665 65.53426657180991 C73.30251136885795 43.86515394873748, 96.1346930152851 21.836291979174604, 110.40796895869441 0.19506855222532948 M54.67784504313898 64.07196714199837 C72.71154139109655 45.01771106333009, 91.36194215002419 24.203732119538046, 111.26835200082876 -0.25510458082755605 M59.551500246267686 66.4216318068105 C78.99615319705401 45.7826801530701, 93.17499936985874 22.9831882536865, 117.90204638447466 -1.054157170415671 M58.85943286992974 65.63730859784513 C76.7493400534761 44.71237562798956, 95.13679563451649 24.285252396362672, 115.84798346012684 1.2744216360665845 M65.79293003599938 65.23826840336078 C77.50191727725573 52.00734986714124, 89.74879845102274 36.378387879254475, 122.20459716114482 -1.8663600666632476 M65.29715735480036 65.79517424574696 C77.37054644543605 50.43579395150326, 90.25320592505926 37.20114965192563, 121.56751012242665 -0.6948060311561051 M70.75483621238996 65.55066339300004 C89.93513271670336 42.41269246984378, 108.4867145952986 21.400445274225476, 125.75405254713013 2.0339312700219168 M71.3920046878167 64.31014071685252 C82.29981133238876 50.61047407785077, 96.23654569067125 35.34624444994267, 127.46366036529406 0.5129218611530675 M78.10926114982674 65.7560748613765 C91.52402426315334 45.491747909011494, 107.45864937089358 25.5645283126806, 134.48222054181787 -1.8095406997119738 M76.12525186250666 65.6437666339194 C87.60198537654429 51.68214722998174, 99.77104697634186 37.76527584184061, 133.37220336975696 0.5515467482516812 M79.27315173173491 64.05770859002942 C98.50129322079272 43.90565854268753, 117.05749989537182 24.652056101524842, 136.62831365363328 0.3904141806743411 M81.27874444393609 66.02351925309623 C103.21637473170354 41.56209017500755, 122.90512620709424 16.95887880285329, 138.14822688838123 0.12216869878837144 M86.71933158250174 65.36454141460706 C110.37321713467144 38.775301190915876, 130.49191998752084 14.864931936163686, 142.0499211319636 1.5642571218291295 M86.15211880063286 65.43634782214065 C102.33635747861346 45.71367969164742, 119.1862399941979 26.672334398941217, 143.38335947719472 -0.03338022697921872 M90.7905288355525 66.26649786664866 C110.19264226067871 43.88643683518194, 126.34615824726436 23.497767614754984, 149.03703673523407 0.7608970302916305 M90.78307987266288 64.69761022220128 C103.88298846155274 51.6517005959249, 114.65820527693442 38.8155185438972, 147.6260482637633 0.9363906645975248 M97.01034836527442 65.93427353180246 C109.71189177438154 49.98588768151851, 124.94613482239227 34.2296279463784, 155.623030962832 0.04751386671007651 M96.66462340355402 65.44464632603572 C110.46693150030686 51.433160018373435, 121.86258620406674 36.67490719619384, 154.0987811791149 -1.0137959412237905 M102.89729955509276 67.09451169160774 C116.70252381986242 48.43501030015523, 131.3976144700612 29.206588065159373, 158.39867882318254 -0.5152647123762506 M101.96531370837212 65.20570463979264 C123.47386813308468 40.4005164594045, 145.7425263901153 15.963474824750932, 158.9183647258153 -0.7570587257945078 M107.27576852939475 62.929626681712705 C124.26947900199426 45.071999457269385, 142.97666141241393 27.823623826410234, 163.823132065673 -1.9735399963191327 M108.24650590564508 65.39351566122963 C127.87396568358204 43.095749096440805, 147.06010224918953 19.493945076047126, 164.81314620989247 -1.000784378857034 M111.09004592160565 66.05298053365665 C135.09630249772394 41.68449907558138, 158.23013765507287 14.702287822373407, 171.03794694872863 0.4950344214207121 M113.68262368543876 64.37421852149534 C127.35744385256316 48.95114619009414, 139.4871742944754 33.252229471370384, 169.34329150891222 -0.2177009567627124 M118.71529910611274 63.40870633308779 C135.58077481576092 41.724489316073644, 157.90342581153627 19.30618780816235, 175.17805647173668 -1.518923998508484 M117.77838154128106 65.46093434334736 C131.14404278492395 49.588638980889485, 145.02274047206689 34.45594266352056, 174.61800730390246 0.34769547574606463 M122.77159996634121 65.24688486154541 C140.76814825053117 45.05673581848167, 162.01315706297885 20.213496217568597, 178.18579814312238 1.3186499004325185 M124.58906253823783 65.98269288293436 C142.50000121533532 42.75451112511462, 160.75990722269506 21.75779084272166, 179.51581884742905 0.7480674873179112 M129.43489712667838 64.02336795467772 C147.7987632991955 44.3978385031173, 162.80270434134127 24.437595088938764, 184.12188621227304 0.9850923288919944 M129.43774054483697 65.27800588801392 C144.43305083073164 47.041987621471925, 159.75719970825793 28.765332463588805, 185.4017921955199 -0.6731903617895227 M135.25104372054943 63.374955144024014 C152.25896933898363 42.17410712105509, 173.94837921387358 22.790016670508656, 189.97943943761385 -0.9238128065908313 M134.13555800114432 65.76379373973471 C151.8228728210701 45.17776340749688, 167.84008777184945 26.691161912450916, 190.34781197574085 0.7869751220723629 M140.4467696223417 65.0192170152325 C153.604911537557 48.936555034852205, 166.17474011515358 34.88690615445442, 194.37071720257 2.7248277755233943 M139.6989481506878 64.92895881085431 C158.39583469575146 42.9401950221275, 175.7134327313368 21.029630695006645, 194.22556750315772 2.203687445052296 M145.74370921548032 65.72967184984248 C164.99718412994702 41.44537260287872, 184.69586904212022 19.566129063251672, 194.24567854455734 8.783807151551173 M145.56991280853325 64.4033121075214 C162.1852897870408 44.65564212499692, 178.50019381070322 24.10599236562912, 194.83136180932695 8.300680845576153 M149.01331459536212 64.9903185637249 C163.8503959821283 50.475491264508406, 174.45319983359536 36.532025857136034, 192.92265924195357 16.499189451917914 M149.67718556421804 64.70585620771631 C160.00408213018832 53.33640981956785, 170.04190627673623 41.26187057412099, 194.3230387292669 14.217421553678719 M157.37117848238387 66.19726544775077 C166.81914871733014 55.66885113653054, 175.5974907086941 43.10394657878729, 192.21451764015546 20.97606734249463 M154.9368046947796 64.54016400191941 C163.50093392534194 54.78635469207928, 173.3640592872686 44.83632300594115, 192.75237872751495 22.06861527234038 M161.27135713497074 63.860358908459375 C169.0615871195429 58.00794348697122, 174.0075781615243 48.26795131950942, 195.80325270955973 26.606642864152292 M160.75268607778372 65.08975743377937 C169.67639008394698 54.82485412352245, 178.96612286597048 43.70964612616105, 193.84596695610844 26.466038017041484 M165.16128355251004 65.2577164064989 C176.66594595011765 54.04834247384493, 186.2718893172639 42.96282217540815, 195.3343269585917 34.271856173430166 M166.07778639425834 65.76639043855374 C173.5586221417163 56.977805483696535, 181.33526425336515 46.92530867568138, 194.50576616761333 32.81391485643067 M170.295795243427 65.41090309840868 C177.33536297638884 59.55923066082135, 180.39117307814664 52.707344471346815, 193.0715796366386 38.9959184809765 M171.6343808967693 66.27897558489124 C180.02625423157275 53.80815503091656, 188.73474426090814 44.00750846620558, 193.87027991805746 39.05720285076556 M178.04810645710887 63.98475519483689 C181.34259087437516 58.86780237107459, 185.69176705899267 52.72949284293119, 192.71125450212566 44.92148869333056 M177.6312856413445 65.62715743304942 C181.3830569202021 58.375832839823715, 187.1833680012391 53.113224316575476, 193.5348303350067 45.7505176936948 M180.8286380037263 64.36239640236028 C183.54603673022362 62.901342951895295, 187.5143636921266 58.88739438830749, 193.99131362203102 51.03540393209572 M181.9629073769383 66.07931071927898 C185.4349247570589 61.59295346298298, 189.91579432889495 56.435682707100774, 192.7095410875749 51.7933932014976 M188.143455066859 65.45610733964146 C189.7521396601021 63.028609275035606, 191.53306629305754 60.318138916968174, 194.49463924909998 57.66678848324314 M187.72376803835036 64.74355419939981 C189.60618685759448 62.39371786515247, 191.14976302760903 60.87654955155753, 193.60566633013133 57.05501694764912" stroke="#868e96" stroke-width="0.5" fill="none"></path><path d="M-0.9737369772046804 0.7423733528703451 C68.46116587287216 -1.6471084694719687, 140.30917945598122 -0.3183294277048483, 189.93586190976205 -1.2245976272970438 M-0.044522312469780445 0.8634547712281346 C51.811521737093074 -1.736011575939083, 104.38518949728825 -0.9655833058375358, 190.60335225146267 -0.7983133969828486 M190.1486013773829 -0.07775610126554966 C188.90006220408335 24.39845401453531, 191.21100121804133 46.66623479378832, 191.01226558722558 65.30653596483171 M189.95093530695888 0.38335846085101366 C189.58444708925416 14.211087438856703, 189.9366265271299 28.72886177361288, 191.82769456785175 62.87885977048427 M189.26014604605737 64.74416423402727 C130.05742551937766 60.96462136431987, 69.59215654604267 62.196175216878004, 1.287897551432252 63.551923936232924 M191.495231541805 62.5561294676736 C117.22989824411744 63.86340446920734, 43.85107293440595 64.76456813664775, -0.31517064291983843 63.84711436647922 M-0.9393349047750235 64.81403035484254 C0.45397979425881196 40.61391447906171, 0.47231245445702363 13.31657532142053, -1.2073960062116385 1.78738415800035 M0.7438534526154399 63.99922994989902 C-0.9065866873038249 47.47220705179825, -0.5414964065325694 33.45169679560422, 0.19254836719483137 0.5022328617051244" stroke="#000000" stroke-width="1" fill="none"></path></g><g transform="translate(516.953125 179.05014088114763) rotate(0 70.296875 31.724609375)"><path d="M0 0 C0 0, 0 0, 0 0 M0 0 C0 0, 0 0, 0 0 M-0.016889499095256055 7.10712746014177 C1.8836711120828928 4.263143442588098, 3.1084658937080776 3.460409499897045, 4.892388792666144 0.638765226661902 M-0.1164340097131083 6.794055425797693 C0.8356407445319805 4.306844180502689, 2.6992302395411225 3.2055989354384193, 4.912070105927533 0.2754376672056728 M-0.9809564060438767 12.433502449512064 C3.2818507916250184 7.430902120257188, 8.582706016007846 3.2326996258831433, 9.513678973865641 0.8963583658531071 M-0.21753200431357755 12.492798372774898 C2.1923008101555306 8.658563483539623, 4.195459123815562 6.990489738129159, 10.641585754555596 -0.3154309493407844 M0.6856080470094224 19.14635407263475 C7.527085244815657 10.157987441551871, 12.064697971136205 3.6485694619610136, 17.4763008481855 1.5562080989521911 M0.07378804119767146 17.982853533607596 C3.615418099267524 14.405871783450682, 5.309015970870156 10.574682186563681, 16.023123939059158 1.2536276613292268 M1.4372296167723153 22.47118840338206 C5.172641050774573 17.661479517331355, 14.742126677118756 7.310498619640802, 20.686605450043345 0.9289008373558048 M1.0514376659131859 23.9079284823454 C6.677041825867193 16.20636032286528, 15.362516386204263 6.036337242084038, 22.03514686533984 0.3715586144640568 M0.7227545446296588 29.22511929250156 C8.583814317569804 21.590821563008355, 14.962586400179406 13.21385912405201, 26.989346124839397 0.6633683567878546 M0.907700998759772 30.77540660719221 C8.818424193628601 19.65729790755539, 18.969475912980045 9.14877854264737, 26.527864798579724 0.49826847612976444 M-1.7251590193342885 37.169611476176726 C5.967091928654873 26.454461683521565, 15.368783387143907 17.338092135116508, 31.607224426648415 1.0261314382090454 M0.01277891443106327 37.17161226347213 C8.335077067192625 26.32701429988061, 18.360478705838226 15.081323479692681, 31.376170454962946 -0.18013579107232047 M0.8007564499647373 43.435270315591026 C10.619455031775152 30.751386690343594, 20.22265952271894 17.866367663947603, 38.55081516858314 -0.7658101915288249 M0.8901926001206988 42.607674494009245 C8.302845386841376 33.29209090975155, 15.148235881921734 25.634090269725384, 36.26529074721162 0.6848457838502249 M-1.0482992343605346 50.84847053759627 C14.790578635795878 29.12397652029474, 30.109242985088045 13.272440647079172, 42.80453865471833 1.4798454985349423 M-0.7201435314492173 49.252405769796 C7.714760129875401 38.5518485800098, 16.300421343779828 28.938955430713417, 41.97050901650988 0.03517953849872413 M0.8527192317646595 52.71088917315315 C15.610921507620983 35.41371897433053, 32.086948356150856 17.421478890529563, 48.01568844816673 1.0308794852521466 M0.7617413609054537 55.1180849284337 C13.195085414734534 39.81191816213913, 24.619242261216613 26.715806114060516, 48.139942800579846 0.9127248188656019 M1.7917304114530594 62.89968219911347 C13.824142287161992 41.532885391665346, 29.346038804366565 25.572023717158977, 52.680403603003086 -1.7446249504165046 M0.5386523149068267 61.56688381591479 C11.578391527647149 47.19586696964216, 25.445744747730252 33.291208095775005, 52.57426606560564 -1.1096926624478094 M-0.28238358323955737 66.3828887359924 C16.741570383059774 46.70947830784645, 28.881947901558814 31.69620467895379, 59.83269643234016 -1.2781055816192186 M2.028068854720054 64.23252148439505 C17.609200781518073 47.34029405302638, 32.64396893358597 30.509210902694797, 59.0094869743094 -0.4218541844490922 M5.585309705752074 64.56489810952783 C21.54817389334595 47.95797439561223, 35.15833584627244 33.742646653643945, 63.23042474025269 1.2243021226047048 M7.300981788019776 63.77198125375301 C26.84193639516943 41.69273395295616, 47.492443770178134 18.89597660349134, 64.39667011787523 -0.945074659536921 M10.388761821588169 64.14133607268548 C33.80023631515195 40.31070521240629, 57.734581516954115 14.462989013999696, 69.04431958985343 -0.1180583608929382 M13.208611945075582 65.126646933595 C31.803702327000153 41.281435479529414, 50.95237853617534 18.157927922945674, 68.68471428402528 -0.625775991718875 M16.563564943343476 62.822082781426005 C27.27288112782209 50.544821547091985, 38.82811525613131 38.38387234220493, 74.04395753521713 0.16445874884857403 M18.878781729571596 64.65157079902231 C29.90553684515087 50.1343041256067, 43.41086073266896 35.74143774392337, 74.10007468894365 -1.0044137183936073 M22.395684509130742 65.20499733760121 C38.55368572714555 48.54151077459045, 50.91744894069488 29.569588258626418, 79.28678838945655 0.9919781786810091 M23.21839774172994 64.39544813352737 C41.47163028771501 43.233027516993346, 61.69552640136342 21.894110887517023, 78.92954074535248 0.2909496314312747 M30.207431448024717 64.80074114717182 C41.45097614735962 47.8225113419397, 56.484633581576325 31.765813506504962, 84.30410745664642 -1.2400730404349076 M29.19317301023474 65.53169058721151 C49.38280634005572 40.01378304822842, 69.01537992137247 17.499599822468078, 84.7999582944359 -0.02428210464287872 M34.046489948138145 64.1329545619896 C55.34509098259084 40.84282295443225, 75.17445384900546 16.131956089670474, 88.79008329989949 1.4392110683526056 M32.610404760308114 64.86485281856716 C46.65958024175712 52.22595459880535, 56.609666669971915 36.98887448695605, 90.461007373916 0.6151879193763392 M39.215830659555294 65.51778981823806 C52.1490039143716 45.89265552506362, 69.40926695568436 27.615566085983815, 94.78772997329057 0.601038786004267 M37.742637616643705 65.01641543291841 C51.604252405095664 50.02219587592849, 64.32910097532167 35.722172108939134, 95.06492444997698 -0.9443770839097283 M45.24303360736041 63.39053977710067 C62.47144597137678 44.639660928284115, 77.15987880452178 28.968901209057428, 100.37793478993231 1.5170973393718654 M43.39073651643513 65.15766372308939 C58.77416778482735 48.70314145078578, 72.07134333211617 32.47224983244735, 99.94928018534088 -0.06932089350866733 M50.84961110466623 66.6322666654292 C72.07036370928145 37.93335448621281, 96.2464445479792 12.848739751321247, 105.86543055389953 -0.8156237405838951 M49.94695962240451 64.74256641007247 C66.43378553500321 44.1622679651248, 84.09310730665999 25.414044734223843, 105.91670167119187 0.0924790781808511 M55.48092095554751 63.349335014184376 C67.67562822059894 53.31833918419385, 79.56206210693479 37.22175559044044, 111.46782332830496 0.4253440229887744 M54.01862152573597 64.69355858146902 C72.84202379004643 45.77412364525814, 89.86263194179018 25.821271739293664, 111.01765019525207 0.11803842715124091 M60.995194223117004 66.97358830021798 C77.84232403008085 43.681675022847145, 92.61064718042923 26.89415191127768, 114.84550563823285 0.6674809912733721 M60.21087101415164 64.90796833327144 C80.86086986095299 41.80563745765591, 101.97738147593539 16.8140609955949, 117.1740844447151 -0.5049513037733746 M65.84950746144946 64.28717230449074 C77.68549941218797 51.453665837065344, 87.14774476539039 39.01508952377191, 120.07097938376745 -1.7300918495466533 M66.40641330383565 64.68909012808108 C82.07128241555522 45.81306029694721, 99.94316587105865 25.10547947323481, 121.2425334192746 0.3547561157310781 M70.78881048365761 65.52271175385442 C85.28980090918859 46.862219822825836, 101.91003339647273 27.821080944237643, 128.5981787530215 -1.1499841476194845 M69.54828780751009 64.25261143689033 C86.63968436536966 46.3670008506231, 102.16841770170896 28.113726639606114, 127.07716934415265 0.20484034415704144 M77.03189859381625 64.38813367926977 C94.82215896937096 41.13949406340183, 113.01243173426906 21.296760660130914, 130.79238342506977 -1.9370032469844176 M76.91959036635915 65.15768609730057 C97.03704042677421 41.78928549772219, 117.27770328163479 17.826965795275015, 133.15347087303343 0.11519740660584432 M79.96044035503809 64.16684405758852 C92.5417361315095 51.4080724000832, 105.98700850972811 36.91522046159034, 137.61924633802502 1.702022454210308 M81.92625101810489 65.81336095530415 C92.9045709056438 51.4387307394344, 103.69585146108267 39.51818067905954, 137.35100085613905 1.2243663365698723 M87.30494982139787 65.74255116977145 C97.66530478032661 50.450636222506915, 110.75963510348251 37.06935778768441, 143.51864786298094 1.232486022370992 M87.37675622893146 63.90964922350247 C102.25617228651451 46.579090241770444, 117.825377241426 29.116089735009815, 141.9210105141726 1.68002169459605 M92.83381430600838 65.69944224267029 C110.34190321543736 42.142215165173276, 129.85094490394334 23.160741000806, 142.7497826010788 5.137469050017728 M91.26492666156099 65.9239571228879 C107.36428580325237 47.370910343806436, 123.6747101245742 28.47764466317298, 142.9252762353847 6.390690629845096 M98.53926661294436 64.34700680724578 C113.62248512903302 48.244060865307546, 128.86991601638493 30.091503722078876, 142.16954481836487 11.659597952442887 M98.04963940717762 65.55215724106179 C107.84153030692171 53.73274455657496, 116.87255477219918 42.003791494287476, 141.108235010431 13.173859176750007 M104.32641280531854 63.820213340349696 C112.98297582701545 51.96534686175008, 121.0453780381953 42.3504819692657, 140.98520203992337 21.429478090829967 M102.43760575350345 65.21501517401656 C115.93095944616849 50.4189476650464, 129.8561105276938 33.68427718314202, 140.7434080265051 19.790656378134905 M106.19920443720568 64.10433262294276 C115.78524008987789 56.79867052399278, 125.90756254476065 45.053438168901536, 140.3161311658386 26.509355451362424 M108.6630934167226 64.48926288435354 C117.34051880514501 54.16984784505975, 124.87533801574475 45.721267053850696, 141.2888867833007 26.39576596432387 M113.94946632171852 65.13511438187676 C123.00744619736277 57.131402135997526, 129.50667815282466 48.09794538622782, 142.1631413842233 30.71974538589209 M112.2707043095572 65.61402534306514 C119.91931638505059 55.27922806982668, 127.39963082094565 47.48264927528278, 141.45040600603988 32.27030509380936 M117.34286876293184 62.82361064811241 C125.34239054722073 57.18282695890526, 132.56935966799315 46.92850706525357, 140.9383873741522 36.41896555037964 M119.39509677319141 63.9218938877527 C127.85916847521703 54.15294369286395, 137.32732084997704 44.26917964351104, 142.80500684840675 38.00760729169268 M123.80795532395835 63.15635239850148 C132.709762635581 56.99141040405334, 137.255952635649 47.3923278358885, 143.15439707373807 44.60331254667686 M124.5437633453473 65.34535286440864 C128.968702981004 57.646072762344744, 135.668010591401 50.37759734334035, 142.58381466062346 44.019649091466235 M128.65488261967153 66.14310022683703 C133.34638620314126 58.72957072488647, 137.84830409824625 52.85443510182057, 142.89341503019517 49.719226975239835 M129.84678865634092 64.83939629488513 C133.31443828341156 60.52645853317528, 136.36661420473106 55.336875590267965, 141.31804647404772 50.703653182102386 M133.2661588415564 64.59696127126229 C136.56693401149758 62.89856896872455, 140.91131371404535 58.13864770149246, 141.5026207585686 55.88898159596924 M134.69946199898283 65.57367340183121 C135.96662031471598 62.83511834336297, 138.3988053829013 59.913270684817554, 142.52909351576653 55.55544429659699" stroke="#868e96" stroke-width="0.5" fill="none"></path><path d="M0.7423733528703451 -0.8958835955709219 C32.969775098070386 2.279587184789416, 68.46537104187883 -0.22728767454362242, 139.36915237270296 -0.5520672556012869 M0.8634547712281346 -0.1747380467131734 C35.50351337620815 0.47526551836373976, 72.55770791411052 -0.18170840984937975, 139.79543660301715 0.6140142409130931 M140.51599389873445 -1.3647641893476248 C141.66515330657685 14.152641883919934, 141.00229607209886 26.57754345584472, 142.4510672148317 62.00849589146674 M140.977108460851 -0.9037362607195973 C140.31669538638872 14.888479801893482, 140.370341086605 31.860111567326385, 140.02339102048427 63.65091854613274 M141.88869548402727 63.762678230181336 C93.89127034165722 63.28512940397224, 49.41777670258307 63.62114623775444, 0.10270518623292446 65.13126339949667 M139.7006607176736 63.136471572332084 C83.89698043728421 63.97310747765732, 28.720387749973455 64.04449849390221, 0.397895616479218 64.26852181833237 M1.3648116048425436 64.27019610442221 C1.0805236671157399 41.583787537986424, -1.9836359050087413 16.832340290520364, 1.78738415800035 -1.1793091651052237 M0.5500111998990178 63.039849075488746 C-0.275514092930498 39.39800360333429, 0.9974290163434125 15.627895611343405, 0.5022328617051244 -0.7175326319411397" stroke="#000000" stroke-width="1" fill="none"></path></g><g transform="translate(730.75390625 179.92514088114763) rotate(0 82.771484375 31.724609375)"><path d="M0 0 C0 0, 0 0, 0 0 M0 0 C0 0, 0 0, 0 0 M0.4478866190044334 7.115124250252835 C0.6599401582623227 5.257856601724024, 2.91935688256319 2.979185130312584, 5.265673259230799 0.2532507691380792 M0.13481458466035628 6.014954427306645 C1.1668961253208847 4.298672096738453, 3.583914363974189 2.1909986259417744, 4.902345699774569 0.4686282574978881 M0.5257893764506685 11.759169243692934 C2.646680787463805 10.041911013315412, 5.577966130780324 3.682864535047832, 11.56094304020418 -1.2198954065248608 M0.585085299713503 11.632681063979446 C1.8053918544537653 8.647278133036504, 5.18036116690153 6.772000037031771, 10.349153725010288 0.498070869137323 M0.5794001584360142 20.38536474565106 C3.522449030789126 13.0218403623577, 8.92517957873551 8.103258583760544, 16.84770080587216 -1.5964344081538746 M-0.5841003805911402 19.050845365878814 C4.94402741686431 11.278990841883633, 10.215767757741357 6.366484770049517, 16.545120368249197 0.5432610937324336 M-1.344237742740729 22.26027734921789 C8.16138800730312 17.43348483160632, 12.116787860579636 8.348690427203264, 22.25807018605795 1.10317299833293 M0.09250233622261028 23.14062898857063 C8.892170958204387 15.120076131174685, 15.217334567062949 6.666620737792844, 21.7007279631662 -0.3632682092324373 M-1.2495476947585686 32.223721783373705 C9.465785267790713 19.69440302045505, 19.439295811108273 7.700573818528138, 26.619445738058896 1.2017980752524675 M0.30073961993208087 30.142689215716175 C6.743896294873954 22.760398574081982, 13.819659801499975 14.065676523769088, 26.454345857400806 -0.33454117141545403 M0.035703647779254055 35.771415713989484 C10.346255357342509 23.65030399255471, 22.28999481560267 8.578126772289576, 33.01988546126226 -0.413066716747057 M0.03770443507465515 36.351419250295805 C9.615334180887265 25.76055583329947, 18.786708101113724 13.510184853579311, 31.813618231980897 -0.13849135755903674 M1.052890255269503 42.18618618193619 C12.541278789630292 27.320041262337902, 23.883178057347003 17.163298407118553, 35.85485186409329 -1.6104812211263457 M0.22529443368772206 43.30828260778986 C12.483772931422173 27.45577369518753, 26.45048910724751 11.972896835561059, 37.30550783947234 1.0041063009854874 M1.8068496361374073 47.739598343753144 C10.307240111531698 33.676848943532775, 24.659875813157857 22.203719729818033, 44.13818419593923 -2.1162342272372 M0.21078486833713583 48.09719185684703 C11.38461515234181 34.48589637284257, 23.69873695793751 20.870202517340577, 42.693518235903014 0.41320886447569194 M-1.5792039602297692 53.346488410088526 C16.55649939341338 34.4093944789319, 33.94400803378888 17.929614282782516, 48.31612621522534 -0.5376668285403206 M0.8279917950507851 55.09279155772488 C13.774853253566972 37.76714084319288, 28.94788548031723 22.678683568527745, 48.197971548838794 0.018432026560251558 M1.9503482245932133 59.54014028748165 C10.302728513762863 45.12489714234984, 24.13102834203415 30.80773345107046, 51.57829842133886 -1.4638490643874995 M0.6175498413945348 60.02938490407209 C16.71645044225118 42.63858602566081, 33.25633950602523 23.16962256214238, 52.21323070930755 -0.6473765275032513 M3.006619747974632 65.86268977613517 C16.540634946271876 44.931321725613714, 34.77088559538993 28.574278729933134, 56.67172582270504 -0.4904032782394445 M0.8562524963772873 65.48508792070069 C14.003413687918144 50.727313592054145, 27.13775781093725 36.58253906568597, 57.52797721987517 -0.379210479066149 M7.2263057632922525 65.0855916314745 C22.743409761928326 46.72706345884346, 40.61184233366339 27.166321743088638, 65.21181016871114 0.6803192405520448 M6.433388907517433 64.19604652514548 C18.775148983712835 51.52934591321198, 30.430532434662517 37.50559604731683, 63.04243338656951 0.6936684821291337 M11.429651759018789 64.93950578615284 C33.663125342973956 43.59279356186029, 53.843717276844124 18.236163191583863, 68.4963577177824 1.2144148985262646 M12.41496261992831 64.88007274966901 C30.843325299809038 41.30130355411598, 50.038590962707694 19.847338717779238, 67.98864008695647 -0.8233427002687321 M16.14807510954149 62.71231532581835 C35.448317280927796 41.9580295195549, 54.93238537346659 22.109393056173744, 74.81655146930608 -1.9537488436685635 M17.977563127137795 63.92841271702885 C29.427095796477243 50.91721301202957, 41.048488120734085 36.01342082689439, 73.6476790020639 -0.5966150910021497 M23.157897698285606 65.99785103201035 C43.34561496483679 40.93558781326759, 61.2445383268939 19.74193070894576, 80.27097893170742 0.8536431705068281 M22.34834849421176 64.24822118337366 C37.560667183118376 48.571494253260454, 52.65157240623843 30.890353621072755, 79.56995038445768 -0.49536112142247646 M28.791318149638382 63.59571474037703 C40.65685560837821 49.27431884206619, 53.5126753884913 32.55435595865157, 84.07660435437367 0.9576771517006648 M29.522267589678076 65.25613489646103 C46.6930884242446 41.9833185090431, 66.93058356811787 19.714068898333515, 85.2923952901657 0.4019387687278879 M32.750439597025064 66.4864559824577 C54.74513887034935 40.86970832367803, 75.2648647825991 14.485565947123376, 91.38279649573008 -1.7021129935477717 M33.482337853602615 65.94719923743963 C49.6401905576526 47.17782777124363, 63.19844653547622 31.195798354745357, 90.55877334675381 -0.12353722690239977 M38.76218288584242 63.486104924123325 C59.13840780115224 39.740937037050884, 80.83225293746861 14.508351707026407, 96.58230085516394 -1.6679223045902631 M38.26080850052277 65.64315115928981 C60.32846861210842 40.582598963952165, 83.0211302384159 15.185085694825752, 95.03688498524994 -0.4373789230557463 M42.6726094864872 66.44780110624491 C54.843149905626035 50.48444514628609, 70.12720057976291 36.07548144323043, 102.12526744110042 -0.9884981248875206 M44.43973343247591 65.28779792749195 C59.18888022119074 47.6597542812207, 74.19028692900521 29.913647448565612, 100.53884920821989 1.0169824989165122 M50.54124440738463 65.46342218536171 C64.52061885792094 47.36910024236427, 82.14267979298953 26.09125583320774, 105.83022300292683 -0.31931674379134023 M48.6515441520279 65.74239586069467 C68.48920776628353 41.955953150237, 90.24397553668696 16.844418275140157, 106.73832582169157 -1.2881521507280453 M53.29598939792198 66.51811687212195 C76.94635595379914 43.21705901949586, 94.54905894482634 18.107675793173122, 111.6980987990684 0.05259324523756703 M54.64021296520662 65.53393326915558 C69.39174399103405 49.82477392282591, 83.09382403818825 32.77566530839268, 111.39079320323087 0.1041765716592451 M61.54715071652449 66.46548157306492 C80.67921746873624 37.758857923490424, 106.3028486722151 12.080090145233811, 116.5671437999219 1.8631838830701994 M59.48153074957795 64.92405709652334 C75.60870909963627 47.638132371335814, 89.76227580195814 31.823642594383607, 115.39471150487515 -0.6161303184412432 M64.89841136257942 65.92738374883884 C83.6313372676994 42.627111230558505, 102.77174968913658 20.278604143856853, 120.20724760088405 0.07301658557750557 M65.30032918616976 64.90264627805554 C88.61056868038332 39.308459057733934, 110.07230881286276 12.164926081821719, 122.29209556616178 -0.23085149304918673 M70.760858844512 64.26913855598298 C86.68280999778814 46.09479967139984, 102.23560543869388 28.901674012435727, 125.4142633353801 0.06889088429880275 M69.49075852754791 65.25673838240084 C87.16995811275609 45.537199783928614, 104.55853358193555 26.712160867734887, 126.76908782715662 0.8019334289841069 M75.66395741170952 64.49933220514558 C95.90562770322589 38.622133751934854, 119.63729048072918 14.272307700979539, 130.66492087779733 1.318377364882295 M76.43350982974032 65.56410296981684 C99.13441774806833 39.08586788345714, 121.24125680584146 14.060744001392095, 132.7171215313876 -0.9038731795837833 M80.06957582259719 64.24499860286588 C95.97708380975273 49.05105392834717, 110.07242183956124 31.952151625546016, 138.930854611561 -1.6550056911327573 M81.71609272031282 65.26216823395217 C94.35072041901338 48.19255384953707, 109.4534023513711 32.55054415132334, 138.45319849392055 -0.5934603126042219 M87.68295957656225 64.65144270979215 C107.091681293819 41.41736629530142, 128.40918927629883 17.115677072111872, 142.9895756610583 -0.3719689480980861 M85.85005763029328 64.64159436006446 C104.30954990342146 43.85070450985298, 122.57733562165134 24.003311951852226, 143.43711133328335 0.622465027680434 M92.26675868203 65.35741718246364 C110.45784774305699 42.673379089294, 133.15608592083657 19.07843194330409, 146.2384996597145 0.5777246255255477 M92.49127356224761 64.91520016680234 C109.77172795582328 45.58352500528934, 126.57368406265641 26.142292020797427, 147.49172123954187 0.8366044724187987 M96.95199988838768 65.39494573152857 C119.19595834612784 41.390612067175724, 139.35206866345874 18.580796072743468, 152.00591898191692 -1.5649168846136234 M98.15715032220369 65.2115364644234 C116.66594544134779 42.43630148339432, 135.11856830364871 20.986191164177377, 153.52018020622404 -0.6613583556315206 M101.0521144540605 66.16449976352622 C118.4814097578243 43.04472777072108, 138.2175087860128 21.95450861366767, 160.3650305110907 1.2470623030236823 M102.44691628772736 64.64381269657632 C117.32846777240178 48.97420070781805, 130.1669775619895 32.5871641254587, 158.72620879839565 -0.31583120032186685 M107.37391037843574 64.33482173910483 C129.10826994161621 44.3937939834913, 146.2889027130282 18.987000330773654, 165.44490787162317 -1.233610975914317 M107.75884063984651 65.30347029851868 C118.65391871270818 50.70392097181673, 131.4904075578103 36.79712434979623, 165.33131838458462 -0.311739813894647 M113.03160016993863 66.81810181480365 C130.03517470954182 47.325530809304865, 145.67851793432902 30.105302489773194, 166.93241113895854 0.9361569705572066 M113.510511131127 64.32910933889913 C125.5946936008155 48.59217912666038, 140.45131229690895 32.92830870903785, 168.48297084687582 2.003817845244342 M116.75777307795646 63.66980120127093 C135.4573388201014 45.718206494472355, 149.55457053688284 28.256348692487272, 166.7271000425315 9.54435962920033 M117.85605631759675 64.90006187797528 C128.78560360633875 53.35790564441447, 139.31369826425356 41.15858787106971, 168.31574178384454 8.86985455096655 M121.71742286091443 67.06382880504593 C133.11814083696945 53.75794333993514, 140.9458264823861 44.37112975087011, 168.2522061976914 15.123713639772149 M123.90642332682158 64.30531860939577 C135.5424774991701 49.97342286463312, 147.91670107414765 36.14364892227722, 167.66854274248078 15.105067167638452 M130.81892001819983 64.19236458677688 C138.76670331828726 52.435816338369776, 148.358570501739 42.212595082700766, 167.332306699835 20.455092918143677 M129.44660008982942 64.9371022184182 C144.94204074784312 46.14933159573842, 159.5650338391527 28.73453338427138, 168.3685448123219 20.705020773240435 M133.52803955823788 64.24103620300305 C146.60145568467573 54.82845574964929, 154.69746403783233 39.723400029826294, 167.56794218238747 25.99560949585417 M135.15589310918608 64.35979402369124 C146.04983681418037 51.58135975694324, 156.60558619327443 39.41748349706291, 167.0120466834337 26.363979498921125 M141.17893323041588 63.288742364372666 C150.80485604955484 52.47212541527469, 159.39695993681272 42.80398896880101, 168.9905300197361 33.53314645855187 M140.32514969091952 64.30350733547246 C148.20106699387858 53.25190735327373, 158.4491995205058 43.35724401644987, 169.02563784934412 32.22318946743815 M145.788157293159 63.282829477425025 C151.72748348860495 57.019628117379064, 156.08837084753253 52.466479039056594, 168.87639209530613 39.161534587776046 M145.07703571259552 64.73301409741055 C151.81359149451976 55.13478551751436, 161.1889286082311 46.93466511097512, 167.886476375119 38.93980543494014 M150.70958571686404 65.69362458303108 C152.98428567404835 61.46544878258913, 158.85792374027258 55.82108696828496, 166.40166800449435 44.93508529939768 M149.4271988262515 65.59602782498582 C154.69021910645787 59.178845009882224, 161.90319872200453 51.67675417702032, 167.18345210029577 44.43517372940746 M156.66852951068842 66.62875273654245 C158.33347127648088 62.14140985598107, 159.7272046560544 58.20899366291493, 166.79929521546063 51.99822615819544 M154.82183237146066 65.11114507320345 C159.24919675833834 61.49496152106183, 161.93197162975005 57.67774972551663, 167.1613607204642 51.16221818487652 M161.41664721272784 65.9577023209667 C162.942703080258 61.99127384395844, 166.99464211512998 58.920154843607506, 167.4047719033418 56.54356515772492 M160.47956585950115 65.20370071606135 C162.45390218264012 62.69107722200541, 164.15194845854472 60.85215188589373, 167.87965571614745 56.76009309866317" stroke="#868e96" stroke-width="0.5" fill="none"></path><path d="M-0.8958835955709219 -1.197041803970933 C55.161889767274594 -0.4827362059790534, 106.22182415612109 -1.8390710710722846, 164.9909014943986 -0.8384951297193766 M-0.1747380467131734 -0.7802528915926814 C58.36589710499935 -1.4392132835957083, 115.66215035210982 -2.227702059087423, 166.15698299091298 -0.9185768840834498 M164.17820456065226 1.467816000804305 C166.26737114695555 15.87559744905193, 165.48580565957076 31.998594580282955, 164.10224589146662 62.31611449085176 M164.6392324892803 -0.2530411956831813 C164.4224494944288 18.59523595025203, 165.95404463512438 37.0189039119221, 165.74466854613263 63.700077873654664 M165.85642823018122 62.451786583289504 C129.7317633363181 64.75518603482404, 93.30469403876845 64.62376953520932, 1.6820446494966745 65.42649460397661 M165.23022157233197 62.8302055420354 C106.53145630360261 62.252922697924625, 47.97789653261495 62.36866785492803, 0.8193030683323741 64.02763022202998 M0.8209773544222116 64.84709406457841 C1.1373103438833279 39.57465239282719, -0.909395676948734 20.820038708746864, -1.1793091651052237 1.5672912057489157 M-0.40936967451125383 62.76566041726619 C-0.5162485980693965 49.08428029957322, -0.2794208371345668 34.04280515777136, -0.7175326319411397 -0.017676430754363537" stroke="#000000" stroke-width="1" fill="none"></path></g><g transform="translate(52.03515625 200.64193775614763) rotate(0 28.5 12.5)"><text x="28.5" y="18" font-family="Virgil, Segoe UI Emoji" font-size="20px" fill="#000000" text-anchor="middle" style="white-space: pre;" direction="ltr">Client</text></g><g transform="translate(281.890625 200.95443775614763) rotate(0 81.5 12.5)"><text x="81.5" y="18" font-family="Virgil, Segoe UI Emoji" font-size="20px" fill="#000000" text-anchor="middle" style="white-space: pre;" direction="ltr">useLocalStorage</text></g><g transform="translate(566.234375 199.02865650614763) rotate(0 21 12.5)"><text x="21" y="18" font-family="Virgil, Segoe UI Emoji" font-size="20px" fill="#000000" text-anchor="middle" style="white-space: pre;" direction="ltr">SWR</text></g><g transform="translate(742.171875 199.64584400614763) rotate(0 70.5 12.5)"><text x="70.5" y="18" font-family="Virgil, Segoe UI Emoji" font-size="20px" fill="#000000" text-anchor="middle" style="white-space: pre;" direction="ltr">Local Storage</text></g><g><g transform="translate(78.16560561490314 245.44398009623592) rotate(0 -0.45306635197252376 123.93969065382123)"><path d="M-0.547076604142785 -0.7347585763782263 C-0.8983772400766592 40.47554113295234, -1.205508411303153 205.91996235234322, -1.1507555041462068 247.3408405986611 M1.3665694493427871 1.4938892256841063 C0.744522266425194 42.857619483921, -1.9334813177212982 207.34979664208026, -2.272702153287817 248.61413988402077" stroke="#000000" stroke-width="1" fill="none"></path></g></g><g><g transform="translate(361.2636026404898 245.25693737329607) rotate(0 -1.291458206709592 123.74816868735456)"><path d="M-0.7347585763782263 -0.33124035336077207 C-1.156448871093543 41.26778622381695, -2.2399876678861763 207.41149736756122, -2.4510994256141885 249.04708285892352 M1.0803544416837396 -1.5507454842142763 C0.4497056588616952 39.743101693115456, -3.0173490353241648 205.7009297684174, -3.663270855102996 247.24001000467658" stroke="#000000" stroke-width="1" fill="none"></path></g></g><g><g transform="translate(584.4519270692058 243.59310963114763) rotate(0 0.6822396892123379 124.77470511181252)"><path d="M-0.33124035336077207 -0.5030970778316259 C-0.16684519276183585 41.261506187946765, 0.2383402846673257 208.15291114912017, 0.4392943594508323 249.85286101829212 M1.6957197317853572 -1.8128269890323283 C1.8025464555232553 40.21576055757072, -0.01942297165154136 209.24276538108123, -0.19324920964460035 251.36223721265742" stroke="#000000" stroke-width="1" fill="none"></path></g></g><g><g transform="translate(809.9925477867214 244.46635582267595) rotate(0 0.2818907941085058 124.85201054222864)"><path d="M-0.5030970778316259 0.6009559895843266 C-0.3629310014797814 42.295023906091195, 0.030725201987441664 208.62320681889523, 0.10623788173284088 249.83316714568042 M1.4336382269673051 -0.1291460612230002 C1.475399547130757 41.278935885382786, -0.47661622322652103 206.78527031569723, -0.869856638750325 248.25456890277542" stroke="#000000" stroke-width="1" fill="none"></path></g></g><g><g transform="translate(78.96331660058343 293.4941313979016) rotate(0 140.79241788983347 -1.101598348886796)"><path d="M0.6009559895843266 -0.05342677496373649 C47.6774154859595 -0.3278722491267596, 235.53516471823676 -1.9178609934465463, 282.12751662489023 -2.1497699228097646 M-0.5426808452233671 -1.1270797771587968 C46.49540364423766 -1.1714840037155425, 234.5400325578637 -0.32237436007870945, 281.7234476671367 -0.7224296410177793" stroke="#000000" stroke-width="1" fill="none"></path></g><g transform="translate(78.96331660058343 293.4941313979016) rotate(0 140.79241788983347 -1.101598348886796)"><path d="M253.45499190663602 11.296262451269797 C260.91368531803494 5.064278618848013, 269.76447810297765 3.8016882014782434, 281.234839670062 -2.3190564349834766 M253.19450909526702 9.530474858180753 C263.14027168681093 6.759852994894834, 274.47982050823623 2.7089595077087143, 281.8057523357495 0.20622896639807564" stroke="#000000" stroke-width="1" fill="none"></path></g><g transform="translate(78.96331660058343 293.4941313979016) rotate(0 140.79241788983347 -1.101598348886796)"><path d="M253.4322914268158 -9.22493359267596 C260.8111337578867 -9.86712631424016, 269.6681100771957 -5.539811937508057, 281.234839670062 -2.3190564349834766 M253.1718086154468 -10.990721185765004 C262.93727222952816 -6.3448117485627735, 274.28502503668807 -2.9793157614099535, 281.8057523357495 0.20622896639807564" stroke="#000000" stroke-width="1" fill="none"></path></g></g><g><g transform="translate(362.5546875 308.9602971311476) rotate(0 110.8904748913925 1.4665716228074643)"><path d="M-0.05342677496373649 1.0361457254737616 C37.2506834619989 1.1614462322245043, 185.97491756218176 1.1459044919659696, 223.3215643439442 1.3527590300887824 M-1.5406145611591637 0.5345182860083879 C35.6311478863967 0.7296763382541638, 184.75320853837457 1.8896162947205208, 222.2634339108877 2.3986249596066775" stroke="#000000" stroke-width="1" fill="none"></path></g><g transform="translate(362.5546875 308.9602971311476) rotate(0 110.8904748913925 1.4665716228074643)"><path d="M195.69636449589478 12.02164879124533 C199.66098273333526 10.635406531139955, 208.50381478296293 6.747803328108908, 220.666807116922 3.6266534414328637 M193.93057690280574 11.688742789997864 C200.65484248473447 10.867408329505874, 206.2125880518246 8.40092639906284, 223.19209251830355 1.678263530340046" stroke="#000000" stroke-width="1" fill="none"></path></g><g transform="translate(362.5546875 308.9602971311476) rotate(0 110.8904748913925 1.4665716228074643)"><path d="M195.905698709833 -8.49849208479921 C199.919057148757 -4.58908719181, 208.70786522014674 -3.1809500413136265, 220.666807116922 3.6266534414328637 M194.13991111674395 -8.831398086046676 C200.69240138061392 -5.382354670923641, 206.20657564051973 -3.577727045240356, 223.19209251830355 1.678263530340046" stroke="#000000" stroke-width="1" fill="none"></path></g></g><g><g transform="translate(366.1764374408872 361.97352606616937) rotate(0 223.0361939029396 -2.693589184274856)"><path d="M1.0361457254737616 -0.20968565605580802 C74.89115457540998 -0.7532645301303432, 369.79444620789343 -2.665969506542467, 443.73100908920173 -3.3149000194109477 M0.120983502008021 -1.365374570824206 C74.29346086042624 -2.2665805112725663, 371.9909623534729 -4.9151062376827825, 445.95140430387113 -5.177492712493936" stroke="#000000" stroke-width="1" fill="none"></path></g><g transform="translate(366.1764374408872 361.97352606616937) rotate(0 223.0361939029396 -2.693589184274856)"><path d="M417.4804349592141 3.711002285303908 C428.5046660079207 1.3510597489517604, 437.03548111064555 -3.8839005033685616, 447.1794327856973 -7.0146464806608355 M417.14752895796664 6.0054160688914235 C425.01901755348274 3.20304419123334, 431.30773177377785 1.2473470666820496, 445.2310428746045 -5.744044842068056" stroke="#000000" stroke-width="1" fill="none"></path></g><g transform="translate(366.1764374408872 361.97352606616937) rotate(0 223.0361939029396 -2.693589184274856)"><path d="M417.3431263375107 -16.80974693903598 C428.40629003052373 -11.986978042837817, 436.98517408964574 -10.038041264762423, 447.1794327856973 -7.0146464806608355 M417.0102203362632 -14.515333155448463 C424.8425972169947 -12.44350499950677, 431.1639253711803 -9.525055473373753, 445.2310428746045 -5.744044842068056" stroke="#000000" stroke-width="1" fill="none"></path></g></g><g><g transform="translate(812.86328125 356.0516420950298) rotate(0 28.852277136267844 25.7100284572507)"><path d="M-0.5895191668269406 -0.9363034699112176 C8.78015574869799 -0.8305415078651466, 47.445104138502316 -6.822330971046499, 55.78478920741471 1.6707174977501875 C64.1244742763271 10.163765966546874, 58.810102224700614 41.92928712040436, 49.448591246647446 50.021987342868904 C40.08708026859428 58.11468756533345, 8.168958490311738 50.07895369470438, -0.38427666090428825 50.22691883253745 M-2.1587428655957055 1.1865332630462944 C7.1009159465423455 2.0149686370577355, 46.64877175018697 -5.07304734129753, 55.09672579948324 3.2019532374320576 C63.54467984877951 11.476953816161645, 57.67019383724452 42.911516227519776, 48.528981430181915 50.83653673542381 C39.38776902311931 58.76155724332785, 8.350188058640445 50.71144648978806, 0.24945135710760935 50.75207628485627" stroke="#000000" stroke-width="1" fill="none"></path></g><g transform="translate(812.86328125 356.0516420950298) rotate(0 28.852277136267844 25.7100284572507)"><path d="M27.915275954533755 44.80824983783409 C20.87680445135321 45.443844460741715, 10.662050167541391 49.16109293780951, -1.5877024110592903 49.50253310044177 M30.20968973812127 44.45599739078775 C22.12927071985903 45.65992835905865, 14.909091262992499 46.65141121859004, -0.3171007724665107 50.714229612507594" stroke="#000000" stroke-width="1" fill="none"></path></g><g transform="translate(812.86328125 356.0516420950298) rotate(0 28.852277136267844 25.7100284572507)"><path d="M25.428749784393666 65.17825695592435 C18.94927974438336 59.79788633285794, 9.46941272210244 57.49482465669098, -1.5877024110592903 49.50253310044177 M27.72316356798118 64.82600450887801 C20.30971095068592 60.64788858764357, 13.748578433105093 56.24035694830521, -0.3171007724665107 50.714229612507594" stroke="#000000" stroke-width="1" fill="none"></path></g></g><g transform="translate(884.03515625 364.3392033811476) rotate(0 32 12.5)"><text x="0" y="18" font-family="Virgil, Segoe UI Emoji" font-size="20px" fill="#000000" text-anchor="start" style="white-space: pre;" direction="ltr">remove</text></g><g transform="translate(635.7734375 328.5618596311476) rotate(0 32 12.5)"><text x="0" y="18" font-family="Virgil, Segoe UI Emoji" font-size="20px" fill="#000000" text-anchor="start" style="white-space: pre;" direction="ltr">remove</text></g><g transform="translate(452.203125 276.8860783811476) rotate(0 34 12.5)"><text x="0" y="18" font-family="Virgil, Segoe UI Emoji" font-size="20px" fill="#000000" text-anchor="start" style="white-space: pre;" direction="ltr">mutate</text></g><g transform="translate(173.71875 260.8157658811476) rotate(0 32 12.5)"><text x="0" y="18" font-family="Virgil, Segoe UI Emoji" font-size="20px" fill="#000000" text-anchor="start" style="white-space: pre;" direction="ltr">remove</text></g><g><g transform="translate(587 422.9251408811476) rotate(0 -113.79380604363979 0.1380768392234586)"><path d="M-0.9579760763794183 0.7368170890957118 C-38.72761715389788 0.7089006536950668, -189.131502578035 -0.37826203567286326, -226.62963601090013 -0.46066341064870353" stroke="#000000" stroke-width="1.5" fill="none" stroke-dasharray="12 8"></path></g><g transform="translate(587 422.9251408811476) rotate(0 -113.79380604363979 0.1380768392234586)"><path d="M-197.1600525784889 -12.417825774320074 C-208.10706805678518 -8.479122942199536, -215.38000120004068 -6.11877220567248, -225.16182001009582 0.485511413961649" stroke="#000000" stroke-width="1.5" fill="none"></path></g><g transform="translate(587 422.9251408811476) rotate(0 -113.79380604363979 0.1380768392234586)"><path d="M-197.26230515902745 8.10312807279952 C-208.1286118116657 5.9065221072518765, -215.37096964004965 2.1307477500615537, -225.16182001009582 0.485511413961649" stroke="#000000" stroke-width="1.5" fill="none"></path></g></g><g><g transform="translate(361.8203125 443.6634221311476) rotate(0 -141.053834576346 -2.2171941718087282)"><path d="M0.7368170890957118 -1.1022922609001398 C-46.355069818161425 -1.497978928623102, -235.69811439495533 -2.8938911807412997, -282.84448624178765 -3.3320960827171917" stroke="#000000" stroke-width="1.5" fill="none" stroke-dasharray="12 8"></path></g><g transform="translate(361.8203125 443.6634221311476) rotate(0 -141.053834576346 -2.2171941718087282)"><path d="M-256.4076318944833 -14.610620525777401 C-263.1410528108148 -10.501544651003158, -271.59821923845794 -6.192290193613932, -281.8983114171773 -2.5271373163908835" stroke="#000000" stroke-width="1.5" fill="none"></path></g><g transform="translate(361.8203125 443.6634221311476) rotate(0 -141.053834576346 -2.2171941718087282)"><path d="M-256.5759883175609 5.909897462339961 C-263.0991972774735 4.3631086679213, -271.50996979292705 3.017532188530809, -281.8983114171773 -2.5271373163908835" stroke="#000000" stroke-width="1.5" fill="none"></path></g></g><g transform="translate(449.8828125 392.9759221311476) rotate(0 20 12.5)"><text x="0" y="18" font-family="Virgil, Segoe UI Emoji" font-size="20px" fill="#000000" text-anchor="start" style="white-space: pre;" direction="ltr">sync</text></g><g transform="translate(170.8984375 412.4485783811476) rotate(0 44 12.5)"><text x="0" y="18" font-family="Virgil, Segoe UI Emoji" font-size="20px" fill="#000000" text-anchor="start" style="white-space: pre;" direction="ltr">re-render</text></g><g transform="translate(257.58747438524597 10) rotate(0 183.685546875 59.970703125)"><path d="M1.972586794583569 2.0704835184696626 C107.68245935429603 -6.137285860353898, 219.42806044750967 -3.249719434226815, 366.2250071300422 0.8883792152966898 M0.9813652274796724 -0.8724960849782443 C98.13514801313362 2.3057973663595392, 196.46510871418948 2.21863734365125, 368.0636095913956 -1.2323339801986222 M365.0366640202701 2.7425162084400654 C369.21935371866823 47.00826365511057, 368.28464953413607 91.85328432565802, 367.5993727557361 123.19729213789105 M366.9554808381945 1.949134236201644 C366.31518305367536 25.455143880781183, 366.5091653568179 51.76499225521912, 366.5171030405909 120.95587236247957 M367.1780480880562 121.4001715095053 C233.03769184610542 120.99012218811944, 97.98790236283014 121.2214540024617, 2.0913426332064464 121.40425975839239 M366.8328637878536 119.19308566323765 C282.9487737560001 118.63527144415893, 199.36280482933864 119.4667645246021, -0.8344396027773113 118.7583209926511 M1.2519309632480145 119.90093319490552 C-0.069940954501726 76.72718001181602, 1.0113537012981397 27.007944193228454, 3.4954487197101116 0.8051491267979145 M-1.8330055233091116 118.93179059587419 C1.5730884756219894 80.75361085766235, -1.2134017859327286 38.04125715399641, -1.8417072650045156 -1.0513890329748392" stroke="#000000" stroke-width="1" fill="none"></path></g><g transform="translate(353.67536501024597 54.017578125) rotate(0 88.5 17.5)"><text x="88.5" y="25" font-family="Virgil, Segoe UI Emoji" font-size="28px" fill="#000000" text-anchor="middle" style="white-space: pre;" direction="ltr">Remove Value</text></g><g transform="translate(780.03515625 510.95534684380505) rotate(0 84 10)"><text x="168" y="14" font-family="Virgil, Segoe UI Emoji" font-size="16px" fill="#adb5bd" text-anchor="end" style="white-space: pre;" direction="ltr">Made with Excalidraw</text></g></svg>